<svg xmlns="http://www.w3.org/2000/svg" width="261" height="188" viewBox="0 0 261 188">
  <defs>
    <linearGradient id="group-329-a" x1="50%" x2="50%" y1="0%" y2="100%">
      <stop offset="0%" stop-color="#655DC6"/>
      <stop offset="100%" stop-color="#22A5DF" stop-opacity="0"/>
    </linearGradient>
  </defs>
  <g fill="none">
    <path fill="url(#group-329-a)" d="M35.9172924,30.1420942 C12.113297,44.8775915 -1.98823018,71.9263864 0.227835383,100.189981 C1.39811915,114.613978 6.67683811,128.538976 20.6288954,136.193974 C57.8372881,156.448971 220.273956,156.827971 244.318951,121.001977 C268.363947,85.1764839 259.415948,34.2099935 207.134959,12.9759974 C161.809968,-5.48131913 97.3695803,-7.91191868 35.9172924,30.1420942 Z" opacity=".3"/>
    <path fill="#ECE8D3" d="M205.268273,25.4207912 L186.882956,25.4207912 L186.882956,50.7540031 L205.268273,50.7540031 L205.268273,25.4207912 Z" opacity=".58" transform="rotate(-24.19 196.076 38.087)"/>
    <path fill="#4DA1FF" d="M97.5061434,50.5614862 L78.8144757,58.8312881 C72.0078511,61.8342888 64.4425237,62.671589 57.1439973,61.2297886 C49.8454709,59.7879883 43.1668467,56.1366875 38.0135281,50.7710862 L19.6120415,31.6038818 L12.5996361,36.4400029 L28.0752921,59.8145883 C34.6117157,69.6761906 43.8267491,77.4674924 54.6378882,82.2733935 C65.4489274,87.0792946 77.4070706,88.699995 89.107313,86.9451946 L116.278011,82.8747936 L97.5061434,50.5614862 Z"/>
    <path fill="#FFF" d="M97.5061434,50.5614862 L78.8144757,58.8312881 C72.0078511,61.8342888 64.4425237,62.671589 57.1439973,61.2297886 C49.8454709,59.7879883 43.1668467,56.1366875 38.0135281,50.7710862 L19.6120415,31.6038818 L12.5996361,36.4400029 L28.0752921,59.8145883 C34.6117157,69.6761906 43.8267491,77.4674924 54.6378882,82.2733935 C65.4489274,87.0792946 77.4070706,88.699995 89.107313,86.9451946 L116.278011,82.8747936 L97.5061434,50.5614862 Z" opacity=".46"/>
    <path fill="#E8301B" d="M198.998902,66.5046742 C212.432672,61.7169403 223.985547,64.672374 233.657525,75.3709754 C243.329504,86.0695101 250.315155,101.115212 254.614479,120.508081 C224.523212,106.537079 201.685896,106.537079 186.102531,120.508081 C170.519565,134.479083 149.608778,133.820816 123.37017,118.533281 L110.248199,73.7266752 L100.68882,54.7045827 L123.37017,44.8630714 L153.458803,45.4031035 L165.573276,58.0817731 L177.663549,69.0033746 L198.998902,66.5046742 Z"/>
    <path fill="#000" d="M198.998902,66.5046742 C212.432672,61.7169403 223.985547,64.672374 233.657525,75.3709754 C243.329504,86.0695101 250.315155,101.115212 254.614479,120.508081 C224.523212,106.537079 201.685896,106.537079 186.102531,120.508081 C170.519565,134.479083 149.608778,133.820816 123.37017,118.533281 L110.248199,73.7266752 L100.68882,54.7045827 L123.37017,44.8630714 L153.458803,45.4031035 L165.573276,58.0817731 L177.663549,69.0033746 L198.998902,66.5046742 Z" opacity=".08"/>
    <path fill="#888C8C" d="M151.346863 155.360139C153.566103 157.310706 154.313013 159.492326 153.587593 161.904999 152.499473 165.524098 155.570403 167.805098 157.706364 165.000098 159.13033 163.130165 159.562894 158.954996 159.004054 152.474589L152.467233 150.2258 151.346863 155.360139zM207.905046 159.25331C210.77984 159.946484 212.459044 161.531664 212.942656 164.008851 213.668075 167.724552 217.440258 168.296853 218.028656 164.814852 218.420922 162.493511 216.854555 158.597743 213.329556 153.127548L206.502579 154.191499 207.905046 159.25331z"/>
    <path fill="#24285B" d="M113.295479,120.403247 L142.940868,141.55321 C158.270563,152.490217 176.438857,158.755321 195.25155,159.591922 L207.599846,160.140022 L207.599846,153.417818 L187.707253,146.744014 C180.116955,144.181112 173.236158,139.868209 167.62126,134.153906 L147.954367,114.132393 L113.295479,120.403247 Z"/>
    <path fill="#000" d="M113.295479,120.403247 L142.940868,141.55321 C158.270563,152.490217 176.438857,158.755321 195.25155,159.591922 L207.599846,160.140022 L207.599846,153.417818 L187.707253,146.744014 C180.116955,144.181112 173.236158,139.868209 167.62126,134.153906 L147.954367,114.132393 L113.295479,120.403247 Z" opacity=".08"/>
    <path fill="#EEEBE0" d="M257.977471,149.486096 L239.181077,149.486096 L239.181077,175.391583 L257.977471,175.391583 L257.977471,149.486096 Z" opacity=".75" transform="rotate(11.17 248.58 162.439)"/>
    <path fill="#EFEBE0" d="M135.843805,162.213496 L119.546077,162.213496 L119.546077,184.669206 L135.843805,184.669206 L135.843805,162.213496 Z" opacity=".75" transform="rotate(-30 127.695 173.441)"/>
    <path fill="#F4A28C" d="M92.934654,27.170812 C91.5590474,30.0993474 90.7530278,32.6624967 90.5165951,34.8602599 C90.4809882,35.1805594 90.509777,35.5047588 90.6012731,35.8138584 C90.692769,36.1228579 90.8451261,36.4104574 91.0493832,36.659757 C91.2536402,36.9091566 91.5056733,37.1150563 91.7906735,37.2655561 C92.0756736,37.4160558 92.3878937,37.5080557 92.7089739,37.5362556 C93.7308743,37.6992554 94.7780948,37.5647556 95.7256552,37.1488562 C96.6732256,36.7329569 97.4811059,36.053158 98.0528762,35.1906593 L100.873997,31.7086949 C101.375098,30.9511261 101.626698,30.0557575 101.593398,29.1480489 C101.560198,28.2403404 101.243798,27.3657717 100.688597,26.6468929 C98.8024765,23.8903112 94.0550245,24.4303444 92.934654,27.170812 Z"/>
    <path fill="#F4A28C" d="M98.8426548,32.2810097 L102.332714,47.7888136 L93.651886,49.110714 L94.5949278,37.294461 L98.8426548,32.2810097 Z"/>
    <path fill="#24285B" d="M93.9986908,27.775424 C95.3845524,28.3454835 96.831514,28.7538831 98.3109157,28.9925229 C97.675655,29.4608524 97.1918944,30.1053618 96.9196441,30.8461611 C96.6474038,31.5869604 96.5986538,32.3913596 96.779464,33.1596589 C96.9383341,33.9079582 97.3525146,34.5777575 97.9510253,35.0541571 C98.549526,35.5305566 99.2950968,35.7840564 100.059978,35.7711564 L102.13951,29.871082 C102.46641,29.0411528 102.564011,28.1385937 102.42221,27.2579645 C102.28041,26.3773354 101.90441,25.5510562 101.333489,24.8656968 C100.831889,24.2760874 100.293458,23.7188279 99.7214473,23.1972384 C98.2867257,21.8995497 95.4092324,22.1171695 94.3130412,20.4245301 C94.202561,20.2547942 94.0498709,20.1166854 93.8699407,20.0237345 C93.6900004,19.9307835 93.4890002,19.8861861 93.28664,19.8943131 C93.0842698,19.9024401 92.8874995,19.963008 92.7155993,20.0700884 C92.5436991,20.1771693 92.402572,20.3270822 92.3060569,20.505131 C91.3871932,22.1897094 90.694006,25.1074966 92.7251793,26.9532848 C93.1024798,27.2943345 93.5325603,27.5719842 93.9986908,27.775424 L93.9986908,27.775424 Z"/>
    <path fill="#F4A28C" d="M96.3438644 32.8451895C96.7952381 31.684521 97.4427418 31.3110648 98.2863757 31.724821 99.5518265 32.3454562 98.5926659 34.868297 96.6743357 34.4491675L96.3438644 32.8451895zM91.7824404 30.0079765L89.8641217 31.2895556C89.7615265 31.3672356 89.6790184 31.4683455 89.6235055 31.5844454 89.5679923 31.7005354 89.5410806 31.8282353 89.5450262 31.9568652 89.5489717 32.0854851 89.5836601 32.211295 89.6461844 32.3237749 89.7087095 32.4362448 89.7972496 32.5321148 89.9044127 32.6033647L91.51646 33.5705841 91.7824404 30.0079765z"/>
    <path fill="#CE8172" d="M94.7566985,37.6572308 C95.8751149,37.5404008 96.9345743,37.0975566 97.8034538,36.3837204 C97.8034538,36.3837204 97.9969037,39.3095713 94.4342957,41.7034521 L94.7566985,37.6572308 Z" opacity=".31"/>
    <path fill="#4DA1FF" d="M93.6525756,49.1107658 L102.333477,47.7969466 C131.849949,39.4734517 148.757552,44.1644788 153.056286,61.8700279 C157.355086,79.5756171 159.25192,94.2747414 158.746787,105.967401 L128.875682,120.475792 C74.066339,98.2242723 62.3253037,74.4359302 93.6525756,49.1107658 Z"/>
    <path fill="#24285B" d="M111.289939,74.5559111 L87.8347596,74.5559111 L87.8347596,107.04658 L111.289939,107.04658 L111.289939,74.5559111 Z" transform="rotate(-15.17 99.562 90.801)"/>
    <path fill="#FFD200" d="M98.3054779,73.2076443 L90.2130411,73.2076443 L90.2130411,77.6004513 L98.3054779,77.6004513 L98.3054779,73.2076443 Z" transform="rotate(-15.17 94.26 75.404)"/>
    <path fill="#000" d="M112.939834,65.7147315 C109.715753,73.7050818 114.154248,78.9898909 126.25532,81.5691587 C144.406828,85.4380605 144.390728,97.6895661 132.501923,98.4069664 C120.613118,99.1242668 103.058026,92.6922638 103.372373,106.60417 C112.582468,112.917973 121.083284,117.552575 128.874821,120.507977 L158.745934,105.99967 L158.745934,104.145769 L160.309635,78.2322572 L144.793728,63.3208504 L112.939834,65.7147315 Z" opacity=".08"/>
    <path fill="#4DA1FF" d="M111.182697,57.9689372 C112.31918,49.6911244 120.105327,44.0248065 128.407303,44.9678509 C139.796398,46.2574833 157.061291,51.351525 165.057088,69.6159411 C177.550382,98.1651507 169.893185,115.978257 110.247711,98.4069508 L111.85975,91.7170485 C138.727046,94.9411163 151.354693,92.3161821 149.742694,83.8422459 C147.703495,73.1463423 108.563132,77.1280436 111.182697,57.9689372 Z"/>
    <path fill="#FFF" d="M111.182697,57.9689372 C112.31918,49.6911244 120.105327,44.0248065 128.407303,44.9678509 C139.796398,46.2574833 157.061291,51.351525 165.057088,69.6159411 C177.550382,98.1651507 169.893185,115.978257 110.247711,98.4069508 L111.85975,91.7170485 C138.727046,94.9411163 151.354693,92.3161821 149.742694,83.8422459 C147.703495,73.1463423 108.563132,77.1280436 111.182697,57.9689372 Z" opacity=".46"/>
    <path fill="#E8301B" d="M99.3109553,43.6862274 C94.4437695,44.7199381 89.9446827,47.0446898 86.2856834,50.4164523 C84.3190192,52.1729536 82.7640637,54.3416553 81.7316738,56.7679571 C78.9025551,64.0866625 94.627969,65.9646639 113.577413,58.5734584 C132.526958,51.1822529 140.982033,45.2257285 156.296388,55.0591558 C171.610743,64.8926631 178.058825,76.1768714 199.015663,66.5046643 C182.357712,66.5046643 171.342011,60.1962129 165.96856,47.5793102 C159.25448,31.8296686 114.319011,40.3493049 99.3109553,43.6862274 Z"/>
    <path fill="#F4A28C" d="M111.860103,91.7167866 C108.157769,88.1004275 105.03041,86.5609224 102.478025,87.0982712 C98.6494385,87.904295 100.865986,95.8597546 110.248028,98.4470358 L111.860103,91.7167866 Z"/>
    <path fill="#24285B" d="M158.745755,105.967506 C120.137398,110.803623 101.679539,118.057785 103.372177,127.729992 C105.064818,137.402252 121.222844,147.074513 151.846257,156.746773 L155.473356,149.492578 L125.650563,128.133092 C159.299222,136.171753 170.330953,128.783225 158.745755,105.967506 Z"/>
    <path fill="#F4A28C" d="M12.5985759,36.4079361 C7.11137926,30.5238908 5.53381573,26.3755271 7.8658853,23.9628451 C10.1979522,21.5501658 14.1129739,24.0972334 19.6109505,31.6040481 L12.5985759,36.4079361 Z"/>
  </g>
</svg>
