<?xml version="1.0" encoding="UTF-8"?>
<svg width="179px" height="189px" viewBox="0 0 179 189" version="1.1" xmlns="http://www.w3.org/2000/svg" xmlns:xlink="http://www.w3.org/1999/xlink">
    <title>012FED68-AB2D-4BFA-9EF0-DE4107C65B15</title>
    <g id="HF_Invite_Users" stroke="none" stroke-width="1" fill="none" fill-rule="evenodd">
        <g id="HF_Invite_Users_01_07" transform="translate(-661.000000, -292.000000)" fill-rule="nonzero">
            <g id="Group-448" transform="translate(661.000000, 292.000000)">
                <path d="M78.5000775,189 C121.302165,189 156,183.179637 156,175.999984 C156,168.820284 121.302165,163 78.5000775,163 C35.6979898,163 1,168.820284 1,175.999984 C1,183.179637 35.6979898,189 78.5000775,189 Z" id="Vector" fill="#EAEEF3" opacity="0.449999988"></path>
                <path d="M23,115 L19,115 L19,175 L23,175 L23,115 Z" id="Vector" fill="#C9C9C9"></path>
                <path d="M23,115 L19,115 L19,175 L23,175 L23,115 Z" id="Vector" fill="#B0BEC5"></path>
                <path d="M23,115 L19,115 L19,175 L23,175 L23,115 Z" id="Vector" fill="#FFFFFF" opacity="0.479999989"></path>
                <path d="M8.17761409,94 L27.9766439,94 C30.1045634,94 32.1453211,94.8477015 33.650018,96.3566181 C35.1547149,97.8655332 36,99.9120537 36,102.045967 L36,115 L0,115 L0,102.200707 C0,100.025746 0.861582568,97.9398609 2.39517992,96.4019282 C3.92878189,94.8640048 6.00877778,94 8.17761409,94 L8.17761409,94 Z" id="Vector" fill="#001E61"></path>
                <path d="M6.9872583,94 C8.84714953,94 10.6308769,94.7158136 11.9460085,95.9899628 C13.2611561,97.2641135 14,98.9922217 14,100.794135 L14,115 L0,115 L0,100.794135 C0,98.9922217 0.738845497,97.2641135 2.05399147,95.9899628 C3.36913903,94.7158136 5.15285047,94 7.0127417,94 L6.9872583,94 Z" id="Vector" fill="#001E61"></path>
                <path d="M6.9872583,94 C8.84714953,94 10.6308769,94.7158136 11.9460085,95.9899628 C13.2611561,97.2641135 14,98.9922217 14,100.794135 L14,115 L0,115 L0,100.794135 C0,98.9922217 0.738845497,97.2641135 2.05399147,95.9899628 C3.36913903,94.7158136 5.15285047,94 7.0127417,94 L6.9872583,94 Z" id="Vector" fill="#FFFFFF" opacity="0.0799999982"></path>
                <path d="M13.7830904,175 L10,163.257533 L16.4992984,167.689613 L17.0511135,155 L23.74662,167.794841 L31,163.257533 L26.6590974,175 L13.7830904,175 Z" id="Vector" fill="#7ADBD4"></path>
                <path d="M29,104.5 C29,103.119286 27.8807136,102 26.5,102 C25.1192864,102 24,103.119286 24,104.5 C24,105.880714 25.1192864,107 26.5,107 C27.8807136,107 29,105.880714 29,104.5 Z" id="Vector" fill="#FFFFFF" opacity="0.209999993"></path>
                <path d="M25.9411722,105 C25.691558,105 25.4521623,104.902778 25.2756578,104.729957 C25.0991534,104.557136 25,104.32267 25,104.078082 L25,88.1668005 C25.0016597,87.0622016 25.4503916,86.0032999 26.2478319,85.2222216 C27.045269,84.4411449 28.1263547,84.0016256 29.254095,84 L40.0587683,84 C40.3083857,84 40.5477485,84.0971235 40.7242999,84.2700059 C40.9007417,84.4428885 41,84.6773671 41,84.9218593 C41,85.1663515 40.9007417,85.4008316 40.7242999,85.5737157 C40.5477485,85.7465983 40.3083857,85.8437124 40.0587683,85.8437124 L29.254095,85.8437124 C28.6250729,85.8437124 28.0217891,86.0884684 27.5770054,86.5241403 C27.1322061,86.959797 26.8823382,87.550686 26.8823382,88.1668005 L26.8823382,104.078082 C26.8823382,104.32267 26.7831738,104.557136 26.6066694,104.729957 C26.430165,104.902778 26.1907865,105 25.9411722,105 Z" id="Vector" fill="#FF4133"></path>
                <path d="M25.9411722,105 C25.691558,105 25.4521623,104.902778 25.2756578,104.729957 C25.0991534,104.557136 25,104.32267 25,104.078082 L25,88.1668005 C25.0016597,87.0622016 25.4503916,86.0032999 26.2478319,85.2222216 C27.045269,84.4411449 28.1263547,84.0016256 29.254095,84 L40.0587683,84 C40.3083857,84 40.5477485,84.0971235 40.7242999,84.2700059 C40.9007417,84.4428885 41,84.6773671 41,84.9218593 C41,85.1663515 40.9007417,85.4008316 40.7242999,85.5737157 C40.5477485,85.7465983 40.3083857,85.8437124 40.0587683,85.8437124 L29.254095,85.8437124 C28.6250729,85.8437124 28.0217891,86.0884684 27.5770054,86.5241403 C27.1322061,86.959797 26.8823382,87.550686 26.8823382,88.1668005 L26.8823382,104.078082 C26.8823382,104.32267 26.7831738,104.557136 26.6066694,104.729957 C26.430165,104.902778 26.1907865,105 25.9411722,105 Z" id="Vector" fill="#000000" opacity="0.0799999982"></path>
                <path d="M43,83 L33,83 L33,87 L43,87 L43,83 Z" id="Vector" fill="#FF4133"></path>
                <path d="M43,83 L33,83 L33,87 L43,87 L43,83 Z" id="Vector" fill-opacity="0.200000003" fill="#FFFFFF"></path>
                <g id="Group-446" transform="translate(76.500000, 104.000000) scale(1, -1) rotate(180.000000) translate(-76.500000, -104.000000) translate(7.000000, 32.000000)">
                    <path d="M39.6527613,52.6585522 C46.1385703,72.3635049 53.4170246,81.9724311 61.4881241,81.4853308 C69.5591617,80.9983344 78.0089084,73.9492969 86.8373643,60.3382184 L83.3916485,56.9541694 C66.9267359,75.0399238 57.3842683,72.8109466 54.7642458,50.2672375 L39.6527613,52.6585522 Z" id="Vector" fill="#F4A28C"></path>
                    <path d="M35.3299528,23.2761918 C37.0393602,30.3522926 36.5840725,34.8705912 33.9640896,36.8310877 L29.4939665,32.7852249 L31.6172742,22.3771089 L35.3299528,23.2761918 Z" id="Vector" fill="#24285B"></path>
                    <path d="M48.8969414,137.915443 C49.7992447,139.717763 51.1071656,140.585626 52.8207042,140.519031 C55.3910276,140.41914 56.3595559,142.841655 54.1555386,143.771948 C52.6861937,144.392153 49.8654641,143.963428 45.6933497,142.485771 L45.3767102,138.396204 L48.8969414,137.915443 Z" id="Vector" fill="#B28B67"></path>
                    <path d="M33.1484408,14.1418669 C34.6550464,16.801647 35.596671,19.1617364 35.9733146,21.2221352 C36.0269453,21.5214675 36.02126,21.8284959 35.9565996,22.125616 C35.8919392,22.4227362 35.7695739,22.7040906 35.5965212,22.9535394 C35.4234686,23.2029882 35.2031367,23.4156086 34.9481664,23.5792023 C34.6932116,23.7428116 34.4086376,23.8541537 34.1107721,23.9068882 C32.5586429,24.1691117 30.3856714,24.0754671 28.9204636,22.08374 L26.0148882,19.0118833 C25.5068143,18.3316164 25.21986,17.5102518 25.1931926,16.6598949 C25.1665252,15.8095224 25.4014398,14.9716129 25.8658811,14.2604999 C27.4055909,11.4758396 31.8943321,11.6381745 33.1484408,14.1418669 Z" id="Vector" fill="#F4A28C"></path>
                    <path d="M27.0840051,19.6861207 L27.1460845,34.7394867 L35.3909726,34.1088851 L32.1190961,23.675792 L27.0840051,19.6861207 Z" id="Vector" fill="#F4A28C"></path>
                    <path d="M34.4381293,17.0389299 L36.3317152,18.1128309 C36.4404172,18.1736352 36.5319239,18.2612678 36.5976222,18.3674705 C36.6633205,18.4736732 36.7010571,18.59495 36.7072691,18.7198738 C36.7134811,18.8448007 36.6879515,18.9692446 36.6331126,19.0815059 C36.5782736,19.1937828 36.4959222,19.2901536 36.3938041,19.3615516 L34.94723,20.3979978 L34.4381293,17.0389299 Z" id="Vector" fill="#F4A28C"></path>
                    <path d="M35.3854897,34.1090926 C43.7379599,37.0644053 50.2713441,41.3891531 54.985642,47.0833361 C60.2257131,53.4018165 58.6425071,62.6924348 54.5758984,67.3502071 C50.9370032,71.4438683 48.2573263,76.3061912 46.7345362,81.5793291 L45.362476,86.5742282 L21.9254347,86.5742282 C0.286747102,59.7308283 0.547501028,42.456814 22.7076965,34.7521854 L35.3854897,34.1090926 Z" id="Vector" fill="#E81F76"></path>
                    <path d="M24.9638306,50.8230026 C23.4820623,59.4641882 25.5722594,64.2010231 31.234422,65.0335072 C36.8965742,65.8659912 41.1762879,62.3279313 44.0735633,54.4193275 L50.3876386,54.0010187 L49.2639039,75.1357332 C47.3724232,78.9651288 46.3107568,81.9142131 46.0789045,83.9829861 L20.6240831,85.0942285 L18.4138547,82.2658806 L11.367214,73.4123962 L14.0679107,62.1177305 L24.9638306,50.8230026 Z" id="Vector" fill="#000000" opacity="0.0799999982"></path>
                    <path d="M20.4696116,23.1077578 C19.8487696,25.911223 18.4704839,29.1203152 15.4655727,31.2619431 L27.1065036,36.8312348 C29.2256728,29.4387474 29.7844363,23.8548739 28.7827941,20.0796142 C28.1950568,17.8443988 27.9384394,16.4208533 28.0129419,15.8089774 L35.0844403,13.9858285 C34.3352845,10.8140725 33.1060038,8.91601365 31.3965982,8.29165185 C28.993893,7.41130213 18.9795877,7.60485562 20.4758236,15.5592325 C20.9831614,18.0497648 20.9810545,20.6180824 20.4696116,23.1077578 Z" id="Vector" fill="#24285B"></path>
                    <path d="M29.5876023,18.7371599 C28.8756878,17.2595044 27.9899418,16.8432633 26.9303641,17.4884367 C25.3409898,18.4561968 26.8558575,21.6404401 29.2647498,20.8974533 L29.5876023,18.7371599 Z" id="Vector" fill="#F4A28C"></path>
                    <path d="M46.252416,93.8541455 C49.977521,106.965729 50.9067265,121.604923 49.0400327,137.771728 L45.3770063,138.396129 C43.0715903,120.081518 39.1395431,106.137437 33.5808645,96.5638855 L46.252416,93.8541455 Z" id="Vector" fill="#F4A28C"></path>
                    <path d="M21.3071323,96.8324669 C27.0437461,116.304208 21.8699808,124.930809 5.78583663,122.712272 L5.78583663,126.021384 C29.0304463,132.681254 38.1362504,122.955779 33.1032489,96.8449569 L21.3071323,96.8324669 Z" id="Vector" fill="#F4A28C"></path>
                    <path d="M29.6942303,51.9093979 L47.0780292,50.8230026 L45.7866773,72.5382893 L28.6325799,73.4124219 L29.6942303,51.9093979 Z" id="Vector" fill="#F1F2F2"></path>
                    <path d="M20.6475397,85.0943307 L46.102403,83.9829658 C49.9724291,96.3577934 52.1660945,106.139464 52.6833993,113.327977 L18.3566011,113.327977 C17.5660491,101.011404 18.3296953,91.6001883 20.6475397,85.0943307 Z" id="Vector" fill="#24285B"></path>
                    <path d="M25.8673341,67.5997406 C26.6578839,63.79946 28.501811,62.3884035 31.3991154,63.3665712 C35.745058,64.8338197 31.2128488,73.9557519 25.8673341,67.5997406 Z" id="Vector" fill="#F4A28C"></path>
                    <path d="M24.4189947,46.4338702 C24.4730592,45.1274264 24.137209,43.8345984 23.454355,42.7218155 C22.7716559,41.6090326 21.7732453,40.7272422 20.5878554,40.1899644 C19.4026204,39.6526876 18.0843156,39.4845207 16.8031588,39.7071173 C15.5219246,39.9297148 14.3362713,40.5328833 13.3988342,41.4389736 C9.7826824,44.8948494 7.2474785,49.3364937 6.10385298,54.2196586 C2.86301367,68.3926893 -2.15967179,83.8643743 4.96769423,86.1432511 C12.0950602,88.4222837 19.5390983,83.7082741 28.8580104,69.6975752 L25.865567,67.5747987 L14.0693572,72.6257792 C20.4848593,64.8546246 23.9347385,56.1239882 24.4189947,46.4338702 Z" id="Vector" fill="#F4A28C"></path>
                    <path d="M5.78996253,55.5620599 L21.7210169,60.3384022 C27.4658981,49.4204015 27.1078642,42.4962289 20.6469151,39.5658842 C10.9554449,35.1703547 6.31768616,50.5671765 5.78996253,55.5620599 Z" id="Vector" fill="#E81F76"></path>
                    <path d="M5.78996253,55.5620599 L21.7210169,60.3384022 C27.4658981,49.4204015 27.1078642,42.4962289 20.6469151,39.5658842 C10.9554449,35.1703547 6.31768616,50.5671765 5.78996253,55.5620599 Z" id="Vector" fill="#FFFFFF" opacity="0.300000012"></path>
                    <path d="M6.72270254,126.314848 C4.79807084,126.889262 3.71572369,128.027682 3.47566111,129.73011 C3.11556722,132.283751 0.570076042,132.820708 0.0547703107,130.473097 C-0.288766224,128.908034 0.636300578,126.202468 2.82997072,122.356398 L6.88412126,122.774719 L6.72270254,126.314848 Z" id="Vector" fill="#B28B67"></path>
                    <path d="M83.3915046,56.9542424 C84.4469536,54.9229852 85.9576902,53.9073566 87.9237142,53.9073566 C90.8727503,53.9073566 95.5663787,58.9022565 86.8372207,60.3382863 L83.3915046,56.9542424 Z" id="Vector" fill="#F4A28C"></path>
                    <path d="M63.8317413,3.65876114 C64.8364107,3.65876114 65.6508321,2.83971736 65.6508321,1.82938057 C65.6508321,0.819042223 64.8364107,0 63.8317413,0 C62.8270904,0 62.0126505,0.819042223 62.0126505,1.82938057 C62.0126505,2.83971736 62.8270904,3.65876114 63.8317413,3.65876114 Z" id="Vector" fill="#FFFFFF"></path>
                    <path d="M49.2390225,30.8684196 C50.2436764,30.8684196 51.0581133,30.0493758 51.0581133,29.039039 C51.0581133,28.0287006 50.2436764,27.2096584 49.2390225,27.2096584 C48.2343624,27.2096584 47.4199317,28.0287006 47.4199317,29.039039 C47.4199317,30.0493758 48.2343624,30.8684196 49.2390225,30.8684196 Z" id="Vector" fill="#FFFFFF"></path>
                    <path d="M104.337649,59.9826789 C105.342304,59.9826789 106.156727,59.1636362 106.156727,58.1533007 C106.156727,57.1429637 105.342304,56.3239226 104.337649,56.3239226 C103.332987,56.3239226 102.518555,57.1429637 102.518555,58.1533007 C102.518555,59.1636362 103.332987,59.9826789 104.337649,59.9826789 Z" id="Vector" fill="#FFFFFF"></path>
                    <path d="M69.2430453,89.7646108 C70.2476993,89.7646108 71.0621362,88.9455812 71.0621362,87.9352427 C71.0621362,86.9248979 70.2476993,86.105859 69.2430453,86.105859 C68.2383852,86.105859 67.4239545,86.9248979 67.4239545,87.9352427 C67.4239545,88.9455812 68.2383852,89.7646108 69.2430453,89.7646108 Z" id="Vector" fill="#FFFFFF"></path>
                    <path d="M137.180893,18.3561568 C138.185546,18.3561568 138.999997,17.537113 138.999997,16.5267762 C138.999997,15.5164379 138.185546,14.6973956 137.180893,14.6973956 C136.176235,14.6973956 135.361806,15.5164379 135.361806,16.5267762 C135.361806,17.537113 136.176235,18.3561568 137.180893,18.3561568 Z" id="Vector" fill="#FFFFFF"></path>
                </g>
                <path d="M150.0285,79.9461904 C149.077338,80.8128862 149.008544,82.2869527 149.874761,83.23864 C150.740978,84.1903273 152.21423,84.2591596 153.165392,83.3924638 L150.0285,79.9461904 Z M165.432191,18.0341538 L166.763041,16.1212857 L165.432191,18.0341538 Z M134.730718,43.1046271 L135.248615,40.8322309 L134.730718,43.1046271 Z M110.540313,2.36666182 L110.385021,0.0371488475 L110.540313,2.36666182 Z M35.1908544,20.7879096 C33.9954502,20.312299 32.6409807,20.8962077 32.1655398,22.0923039 C31.6900833,23.2882446 32.2737315,24.6436027 33.4691357,25.1192133 L35.1908544,20.7879096 Z M34.9814746,25.7135323 C36.1810251,26.1785772 37.5303079,25.5827044 37.9951735,24.3824131 C38.4600546,23.1822771 37.86448,21.8322019 36.6649295,21.367157 L34.9814746,25.7135323 Z M53.9309094,26.5185432 C52.6618659,26.3072298 51.4619272,27.1652244 51.2507305,28.4349695 C51.0395339,29.7047146 51.8970545,30.9053167 53.166098,31.1166301 L53.9309094,26.5185432 Z M56.3978729,31.5361494 C57.6791845,31.6514395 58.8112607,30.7055012 58.9263318,29.4234813 C59.041403,28.141306 58.0961426,27.0087593 56.8146757,26.8936245 L56.3978729,31.5361494 Z M71.3592934,21.4339693 C70.5216502,22.4109832 70.6342366,23.8822529 71.6107106,24.7203592 C72.5871846,25.5583102 74.0577967,25.4456615 74.8952847,24.4686476 L71.3592934,21.4339693 Z M76.9081753,21.9490458 C77.6861866,20.9240203 77.4864815,19.4619179 76.4620224,18.6833211 C75.4374079,17.9048798 73.9762686,18.1046952 73.1981021,19.1298761 L76.9081753,21.9490458 Z M86.9397065,5.55921922 C85.8194324,6.19194755 85.4239045,7.61357415 86.0562522,8.73451418 C86.6885999,9.85545421 88.1095187,10.2512318 89.2297928,9.61850349 L86.9397065,5.55921922 Z M91.783409,8.33715172 C92.9592775,7.81522309 93.4897538,6.43826753 92.9681291,5.2616402 C92.4465044,4.08501287 91.0703096,3.55427434 89.8942858,4.07620296 L91.783409,8.33715172 Z M108.749024,0.103805803 C107.46414,0.168365161 106.474933,1.2628444 106.539379,2.54842244 C106.60398,3.83398495 107.697854,4.82381743 108.982738,4.75925807 L108.749024,0.103805803 Z M112.291537,4.66124593 C113.577973,4.65097548 114.612527,3.59920952 114.602277,2.31206216 C114.592028,1.0249148 113.540859,-0.0101946822 112.254423,7.57717356e-05 L112.291537,4.66124593 Z M134.011872,3.97576694 C132.839731,3.44499734 131.459654,3.96535664 130.929177,5.13800631 C130.398701,6.31067151 130.918773,7.6915892 132.090759,8.2223588 L134.011872,3.97576694 Z M135.010553,9.74448358 C136.115298,10.4042476 137.545224,10.0431192 138.204747,8.93787228 C138.864116,7.83262538 138.503218,6.40180043 137.398473,5.74203641 L135.010553,9.74448358 Z M150.271842,24.3107841 C150.084094,23.0374653 148.900151,22.157407 147.627535,22.3452585 C146.354765,22.5331099 145.475193,23.7175527 145.66294,24.9910268 L150.271842,24.3107841 Z M145.875535,28.1608836 C145.858608,29.4480309 146.887726,30.5050642 148.174007,30.5220003 C149.460443,30.5389365 150.516892,29.5092497 150.533819,28.2221023 L145.875535,28.1608836 Z M136.388456,45.6744159 C137.67365,45.7315948 138.761779,44.7353142 138.818926,43.4494098 C138.875918,42.1635055 137.880343,41.0747752 136.594994,41.0177517 L136.388456,45.6744159 Z M134.112657,40.48201 C132.917377,40.0060887 131.562768,40.5896866 131.087109,41.7856274 C130.611451,42.9815681 131.194726,44.3369262 132.390006,44.8130029 L134.112657,40.48201 Z M126.401649,25.7753725 C125.986244,26.9935323 126.63645,28.3181256 127.854092,28.7337605 C129.071579,29.1493953 130.39544,28.4988297 130.810845,27.2806699 L126.401649,25.7753725 Z M131.883911,24.7167855 C132.458645,23.5652827 131.991528,22.1654867 130.840661,21.5904345 C129.689639,21.0153823 128.290772,21.4826025 127.715882,22.6342606 L131.883911,24.7167855 Z M143.140227,10.0056577 C141.887334,10.2974722 141.107925,11.5503277 141.399563,12.8040068 C141.691201,14.0576858 142.943473,14.8374323 144.196366,14.5456334 L143.140227,10.0056577 Z M146.891919,14.1401446 C148.175094,14.0485651 149.141163,12.9334828 149.049696,11.6495673 C148.958074,10.3656363 147.843701,9.39904829 146.560526,9.49064333 L146.891919,14.1401446 Z M165.388709,15.1968827 C164.309277,14.4966117 162.866773,14.8044768 162.166873,15.8845214 C161.467129,16.9645506 161.774762,18.4078368 162.854194,19.1079679 L165.388709,15.1968827 Z M165.480953,20.960534 C166.497492,21.7493857 167.96065,21.5641757 168.749066,20.5469191 C169.537482,19.5298178 169.352374,18.0656955 168.335679,17.2769837 L165.480953,20.960534 Z M178.993812,37.4094196 C178.966636,36.1224276 177.901957,35.1012866 176.615676,35.1284776 C175.32955,35.1555133 174.308818,36.2207816 174.335994,37.5077736 L178.993812,37.4094196 Z M174.183964,40.7867053 C174.042493,42.0660838 174.964615,43.2178973 176.243286,43.3592909 C177.521958,43.5006844 178.673135,42.5782081 178.814451,41.2986742 L174.183964,40.7867053 Z M170.709312,62.2078268 C171.390577,61.1158336 171.058098,59.6781255 169.966863,58.9964843 C168.875473,58.3149985 167.438559,58.6476618 166.757295,59.7394996 L170.709312,62.2078268 Z M164.842238,62.6677443 C164.115939,63.7300604 164.387855,65.1805095 165.449584,65.9072102 C166.511313,66.6340662 167.960961,66.3620001 168.687415,65.2996841 L164.842238,62.6677443 Z M154.505559,82.1160374 C155.425972,81.2167124 155.44352,79.7410921 154.544692,78.8201695 C153.645864,77.899247 152.171059,77.8816893 151.250645,78.7810144 L154.505559,82.1160374 Z M33.4691357,25.1192133 C33.9800763,25.3226025 34.4841531,25.5205534 34.9814902,25.7135323 L36.664945,21.367157 C36.1807146,21.1793056 35.6894028,20.9863267 35.1908699,20.7879096 L33.4691357,25.1192133 Z M53.166098,31.1166301 C54.2960002,31.3047923 55.3717055,31.4440105 56.3978729,31.5361494 L56.8146757,26.8936245 C55.9152264,26.8126729 54.9558345,26.6891477 53.9309094,26.5185432 L53.166098,31.1166301 Z M74.8952847,24.4686476 C75.5954948,23.6519834 76.2610749,22.8016022 76.9081753,21.9490458 L73.1981021,19.1298761 C72.5752272,19.9504248 71.9728508,20.7181451 71.3592934,21.4339693 L74.8952847,24.4686476 Z M89.2297928,9.61850349 C90.0233332,9.17031704 90.8720022,8.74163047 91.783409,8.33715172 L89.8942858,4.07620296 C88.8469988,4.54101481 87.8646237,5.03690216 86.9397065,5.55921922 L89.2297928,9.61850349 Z M108.982738,4.75925807 C109.48961,4.7337917 110.005799,4.7127225 110.531462,4.6961748 L110.385021,0.0371488475 C109.830786,0.0545977428 109.285556,0.0768478034 108.749024,0.103805803 L108.982738,4.75925807 Z M110.531462,4.6961748 C111.12716,4.67743627 111.713852,4.66586065 112.291537,4.66124593 L112.254423,7.57717356e-05 C111.639623,0.00497016355 111.016593,0.017276063 110.385021,0.0371488475 L110.531462,4.6961748 Z M132.090759,8.2223588 C133.133387,8.69453554 134.105513,9.20389412 135.010553,9.74448358 L137.398473,5.74203641 C136.338452,5.10893518 135.210258,4.51850061 134.011872,3.97576694 L132.090759,8.2223588 Z M145.66294,24.9910268 C145.820717,26.0611118 145.889045,27.1228064 145.875535,28.1608836 L150.533819,28.2221023 C150.550746,26.9380625 150.466112,25.6283854 150.271842,24.3107841 L145.66294,24.9910268 Z M136.594994,41.0177517 C136.164836,40.9986402 135.715888,40.9389753 135.248615,40.8322309 L134.21282,45.3768679 C134.944244,45.5438988 135.670543,45.6425635 136.388456,45.6744159 L136.594994,41.0177517 Z M135.248615,40.8322309 C134.838335,40.7386937 134.460355,40.6204514 134.112657,40.48201 L132.390006,44.8130029 C132.969399,45.0435832 133.577366,45.2319007 134.21282,45.3768679 L135.248615,40.8322309 Z M130.810845,27.2806699 C131.104502,26.4194124 131.462915,25.5603301 131.883911,24.7167855 L127.715882,22.6342606 C127.202488,23.6630152 126.763323,24.714921 126.401649,25.7753725 L130.810845,27.2806699 Z M144.196366,14.5456334 C145.05839,14.3448856 145.957063,14.2068793 146.891919,14.1401446 L146.560526,9.49064333 C145.381241,9.5747958 144.240313,9.74948674 143.140227,10.0056577 L144.196366,14.5456334 Z M162.854194,19.1079679 C163.266338,19.3753726 163.682209,19.6550521 164.101497,19.9470065 L166.763041,16.1212857 C166.302601,15.8006642 165.84449,15.4926127 165.388709,15.1968827 L162.854194,19.1079679 Z M164.101497,19.9470065 C164.581503,20.2813789 165.041011,20.619325 165.480953,20.960534 L168.335679,17.2769837 C167.830981,16.8853857 167.306872,16.5000961 166.763041,16.1212857 L164.101497,19.9470065 Z M174.335994,37.5077736 C174.358822,38.5874919 174.306023,39.681505 174.183964,40.7867053 L178.814451,41.2986742 C178.957319,40.0059333 179.021144,38.7074434 178.993812,37.4094196 L174.335994,37.5077736 Z M166.757295,59.7394996 C166.135507,60.7362464 165.494618,61.7137263 164.842238,62.6677443 L168.687415,65.2996841 C169.373804,64.2956345 170.050565,63.2637724 170.709312,62.2078268 L166.757295,59.7394996 Z M151.250645,78.7810144 C150.855894,79.1666614 150.545932,79.4620341 150.336909,79.6588974 C150.232242,79.7574067 150.153044,79.831211 150.100866,79.8793781 C150.074932,79.9034616 150.055676,79.9211746 150.043563,79.9323618 C150.037507,79.9379554 150.033159,79.9418398 150.030674,79.9441705 C150.029432,79.9454135 150.028655,79.946035 150.028189,79.9463458 C150.028034,79.9465012 150.028034,79.9466565 150.028034,79.9465012 L150.028189,79.9465012 C150.028189,79.9463976 150.028241,79.9463458 150.028345,79.9463458 C150.028345,79.9461904 150.028345,79.9461904 150.0285,79.9461904 C150.0285,79.9461904 150.551315,80.5205693 151.596946,81.6693271 C153.165392,83.3924638 153.165392,83.3924638 153.165392,83.3923113 C153.165495,83.3923113 153.165547,83.3923113 153.165547,83.3923113 C153.165702,83.392153 153.165702,83.392153 153.165857,83.3919976 C153.166013,83.3918422 153.166323,83.3916869 153.166479,83.3913761 C153.1671,83.39091 153.167721,83.3904438 153.168342,83.389667 C153.169895,83.3884239 153.171758,83.3865594 153.174243,83.3843841 C153.178902,83.3800336 153.185579,83.3739738 153.193965,83.3663603 C153.210581,83.350978 153.234496,83.3290697 153.265089,83.3006356 C153.326584,83.2437675 153.415411,83.1609513 153.529861,83.0532746 C153.75845,82.8379214 154.089066,82.5228158 154.505559,82.1160374 L151.250645,78.7810144 Z" id="Vector" fill="#C9C9C9" opacity="0.449999988"></path>
                <path d="M29.5811707,15.6999993 L38,10.787495 L4,7 L19.5499684,30 L25.0873857,18.1625128 L29.5811707,15.6999993 Z" id="Vector" fill="#F7DDBE"></path>
                <path d="M29,15.5553458 L26.6973183,24 L24.6083079,17.9768957 L4,7 L29,15.5553458 Z" id="Vector" fill="#EAB371"></path>
                <path d="M29,15.5553458 L26.6973183,24 L24.6083079,17.9768957 L4,7 L29,15.5553458 Z" id="Vector" fill="#FFFFFF" opacity="0.460000008"></path>
                <path d="M27,24 L23,21.3857098 L24.7237966,18 L27,24 Z" id="Vector" fill="#24285B"></path>
            </g>
        </g>
    </g>
</svg>