<?xml version="1.0" encoding="UTF-8"?>
<svg width="128px" height="128px" viewBox="0 0 128 128" version="1.1" xmlns="http://www.w3.org/2000/svg" xmlns:xlink="http://www.w3.org/1999/xlink">
    <title>4880ADB4-814A-4F08-B974-FEDD27A03824@3x</title>
    <defs>
        <rect id="path-1" x="0" y="0" width="128" height="128"></rect>
    </defs>
    <g id="HF_B2E_SSO_Login_&amp;_Switch_Organizations" stroke="none" stroke-width="1" fill="none" fill-rule="evenodd">
        <g id="Identity-Access-/-Users-00-(sidebar-closed)" transform="translate(-519.000000, -160.000000)">
            <g id="Group-3" transform="translate(425.000000, 144.000000)">
                <g id="Group-7" transform="translate(94.000000, 16.000000)">
                    <mask id="mask-2" fill="white">
                        <use xlink:href="#path-1"></use>
                    </mask>
                    <g id="Mask"></g>
                    <g mask="url(#mask-2)">
                        <g transform="translate(3.974453, 9.000000)">
                            <circle id="Oval" fill="#3F3D56" fill-rule="evenodd" cx="52.5255469" cy="50.5" r="39.5"></circle>
                            <polygon id="Path" fill="#D0CDE1" fill-rule="nonzero" points="17.7402025 65.2397344 0.0485842324 65.2397344 0.0485842324 60.2822573 9.28330622 60.2822573"></polygon>
                            <path d="M-3.55271368e-15,64.5593175 L-3.55271368e-15,79.0431456 L57.4492787,79.0431456 L57.4492787,64.5593175 L-3.55271368e-15,64.5593175 Z M22.4061982,76.6129726 L3.74246639,76.6129726 L3.74246639,74.5716276 L22.4061982,74.5716276 L22.4061982,76.6129726 Z M53.7068136,72.8219021 L3.74246506,72.8219021 L3.74246506,70.7805583 L53.7068136,70.7805583 L53.7068136,72.8219021 Z M53.7068136,69.0308329 L3.74246506,69.0308329 L3.74246506,66.9894891 L53.7068136,66.9894891 L53.7068136,69.0308329 Z" id="Shape" fill="#9CA3DB" fill-rule="nonzero"></path>
                            <polygon id="Path" fill="#D0CDE1" fill-rule="nonzero" points="17.7402025 41.8129461 0.0485842324 41.8129461 0.0485842324 36.8553361 9.28330622 36.8553361"></polygon>
                            <path d="M-3.55271368e-15,41.4240744 L-3.55271368e-15,55.9079024 L57.4492787,55.9079024 L57.4492787,41.4240744 L-3.55271368e-15,41.4240744 Z M22.4061982,53.4777308 L3.74246639,53.4777308 L3.74246639,51.4363857 L22.4061982,51.4363857 L22.4061982,53.4777308 Z M33.196164,49.6866616 L3.74246639,49.6866616 L3.74246639,47.6453165 L33.196164,47.6453165 L33.196164,49.6866616 Z M53.7068202,45.8955924 L3.7424717,45.8955924 L3.7424717,43.8542473 L53.7068202,43.8542473 L53.7068202,45.8955924 Z" id="Shape" fill="#9CA3DB" fill-rule="nonzero"></path>
                            <polygon id="Path" fill="#D0CDE1" fill-rule="nonzero" points="17.7402025 88.1805477 0.0485842324 88.1805477 0.0485842324 83.2230705 9.28330622 83.2230705"></polygon>
                            <path d="M-3.55271368e-15,87.2085245 L-3.55271368e-15,101.692354 L57.4492787,101.692354 L57.4492787,87.2085245 L-3.55271368e-15,87.2085245 Z M33.1961573,99.2621809 L3.74246639,99.2621809 L3.74246639,97.2208359 L33.1961573,97.2208359 L33.1961573,99.2621809 Z M33.1961573,95.4711117 L3.74246639,95.4711117 L3.74246639,93.4297693 L33.1961573,93.4297693 L33.1961573,95.4711117 Z M53.7068136,91.6800425 L3.74246506,91.6800425 L3.74246506,89.6386974 L53.7068136,89.6386974 L53.7068136,91.6800425 Z" id="Shape" fill="#9CA3DB" fill-rule="nonzero"></path>
                            <polygon id="Path" fill="#D0CDE1" fill-rule="nonzero" points="73.731439 52.7001162 65.565995 52.7001162 65.565995 44.5346722 71.1069079 44.5346722 71.1069079 44.7290622 65.7605178 44.7290622 65.7605178 52.5057261 73.537049 52.5057261 73.537049 48.6173942 73.731439 48.6173942"></polygon>
                            <path d="M69.6066921,50.5702559 C69.4179983,50.0130921 67.0517378,48.1191462 68.5017228,47.8008086 L69.690799,49.3863064 L75.1576418,43.9195578 L75.7074695,44.4693842 L69.6066921,50.5702559 Z" id="Path" fill="#9CA3DB" fill-rule="nonzero"></path>
                            <polygon id="Path" fill="#D0CDE1" fill-rule="nonzero" points="73.731439 75.8353195 65.565995 75.8353195 65.565995 67.6698755 71.1069079 67.6698755 71.1069079 67.8643983 65.7605178 67.8643983 65.7605178 75.6409295 73.537049 75.6409295 73.537049 71.7525975 73.731439 71.7525975"></polygon>
                            <path d="M69.6066921,73.7054991 C69.4179983,73.1483353 67.0517378,71.2543894 68.5017228,70.9360518 L69.690799,72.5215495 L75.1576418,67.054801 L75.7074695,67.6046274 L69.6066921,73.7054991 Z" id="Path" fill="#9CA3DB" fill-rule="nonzero"></path>
                            <polygon id="Path" fill="#D0CDE1" fill-rule="nonzero" points="73.731439 98.8733278 65.565995 98.8733278 65.565995 90.7080166 71.1069079 90.7080166 71.1069079 90.9024066 65.7605178 90.9024066 65.7605178 98.6789378 73.537049 98.6789378 73.537049 94.7906058 73.731439 94.7906058"></polygon>
                            <path d="M69.6066921,96.7435353 C69.4179983,96.1863715 67.0517378,94.2924242 68.5017228,93.974088 L69.690799,95.5595857 L75.1576418,90.0928359 L75.7074695,90.6426622 L69.6066921,96.7435353 Z" id="Path" fill="#9CA3DB" fill-rule="nonzero"></path>
                            <g id="Group-4" stroke-width="1" fill="none" fill-rule="evenodd" transform="translate(68.025547, 0.000000)">
                                <path d="M5.14160105,62.4245166 C5.14160105,62.4245166 -2.89215059,68.7367493 1.12472523,70.1713475 C5.14160105,71.6059457 7.72387676,65.0067942 7.72387676,65.0067942 L5.14160105,62.4245166 Z" id="Path" fill="#DB9872" fill-rule="nonzero"></path>
                                <path d="M5.42851995,60.1291598 L3.70700095,62.9983563 C3.70700095,62.9983563 6.57619929,62.9983563 7.1500371,67.302151 L9.44539577,64.4329545 L5.42851995,60.1291598 Z" id="Path" fill="#CFCCE0" fill-rule="nonzero"></path>
                                <path d="M35.5550849,54.1038461 C35.5550849,54.1038461 40.1458003,66.1544717 41.0065571,73.6143836 C41.8673138,81.0742956 43.3019157,100.871745 43.3019157,100.871745 L46.1711141,126.407605 L38.1373624,127.555285 L34.6943263,101.732511 L26.9474954,76.1966575 L25.2259764,101.732507 L23.7913782,124.973001 L16.3314681,125.25992 L15.7576191,101.158669 L12.6015112,70.4582664 L14.3230302,55.8253632 L35.5550849,54.1038461 Z" id="Path" fill="#FEE5BD" fill-rule="nonzero"></path>
                                <path d="M27.9517144,13.5047123 L31.1078298,20.6777035 L22.5002403,33.0152499 C22.5002403,33.0152499 21.9263914,19.5300242 20.2048835,17.2346674 C18.4833757,14.9393106 27.9517144,13.5047123 27.9517144,13.5047123 Z" id="Path" fill="#C2815D" fill-rule="nonzero"></path>
                                <path d="M24.3652327,27.9999996 C25.2232452,27.9999996 26.0076169,27.5152312 26.3913317,26.7478015 L26.4652327,26.5999996 C26.9317989,25.6668673 27.4256546,24.7476311 27.9461621,23.8434785 L27.9517423,23.8337855 L27.9517423,23.8337855 L29.9601207,17.5216328 L32.8293655,19.5300112 L36.5592908,57.1164676 L13.3188725,57.6903166 L16.4749489,31.5806535 L19.3441937,24.1208029 L21.4152178,21.3827979 L21.5652327,22.3999996 L22.6256828,26.6418001 C22.8252386,27.4400232 23.5424431,27.9999996 24.3652327,27.9999996 L24.3652327,27.9999996 L24.3652327,27.9999996 Z" id="Path" fill="#CFCCE0" fill-rule="nonzero"></path>
                                <path d="M30.533992,44.4920358 L31.4119604,18.5378529 C31.4119604,18.5378529 33.1162677,18.6692656 33.6901073,19.5300242 C34.263947,20.3907828 43.7322969,22.1123018 43.7322969,22.1123018 L42.0107779,48.7958324 C42.0107779,48.7958324 49.1837691,70.0278871 46.6014934,71.1755702 C44.0192176,72.3232532 39.4285003,72.0363287 39.4285003,72.0363287 L30.533992,44.4920358 Z" id="Path" fill="#575A89" fill-rule="nonzero"></path>
                                <path d="M16.618387,41.1924601 L19.6621101,23.7003614 L12.8884319,28.2810759 L14.6099491,40.9055412 L13.1753508,49.5131306 C13.1753508,49.5131306 7.72387676,73.3274647 9.44539763,74.1882233 C11.1669185,75.0489819 13.1753527,74.1882233 13.1753527,74.1882233 L16.6183888,50.0869703 L16.618387,41.1924601 Z" id="Path" fill="#575A89" fill-rule="nonzero"></path>
                                <path d="M14.8968698,27.7072362 L12.8884319,28.2810852 L12.0276715,39.7578785 L10.5930732,49.8000681 L3.70700095,62.1375959 C3.70700095,62.1375959 7.1500371,59.842239 8.58463534,66.4413924 L16.1682176,53.2381614 L14.8968698,27.7072362 Z" id="Path" fill="#575A89" fill-rule="nonzero"></path>
                                <path d="M37.2766076,60.1291598 C37.2766076,60.1291598 29.242856,66.4413924 33.2597318,67.8759907 C37.2766076,69.3105889 39.8588852,62.7114355 39.8588852,62.7114355 L37.2766076,60.1291598 Z" id="Path" fill="#DB9872" fill-rule="nonzero"></path>
                                <polygon id="Path" fill="#CFCCE0" fill-rule="nonzero" points="42.1542717 63.2852975 39.5720443 66.4413739 36.1289506 60.4160527 37.56348 57.8338253"></polygon>
                                <path d="M41.5803986,23.1165207 L43.8757554,21.9688433 C43.8757554,21.9688433 45.5972744,24.2642001 45.8841933,26.272638 C46.1711122,28.2810759 47.6057123,30.8633516 47.6057123,32.2979499 C47.6057123,33.7325481 51.6225881,47.2177738 51.6225881,47.2177738 L42.4411572,65.8675621 C42.4411572,65.8675621 40.4327193,58.9814898 36.1289245,58.4076501 L43.3019176,48.3654475 L39.2850418,41.1924601 L41.5803986,23.1165207 Z" id="Path" fill="#575A89" fill-rule="nonzero"></path>
                                <ellipse id="Oval" fill="#FFB8B8" fill-rule="nonzero" cx="28.525554" cy="10.4920555" rx="1" ry="1.00421895"></ellipse>
                                <circle id="Oval" fill="#DB9872" fill-rule="nonzero" cx="22.6437007" cy="11.639733" r="7.1729912"></circle>
                                <path d="M28.648583,4.80541302 L30.0012177,4.26389442 C30.0012177,4.26389442 27.1729993,1.15017544 23.238035,1.4209459 L24.344766,0.202521602 C24.344766,0.202521602 21.6394985,-0.880500738 19.1801681,1.96244778 C17.8873442,3.45692001 16.3915354,5.21360237 15.4590578,7.19247971 L14.0104804,7.19247971 L14.6150611,8.52369963 L12.4990214,9.8549214 L14.6709273,9.61580651 C14.5415077,10.3447979 14.5216425,11.0890258 14.6119883,11.8238833 C14.7051612,12.5589645 15.0802791,13.229094 15.6581743,13.6928426 L15.6581743,13.6928426 C15.6581743,13.6928426 17.335687,10.2205545 17.335687,9.67903586 L17.335687,11.0328287 C17.335687,11.0328287 18.6883199,9.81442109 18.6883199,9.00215247 L19.4261126,9.94980632 L19.7950081,8.46062457 L24.3447641,9.94980632 L23.6069713,8.73139875 L26.4351991,9.13753398 L25.328468,7.64835224 C25.328468,7.64835224 28.5255894,9.40827842 28.648583,10.8974564 C28.7715358,12.3866122 29.7073464,13.7976839 29.7073464,13.7976839 C29.7073464,13.7976839 32.214611,6.8360892 28.648583,4.80541302 Z" id="Path" fill="#491605" fill-rule="nonzero"></path>
                            </g>
                        </g>
                    </g>
                    <circle id="Oval" fill="#F2F2F2" fill-rule="nonzero" mask="url(#mask-2)" cx="113.793899" cy="97.2012714" r="2.03203391"></circle>
                    <circle id="Oval" fill="#F2F2F2" fill-rule="nonzero" mask="url(#mask-2)" cx="2.03203391" cy="23.0320339" r="2.03203391"></circle>
                    <polygon id="Path" fill="#F2F2F2" fill-rule="nonzero" mask="url(#mask-2)" points="92.5479682 53.422117 92.5479682 52.4965255 92.3671172 52.4965255 92.3671172 53.422117 91.4415257 53.422117 91.4415257 53.602968 92.3671172 53.602968 92.3671172 54.5285594 92.5479682 54.5285594 92.5479682 53.602968 93.4735596 53.602968 93.4735596 53.422117"></polygon>
                    <polygon id="Path" fill="#F2F2F2" fill-rule="nonzero" mask="url(#mask-2)" points="32.602968 69.6783882 32.602968 68.7527968 32.422117 68.7527968 32.422117 69.6783882 31.4965255 69.6783882 31.4965255 69.8592392 32.422117 69.8592392 32.422117 70.7848307 32.602968 70.7848307 32.602968 69.8592392 33.5285594 69.8592392 33.5285594 69.6783882"></polygon>
                    <polygon id="Path" fill="#F2F2F2" fill-rule="nonzero" mask="url(#mask-2)" points="14.3146628 87.9666934 14.3146628 87.0411019 14.1338118 87.0411019 14.1338118 87.9666934 13.2082204 87.9666934 13.2082204 88.1475444 14.1338118 88.1475444 14.1338118 89.0731358 14.3146628 89.0731358 14.3146628 88.1475444 15.2402543 88.1475444 15.2402543 87.9666934"></polygon>
                    <polygon id="Path" fill="#F2F2F2" fill-rule="nonzero" mask="url(#mask-2)" points="56.9873749 87.9666934 56.9873749 87.0411019 56.8065238 87.0411019 56.8065238 87.9666934 55.8809324 87.9666934 55.8809324 88.1475444 56.8065238 88.1475444 56.8065238 89.0731358 56.9873749 89.0731358 56.9873749 88.1475444 57.9129663 88.1475444 57.9129663 87.9666934"></polygon>
                </g>
            </g>
        </g>
    </g>
</svg>