<?xml version="1.0" encoding="UTF-8"?>
<svg width="130px" height="130px" viewBox="0 0 130 130" version="1.1" xmlns="http://www.w3.org/2000/svg" xmlns:xlink="http://www.w3.org/1999/xlink">
    <title>F32E1232-CAE4-4742-8DDF-8A0BAFAA081A@3x</title>
    <g id="HF_B2E_SSO_Login_&amp;_Switch_Organizations" stroke="none" stroke-width="1" fill="none" fill-rule="evenodd">
        <g id="Identity-Access-/-Users-00-(sidebar-closed)" transform="translate(-181.000000, -159.000000)">
            <g id="Group" transform="translate(88.000000, 144.000000)">
                <g id="Illustrations-/-Add-Users" transform="translate(94.000000, 16.000000)">
                    <polygon id="Path" fill="#3F3D56" fill-rule="nonzero" points="115.2 61.6334065 113.288871 70.2438886 111.737485 77.2292055 110.500949 82.8003393 108.950526 89.7856562 103.884149 112.606689 41.1045278 83.5478188 36.4898464 81.4114741 30.6486193 78.707286 26.0322529 76.5709412 20.48 74.0005761 23.6276648 69.4132218 26.2451623 65.5986649 29.5565109 60.7725994 32.1732863 56.9604538 61.6197725 14.0466888 92.8137043 41.7516563 98.3684847 46.6850213 102.797818 50.6189338 108.353561 55.5522988"></polygon>
                    <path d="M56.4164627,50.3444175 C53.2522453,45.0341992 46.9920937,44.78672 46.9920937,44.78672 C46.9920937,44.78672 40.8919324,44.0119377 36.9787177,52.0994656 C33.3312831,59.6377067 28.297373,66.9160329 36.1682975,68.6806805 L37.590011,64.2857268 L38.4704736,69.0078799 C39.5911433,69.0879345 40.7153842,69.1070178 41.8381536,69.0650443 C50.2672797,68.7947516 58.2947472,69.1441241 58.0362694,66.1399531 C57.6926844,62.1463317 59.4610738,55.4539097 56.4164627,50.3444175 Z" id="Path" fill="#FDECC8" fill-rule="nonzero"></path>
                    <path d="M43.52,61.3730052 C44.6041483,63.7488932 45.2878011,66.5809398 45.6960007,69.7266888 L54.4,69.1877409 C52.3989133,66.3784728 51.7344865,63.1540487 52.4959995,59.4866888 L43.52,61.3730052 Z" id="Path" fill="#FFB8B8" fill-rule="nonzero"></path>
                    <path d="M43.52,61.3730052 C44.6041483,63.7488932 45.2878011,66.5809398 45.6960007,69.7266888 L54.4,69.1877409 C52.3989133,66.3784728 51.7344865,63.1540487 52.4959995,59.4866888 L43.52,61.3730052 Z" id="Path" fill="#000000" fill-rule="nonzero" opacity="0.2"></path>
                    <path d="M2.77319628,107.486689 C2.77319628,107.486689 -1.58577799,109.963517 0.626172484,112.078167 C2.83812296,114.192816 5.76,109.279058 5.76,109.279058 L2.77319628,107.486689 Z" id="Path" fill="#FFB8B8" fill-rule="nonzero"></path>
                    <polygon id="Path" fill="#2F2E41" fill-rule="nonzero" points="58.24 100.312324 58.1687564 103.558897 58.0166648 110.573945 58.0166648 110.575127 57.9724112 112.606689 28.8 112.606689 29.9856094 106.203995 29.9868252 106.199265 31.0484271 100.468635 31.5222089 97.9022835 31.5222089 97.9011012 55.4858167 94.6866888"></polygon>
                    <path d="M57.6,100.367853 L57.5292029,103.646689 C49.148252,103.432959 36.1575299,101.422911 30.72,100.524745 L31.1883226,97.9330668 L54.8771453,94.6866888 L57.6,100.367853 Z" id="Path" fill="#3F3D56" fill-rule="nonzero"></path>
                    <circle id="Oval" fill="#FFB8B8" fill-rule="nonzero" cx="47.68" cy="57.2466888" r="6.72"></circle>
                    <path d="M60.3581103,103.860482 C60.3581103,103.860482 61.1746492,111.201698 56.2754101,110.657904 L55.4588701,103.316687 L51.1039983,98.9663336 L38.8559097,98.6944364 L29.8739777,107.123249 C29.8739777,107.123249 29.6017977,98.4225476 30.6905166,97.6068573 C31.7792354,96.791167 34.2288543,94.8878856 34.2288543,94.8878856 L34.2288543,93.5283997 L26.88,78.5740682 C26.88,78.5740682 31.2348766,69.6014698 34.7732132,69.3295726 L39.4002686,69.0576767 C39.4002686,69.0576767 41.0333474,68.2419851 41.0333474,67.9700879 C41.0333474,67.6981908 40.7611674,65.5230158 42.1220663,66.0668101 C42.1220663,66.0668101 42.2445341,63.2771446 43.6789273,64.1281842 C43.6789273,64.1281842 48.1944125,67.6628439 52.7779102,64.2831666 C52.7779102,64.2831666 54.9145149,63.8916351 54.6423349,64.9792226 C54.3701548,66.0668101 54.6423349,66.8825004 55.1866949,66.8825004 C55.7310549,66.8825004 58.1806714,67.698192 58.1806714,68.2419863 C58.1806714,68.3588999 58.3575956,69.4845574 58.6351902,71.1784698 C59.6450001,77.3559602 61.991188,91.0813275 61.991188,91.0813275 C61.991188,91.0813275 64.4408057,94.615986 60.3581103,103.860482 Z" id="Path" fill="#9CA3DB" fill-rule="nonzero"></path>
                    <path d="M29.149091,77.4066888 L27.2484843,78.7673201 L9.87151452,101.081648 L0.64,108.429051 C0.64,108.429051 5.79878809,107.612674 4.71273122,111.966689 L36.48,93.7342481 L29.149091,77.4066888 Z" id="Path" fill="#9CA3DB" fill-rule="nonzero"></path>
                    <path d="M58.24,71.2435497 L58.24,71.2462069 C57.8824984,73.3218912 46.2312712,72.8892346 44.6182755,72.8892346 C43.0052797,72.8892346 41.6611168,72.6238019 40.0481222,71.5620713 C38.4351276,70.5003406 39.2416237,69.1731796 39.2416237,69.1731796 C39.2416237,69.1731796 40.6150443,68.1403366 40.6150443,67.8749039 C40.6150443,67.6094712 40.3462115,65.4860123 41.6903744,66.0168764 C41.6903744,66.0168764 41.8113361,63.2935439 43.2280884,64.1243425 C43.2280884,64.1243425 47.9276199,67.8115098 52.4547511,64.5121863 C52.4547511,64.5121863 54.5650805,64.1299637 54.2962476,65.1916932 C54.0274148,66.2534227 54.2962476,67.0497195 54.8339133,67.0497195 C55.3715789,67.0497195 57.7910708,67.8460175 57.7910708,68.3768828 C57.7910708,68.4910167 57.9658192,69.589911 58.24,71.2435497 Z" id="Path" fill="#3F3D56" fill-rule="nonzero"></path>
                    <path d="M57.6,60.7870055 C57.6,60.7870055 55.34208,55.8729584 53.08416,58.185451 C50.82624,60.4979436 55.6243203,63.9666888 55.6243203,63.9666888 L57.6,60.7870055 Z" id="Path" fill="#FFB8B8" fill-rule="nonzero"></path>
                    <path d="M57.405526,60.1266888 C57.405526,60.1266888 54.1328832,64.3335951 53.12,64.6554057 C53.12,64.6554057 56.0809237,76.564584 59.78981,79.7982678 L61.9091732,90.8466888 C61.9091732,90.8466888 70.9164686,87.0740572 68.7971054,80.8761624 C68.7759119,80.8141835 68.7548252,80.7525813 68.7338453,80.6913558 C66.9642312,75.529816 64.5220322,70.6330159 61.4725615,66.1319138 L57.405526,60.1266888 Z" id="Path" fill="#9CA3DB" fill-rule="nonzero"></path>
                    <polygon id="Path" fill="#000000" fill-rule="nonzero" opacity="0.2" points="55.68 72.2866888 62.72 90.8466888 60.1445905 79.6059414"></polygon>
                    <polygon id="Path" fill="#FDECC8" fill-rule="nonzero" points="54.7480975 49.8660284 48.617546 46.6866888 40.1516545 47.98729 38.4 55.6466888 42.7602267 55.4806773 43.9783423 52.6666579 43.9783423 55.4343458 45.9901838 55.3576795 47.1579136 50.8776202 47.8877298 55.6466888 55.04 55.5022434"></polygon>
                    <path d="M112.64,92.2079615 L116.049392,104.703425 C116.049392,104.703425 115.346834,115.771301 118.625433,113.605843 C121.980577,111.389834 120.733103,102.05676 120.733103,102.05676 L118.767881,90.8466888 L112.64,92.2079615 Z" id="Path" fill="#A0616A" fill-rule="nonzero"></path>
                    <path d="M114.657033,56.9266888 L117.459507,59.784063 L117.459507,73.3986087 C117.459507,73.3986087 119.108021,75.9198203 118.778317,76.5921431 C118.448614,77.2644659 118.118917,77.2644671 118.448615,77.7687091 C118.778313,78.2729512 119.108021,78.6091126 118.778317,78.9452752 C118.448614,79.2814378 118.448615,80.12184 118.778317,80.4580014 C119.10802,80.7941628 119.767426,81.2984061 119.272873,81.8026482 C118.778319,82.3068903 118.118912,81.9707289 118.778317,83.8196177 C119.437723,85.6685065 120.591683,86.1727498 120.26198,86.8450726 C119.932278,87.5173953 119.932278,89.1982035 119.932278,89.1982035 L112.843667,90.2066888 L111.36,71.2135573 L114.657033,56.9266888 Z" id="Path" fill="#D0CDE1" fill-rule="nonzero"></path>
                    <polygon id="Path" fill="#5B5878" fill-rule="nonzero" points="120.32 88.9266888 112 89.2606533 112.332739 92.7666888 119.654405 91.4310675"></polygon>
                    <polygon id="Path" fill="#A0616A" fill-rule="nonzero" points="97.0423314 39.0066888 96 49.0240544 106.596564 50.5266888 107.378282 44.7667479 108.16 39.0066888"></polygon>
                    <polygon id="Path" fill="#000000" fill-rule="nonzero" opacity="0.1" points="97.0423314 39.0066888 96 49.0240698 106.596564 50.5266888 107.378282 44.7666888 108.16 39.0066888"></polygon>
                    <path d="M74.24,87.6466888 L80.0859701,100.189499 C80.0859701,100.189499 81.1176124,106.031355 82.6650754,106.203174 C84.2125383,106.374994 85.76,100.189499 85.76,100.189499 L83.6967165,96.9249316 L81.2895526,87.6466888 L74.24,87.6466888 Z" id="Path" fill="#A0616A" fill-rule="nonzero"></path>
                    <path d="M114.345899,113.246689 L81.92,113.246689 C82.1769376,109.104349 82.3385745,106.550578 82.3385745,106.550578 L82.7692176,105.859575 L84.8572808,102.515209 L86.348239,100.12743 L86.8681413,99.293794 L87.0611504,98.985184 L89.1033747,98.6052518 L110.17218,94.6866888 C110.520656,96.2771323 111.013742,97.8310256 111.645045,99.3282256 C111.788592,99.6614346 111.942992,99.9946363 112.108252,100.324154 C112.637807,101.377876 113.28437,102.376267 114.052775,103.11154 C114.227679,103.278756 114.354343,103.725083 114.43637,104.411171 C114.639023,106.091958 114.581117,109.217463 114.345899,113.246689 Z" id="Path" fill="#2F2E41" fill-rule="nonzero"></path>
                    <circle id="Oval" fill="#A0616A" fill-rule="nonzero" cx="102.72" cy="34.2066888" r="8"></circle>
                    <path d="M84.3743276,51.206115 L83.2080952,50.5266888 C83.2080952,50.5266888 78.0433537,54.0937062 76.377308,62.0770224 C74.7112623,70.0603385 73.5450311,72.0986362 73.5450311,72.0986362 C73.5450311,72.0986362 71.8789854,72.4383517 73.0452166,73.6273559 C74.2114477,74.8163601 74.2114489,74.6465035 73.211821,75.3259345 C72.2121931,76.0053655 71.5457753,74.6465084 72.2121943,76.0053607 C72.8786133,77.3642129 73.7116355,77.0245071 73.0452166,77.873797 C72.3787976,78.7230869 71.2125664,78.7230857 71.8789854,79.4025179 C72.5454044,80.08195 71.2125723,81.6106697 72.0455898,82.2901006 C72.8786074,82.9695316 73.211821,83.1393906 73.211821,84.3283947 C73.2067295,85.022336 73.3194628,85.7119417 73.5450311,86.3666888 L82.2084673,86.3666888 C82.2084673,86.3666888 80.5424216,83.1393906 81.0422362,82.4599584 C81.5420507,81.7805262 81.7086493,81.1010965 81.3754451,80.7613798 C81.0422409,80.4216631 80.0426083,81.1010965 81.0422362,80.2518066 C82.0418641,79.4025167 82.3750718,79.9120911 82.0418629,78.8929434 C81.708654,77.8737958 81.0422362,78.3833702 81.708654,77.873797 C82.3750718,77.3642238 82.8748863,77.5340815 82.5416774,77.0245071 C82.2084685,76.5149327 81.5420495,76.5149339 82.2084673,76.1752184 C82.8748851,75.8355029 83.3746997,76.1752184 83.2080952,75.3259285 C83.0414908,74.4766386 82.8748863,74.8163553 83.2080952,74.4766398 C83.5413041,74.1369243 87.04,62.5865896 87.04,62.2468741 C87.04,61.9071586 84.3743276,51.206115 84.3743276,51.206115 Z" id="Path" fill="#D0CDE1" fill-rule="nonzero"></path>
                    <polygon id="Path" fill="#514E6C" fill-rule="nonzero" points="83.2 85.0866888 72.32 85.7266888 75.0831513 88.1266605 82.6819397 88.2866888"></polygon>
                    <path d="M86.0685711,98.5266888 L83.84,102.533645 C83.84,102.533645 90.5257145,103.368429 92.925714,104.203211 C95.3257136,105.037993 101.497137,106.206689 101.497137,106.206689 L103.04,100.363211 L86.0685711,98.5266888 Z" id="Path" fill="#3F3D56" fill-rule="nonzero"></path>
                    <polygon id="Path" fill="#3F3D56" fill-rule="nonzero" points="105.6 99.7586576 107.392069 105.566689 114.56 103.982658 113.745434 98.5266888"></polygon>
                    <path d="M108.647164,45.060828 C108.647164,45.060828 108.140895,44.7199542 106.959602,45.4017019 C105.778309,46.0834495 101.896915,46.4243246 100.040597,44.3790804 C98.1842786,42.3338361 96.8342285,40.6294658 96.3279602,40.9703396 C95.8216919,41.3112134 95.4841785,45.2312625 95.4841785,45.2312625 L93.7966162,46.5947615 L83.84,50.1739416 L84.6837805,73.1829399 L86.2025867,78.466488 C86.2025867,78.466488 85.0212939,82.5569776 86.5400989,84.9430957 C88.0589038,87.3292137 85.6963184,88.1813995 85.6963184,88.1813995 C85.6963184,88.1813995 85.19005,88.8631424 85.5275623,90.5675176 C85.8650745,92.2718928 85.19005,98.5780575 85.19005,98.5780575 C85.19005,98.5780575 99.5343286,105.054665 114.553632,99.4302433 L112.866069,92.9536356 L112.022288,78.466488 C112.022288,78.466488 112.866069,76.0803699 112.697313,75.0577472 C112.528557,74.0351245 117.76,59.718415 117.76,59.718415 C117.76,59.718415 116.916218,52.5600548 112.528557,51.0261262 C108.140896,49.4921975 107.46587,47.9582605 107.46587,47.9582605 C107.46587,47.9582605 109.490945,45.7425757 108.647164,45.060828 Z" id="Path" fill="#D0CDE1" fill-rule="nonzero"></path>
                    <path d="M94.6764821,35.2022385 C94.6764821,35.2022385 93.8285234,33.9295872 94.1546627,32.5590397 C94.3495346,31.7809083 94.4264916,30.977904 94.3829585,30.176899 C94.3829585,30.176899 95.0678469,27.9579178 95.7527365,26.7178981 C96.4376262,25.4778785 96.111488,24.955766 98.2639957,24.5641814 C100.416503,24.1725967 99.5359325,21.3662433 105.210726,24.4010207 C105.602234,24.9479678 106.284216,25.2054641 106.939255,25.0536622 C108.113351,24.8252382 108.537327,26.4568413 108.537327,26.4568413 C108.537327,26.4568413 109.320058,25.9999933 109.613581,26.6526348 C109.907105,27.3052763 112,26.260932 112,30.6662617 C112,35.0715913 109.618359,39.0066888 109.618359,39.0066888 C109.618359,39.0066888 109.792956,31.5963946 105.911919,30.8458557 C102.030882,30.0953169 97.8563212,27.9089697 96.8452946,30.7153279 C95.8342681,33.5216861 94.6764821,35.2022385 94.6764821,35.2022385 Z" id="Path" fill="#2F2E41" fill-rule="nonzero"></path>
                    <ellipse id="Oval" fill="#A0616A" fill-rule="nonzero" cx="109.44" cy="36.1266888" rx="1" ry="1"></ellipse>
                    <rect id="Rectangle" stroke-opacity="0.005" stroke="#FFFFFF" stroke-width="0.5" x="0" y="0" width="128" height="128"></rect>
                    <circle id="Oval" fill="#F2F2F2" fill-rule="nonzero" cx="19.0885811" cy="25.6394503" r="1"></circle>
                    <circle id="Oval" fill="#F2F2F2" fill-rule="nonzero" cx="112.446025" cy="67.4412906" r="1"></circle>
                    <circle id="Oval" fill="#F2F2F2" fill-rule="nonzero" cx="61.3548864" cy="33.5353534" r="1"></circle>
                    <circle id="Oval" fill="#E81F76" fill-rule="nonzero" cx="114.768349" cy="26.5683801" r="1"></circle>
                    <circle id="Oval" fill="#E81F76" fill-rule="nonzero" cx="21.8753705" cy="57.223063" r="1"></circle>
                    <polygon id="Path" fill="#F2F2F2" fill-rule="nonzero" points="12.1629451 70.1867426 12.1629451 69.7636151 12.0802704 69.7636151 12.0802704 70.1867426 11.6571429 70.1867426 11.6571429 70.2694173 12.0802704 70.2694173 12.0802704 70.6925449 12.1629451 70.6925449 12.1629451 70.2694173 12.5860726 70.2694173 12.5860726 70.1867426"></polygon>
                    <polygon id="Path" fill="#F2F2F2" fill-rule="nonzero" points="102.733599 47.4279628 102.733599 47.0048353 102.650924 47.0048353 102.650924 47.4279628 102.227797 47.4279628 102.227797 47.5106376 102.650924 47.5106376 102.650924 47.9337651 102.733599 47.9337651 102.733599 47.5106376 103.156727 47.5106376 103.156727 47.4279628"></polygon>
                    <polygon id="Path" fill="#F2F2F2" fill-rule="nonzero" points="125.956844 42.7833139 125.956844 42.3601864 125.874169 42.3601864 125.874169 42.7833139 125.451042 42.7833139 125.451042 42.8659887 125.874169 42.8659887 125.874169 43.2891162 125.956844 43.2891162 125.956844 42.8659887 126.379971 42.8659887 126.379971 42.7833139"></polygon>
                    <polygon id="Path" fill="#F2F2F2" fill-rule="nonzero" points="75.3301705 54.8594011 75.3301705 54.4362736 75.2474958 54.4362736 75.2474958 54.8594011 74.8243682 54.8594011 74.8243682 54.9420759 75.2474958 54.9420759 75.2474958 55.3652034 75.3301705 55.3652034 75.3301705 54.9420759 75.753298 54.9420759 75.753298 54.8594011"></polygon>
                    <polygon id="Path" fill="#F2F2F2" fill-rule="nonzero" points="118.98987 56.2527958 118.98987 55.8296683 118.907196 55.8296683 118.907196 56.2527958 118.484068 56.2527958 118.484068 56.3354706 118.907196 56.3354706 118.907196 56.7585981 118.98987 56.7585981 118.98987 56.3354706 119.412998 56.3354706 119.412998 56.2527958"></polygon>
                    <polygon id="Path" fill="#F2F2F2" fill-rule="nonzero" points="66.9698025 63.2197692 66.9698025 62.7966417 66.8871277 62.7966417 66.8871277 63.2197692 66.4640002 63.2197692 66.4640002 63.3024439 66.8871277 63.3024439 66.8871277 63.7255715 66.9698025 63.7255715 66.9698025 63.3024439 67.39293 63.3024439 67.39293 63.2197692"></polygon>
                    <polygon id="Path" fill="#F2F2F2" fill-rule="nonzero" points="86.4773279 63.2197692 86.4773279 62.7966417 86.3946532 62.7966417 86.3946532 63.2197692 85.9715257 63.2197692 85.9715257 63.3024439 86.3946532 63.3024439 86.3946532 63.7255715 86.4773279 63.7255715 86.4773279 63.3024439 86.9004555 63.3024439 86.9004555 63.2197692"></polygon>
                    <polygon id="Path" fill="#F2F2F2" fill-rule="nonzero" points="12.62741 37.6742001 12.62741 37.2510726 12.5447353 37.2510726 12.5447353 37.6742001 12.1216077 37.6742001 12.1216077 37.7568749 12.5447353 37.7568749 12.5447353 38.1800024 12.62741 38.1800024 12.62741 37.7568749 13.0505375 37.7568749 13.0505375 37.6742001"></polygon>
                </g>
            </g>
        </g>
    </g>
</svg>