<?xml version="1.0" encoding="UTF-8"?>
<svg width="128px" height="128px" viewBox="0 0 128 128" version="1.1" xmlns="http://www.w3.org/2000/svg" xmlns:xlink="http://www.w3.org/1999/xlink">
    <title>2CEFA067-DD29-4FDF-8BA9-99694C2DAED3@3x</title>
    <defs>
        <rect id="path-1" x="0" y="0" width="128" height="128"></rect>
    </defs>
    <g id="HF_B2E_SSO_Login_&amp;_Switch_Organizations" stroke="none" stroke-width="1" fill="none" fill-rule="evenodd">
        <g id="Identity-Access-/-Users-00-(sidebar-closed)" transform="translate(-856.000000, -160.000000)">
            <g id="Group-5" transform="translate(763.000000, 144.000000)">
                <g id="Group-9" transform="translate(93.000000, 16.000000)">
                    <mask id="mask-2" fill="white">
                        <use xlink:href="#path-1"></use>
                    </mask>
                    <g id="Mask"></g>
                    <g mask="url(#mask-2)" id="Group-8">
                        <g transform="translate(-22.000000, 23.000000)">
                            <g transform="translate(6.000000, 0.000000)">
                                <path d="M25.6515824,137.751705 C23.9337474,134.579531 25.8881988,130.694562 28.1218574,127.866984 C30.3555161,125.039406 33.0908015,122.098537 33.0316474,118.494438 C32.9464655,113.316052 27.4380361,110.259531 23.0369713,107.514562 C19.7711797,105.477389 16.7586024,103.061785 14.0621118,100.318164 C12.9807749,99.2159282 11.9325643,98.0405245 11.3031647,96.6338164 C10.3945578,94.6087233 10.4182195,92.307481 10.4773736,90.0888475 C10.6666667,82.6934023 11.0326333,75.3121187 11.5752736,67.9449965" id="Path" stroke="#3F3D56" stroke-width="0.795031056"></path>
                                <path d="M3.20615203,67.5413941 C3.33783353,64.7959385 4.86058551,62.3058646 7.24755989,60.9326984 L9.06004141,64.5084748 L9.00561964,60.1797792 C12.3842376,59.1866973 16.0188954,60.4862469 17.9957425,63.3941426 C19.9725896,66.3020384 19.8380918,70.1511416 17.6630695,72.9146845 C15.4880472,75.6782273 11.7715009,76.7221891 8.47039994,75.4968657 C5.16929898,74.2715422 3.04099218,71.058051 3.20615203,67.5484748 L3.20615203,67.5413941 Z" id="Path" fill="#E7EEFB" fill-rule="nonzero"></path>
                                <path d="M21.6409346,106.518537 C25.7503652,106.705971 29.3475699,103.789937 30.0040349,99.7390817 C30.6604999,95.6882268 28.1675579,91.7901767 24.2082224,90.6765493 L24.2508134,94.0021394 L22.4288672,90.3838785 L22.4075717,90.3838785 C17.9402889,90.1759656 14.1498714,93.6198136 13.9414374,98.0759282 C13.7330034,102.532043 17.1854826,106.312984 21.6527655,106.520897 L21.6409346,106.518537 Z" id="Path" fill="#E7EEFB" fill-rule="nonzero"></path>
                                <path d="M4.2945874,69.6939406 C6.16385685,69.8992823 7.98107069,70.4775431 9.85507246,70.5931953 C11.7290742,70.7088475 13.790003,70.2627605 14.975451,68.8088475 C15.6143153,68.025245 15.9337474,67.0339406 16.4732328,66.1795307 C16.9844148,65.3834239 17.685109,64.7258343 18.512866,64.2653692 C19.9198864,67.0591762 19.5840569,70.4120576 17.650717,72.87296 C15.7173771,75.3338623 12.5338429,76.4606954 9.47787798,75.7657906 C6.42191307,75.0708858 4.04250815,72.6790797 3.36941733,69.6254934 C3.68411713,69.6396549 3.99171843,69.6608972 4.2945874,69.6939406 Z" id="Path" fill="#000000" fill-rule="nonzero" opacity="0.1"></path>
                                <path d="M21.6409346,106.518537 C24.4502082,106.650135 27.1266219,105.317803 28.7101696,102.999436 C30.2937174,100.681069 30.557418,97.708976 29.4066844,95.1492202 C28.7399899,95.5910069 28.1601566,96.1509911 27.6959479,96.8013941 C27.0665484,97.6864872 26.6737652,98.7061146 25.9378882,99.5227605 C24.5726117,101.0404 22.2774327,101.576177 20.2070393,101.526611 C18.2028986,101.484127 16.2721088,100.993195 14.2797989,100.839779 C15.2903085,104.08976 18.2333956,106.360208 21.6409346,106.518537 Z" id="Path" fill="#000000" fill-rule="nonzero" opacity="0.1"></path>
                                <polygon id="Path" fill="#3F3D56" fill-rule="nonzero" points="94.4619935 109.896052 63.2286306 116.268723 62.5187814 116.197916 35.0712807 113.436425 35.0712807 78.7407729 68.6708075 73.0761767 93.0422952 75.9084748 93.0493937 76.061891 93.0517598 76.1374189"></polygon>
                                <polygon id="Path" fill="#000000" fill-rule="nonzero" opacity="0.1" points="94.4619935 109.896052 63.2286306 116.268723 62.5187814 116.197916 62.5187814 80.6289717 93.0493937 76.061891"></polygon>
                                <polygon id="Path" fill="#000000" fill-rule="nonzero" opacity="0.05" points="93.0517598 76.1374189 93.0422952 76.1444997 62.5187814 80.6289717 35.0712807 78.7407729 68.6708075 73.0761767 93.0422952 75.9084748 93.0493937 76.061891"></polygon>
                                <polygon id="Path" fill="#3F3D56" fill-rule="nonzero" points="112.208222 111.349965 95.9077196 114.677916 95.5362319 114.640152 81.2114759 113.19804 81.2114759 95.0902139 98.7471162 92.1328226 111.467613 93.6126984 111.472345 93.6929469 111.472345 93.7307108"></polygon>
                                <polygon id="Path" fill="#000000" fill-rule="nonzero" opacity="0.1" points="112.208222 111.349965 95.9077196 114.677916 95.5362319 114.640152 95.5362319 96.0767978 111.472345 93.6929469"></polygon>
                                <polygon id="Path" fill="#000000" fill-rule="nonzero" opacity="0.05" points="111.472345 93.7307108 111.467613 93.7354313 95.5362319 96.0767978 81.2114759 95.0902139 98.7471162 92.1328226 111.467613 93.6126984 111.472345 93.6929469"></polygon>
                                <polygon id="Path" fill="#3F3D56" fill-rule="nonzero" points="68.4341911 76.1822636 52.1336883 79.5078537 51.7622005 79.47245 37.4374445 78.0303382 37.4374445 59.9225121 54.9730849 56.9651208 67.6935818 58.4449965 67.6983141 58.525245 67.6983141 58.563009"></polygon>
                                <polygon id="Path" fill="#000000" fill-rule="nonzero" opacity="0.1" points="68.4341911 76.1822636 52.1336883 79.5078537 51.7622005 79.47245 51.7622005 60.9090959 67.6983141 58.525245"></polygon>
                                <polygon id="Path" fill="#000000" fill-rule="nonzero" opacity="0.05" points="67.6983141 58.563009 67.6935818 58.5677295 51.7622005 60.9090959 37.4374445 59.9225121 54.9730849 56.9651208 67.6935818 58.4449965 67.6983141 58.525245"></polygon>
                                <polygon id="Path" fill="#AEB9CA" fill-rule="nonzero" points="97.0647737 75.4741891 80.7642709 78.7997792 80.3927832 78.7643754 66.0680272 77.3222636 66.0680272 59.2144375 83.6036676 56.2570462 96.3241644 57.736922 96.3288968 57.8171705 96.3288968 57.8549344"></polygon>
                                <polygon id="Path" fill="#000000" fill-rule="nonzero" opacity="0.1" points="97.0647737 75.4741891 80.7642709 78.7997792 80.3927832 78.7643754 80.3927832 60.2010214 96.3288968 57.8171705"></polygon>
                                <polygon id="Path" fill="#000000" fill-rule="nonzero" opacity="0.05" points="96.3288968 57.8549344 96.3241644 57.8596549 80.3927832 60.2010214 66.0680272 59.2144375 83.6036676 56.2570462 96.3241644 57.736922 96.3288968 57.8171705"></polygon>
                                <polygon id="Path" fill="#3F3D56" fill-rule="nonzero" points="105.582964 57.3002761 89.2824608 60.6258661 88.9109731 60.5904624 74.5862171 59.1483506 74.5862171 41.0405245 92.1218574 38.0831332 104.842354 39.563009 104.847087 39.6432574 104.847087 39.6810214"></polygon>
                                <polygon id="Path" fill="#000000" fill-rule="nonzero" opacity="0.1" points="105.582964 57.3002761 89.2824608 60.6258661 88.9109731 60.5904624 88.9109731 42.0271084 104.847087 39.6432574"></polygon>
                                <polygon id="Path" fill="#000000" fill-rule="nonzero" opacity="0.05" points="104.847087 39.6810214 104.842354 39.6857419 88.9109731 42.0271084 74.5862171 41.0405245 92.1218574 38.0831332 104.842354 39.563009 104.847087 39.6432574"></polygon>
                                <path d="M116.685004,20.2821394 C116.512274,21.8163009 115.338657,23.0530711 114.903283,24.5305866 C114.250222,26.7610214 115.376516,29.1566736 116.928719,30.9032574 C119.455479,33.7063924 123.001829,35.3841899 126.776693,35.5623879 C127.32571,35.6095185 127.878673,35.5493899 128.404614,35.3853692 C128.87295,35.1952367 129.294946,34.9070976 129.642118,34.5404003 C130.80627,33.3720773 131.433304,31.7553071 131.681751,30.1243754 C131.930198,28.4934438 131.835552,26.8341891 131.738539,25.1890959 C131.738409,24.8486404 131.67586,24.511079 131.553978,24.1930711 C131.395554,23.8906319 131.177437,23.6232835 130.912748,23.4071084 C130.073527,22.6378022 129.148624,21.9670426 128.156167,21.4079779 C127.730257,21.1719531 127.273588,20.9359282 127.001479,20.5276052 C126.814749,20.2024443 126.693387,19.8440778 126.644188,19.4725742 L126.338953,17.9242512 C126.284968,17.4778247 126.132219,17.0489398 125.891748,16.668599 C125.354629,15.946363 124.325348,15.8472326 123.423839,15.8118288 L120.11121,15.6820152 C119.081928,15.641891 117.728483,15.3468599 116.722863,15.5498413 C115.776398,15.7363009 116.09583,16.6001518 116.266193,17.3837543 C116.512645,18.3314958 116.653105,19.3035503 116.685004,20.2821394 L116.685004,20.2821394 Z" id="Path" fill="#FFC0C6" fill-rule="nonzero"></path>
                                <path d="M114.903283,24.5305866 C114.250222,26.7610214 115.376516,29.1566736 116.928719,30.9032574 C119.455479,33.7063924 123.001829,35.3841899 126.776693,35.5623879 C127.32571,35.6095185 127.878673,35.5493899 128.404614,35.3853692 C128.87295,35.1952367 129.294946,34.9070976 129.642118,34.5404003 C130.80627,33.3720773 131.433304,31.7553071 131.681751,30.1243754 C131.930198,28.4934438 131.835552,26.8341891 131.738539,25.1890959 C131.738409,24.8486404 131.67586,24.511079 131.553978,24.1930711 C131.395554,23.8906319 131.177437,23.6232835 130.912748,23.4071084 C130.073527,22.6378022 129.148624,21.9670426 128.156167,21.4079779 C127.730257,21.1719531 127.273588,20.9359282 127.001479,20.5276052 C126.814749,20.2024443 126.693387,19.8440778 126.644188,19.4725742 L126.338953,17.9242512 C126.284968,17.4778247 126.132219,17.0489398 125.891748,16.668599 C125.354629,15.946363 124.325348,15.8472326 123.423839,15.8118288 L120.11121,15.6820152 C119.081928,15.641891 117.728483,15.3468599 116.722863,15.5498413 C115.776398,15.7363009 116.09583,16.6001518 116.266193,17.3837543 C116.512645,18.3314958 116.653105,19.3035503 116.685004,20.2821394 C116.512274,21.8163009 115.338657,23.0530711 114.903283,24.5305866 Z" id="Path" fill="#9CA3DB" fill-rule="nonzero"></path>
                                <path d="M137.722567,89.3807729 L136.317066,104.750711 C135.950311,108.782015 135.576457,112.829841 134.857143,116.80922 C134.620526,118.180524 134.317657,119.544748 133.972198,120.89717 C133.011535,124.652326 131.617865,128.322512 131.168293,132.172077 C131.154096,132.283009 131.142266,132.408102 131.130435,132.509593 C131.038154,133.359282 130.957705,134.218413 130.657202,135.011456 C130.420586,135.599158 130.086957,136.134934 129.843242,136.715556 C129.370009,137.876798 129.294292,139.160773 129.235138,140.418785 C127.529508,139.458328 125.661626,138.818324 123.724342,138.530587 C122.777876,138.391332 121.748595,138.294562 121.121562,137.586487 C120.411713,136.817046 120.494528,135.639282 120.612836,134.605493 C120.985113,131.395556 121.355812,128.187191 121.724933,124.9804 C121.847982,123.600536 122.08541,122.233211 122.434783,120.89245 C122.562555,120.446363 122.716356,120.007357 122.872523,119.568351 C123.087844,118.964127 123.305531,118.359903 123.468796,117.739158 C123.695237,116.741829 123.851782,115.729982 123.937297,114.710959 C124.318249,111.482139 124.777285,108.2604 125.179533,105.033941 L125.200828,104.864003 C125.8042,99.973568 126.263236,95.0595307 126.130731,90.1336922 C126.111801,89.4043754 126.081041,88.6750587 126.033718,87.9433816 C125.967465,86.8836301 125.870453,86.321891 126.743567,85.6586611 C127.71606,84.9269841 128.996155,84.4148102 130.108252,83.9356798 C130.706891,83.6760524 137.299024,81.3394065 137.44336,81.8539406 C137.749392,82.9468615 137.908528,84.0754897 137.916593,85.2102139 C137.929935,86.6029217 137.865159,87.9952835 137.722567,89.3807729 L137.722567,89.3807729 Z" id="Path" fill="#3F3D56" fill-rule="nonzero"></path>
                                <path d="M134.857143,116.80922 C134.620526,118.180524 134.317657,119.544748 133.972198,120.89717 C133.011535,124.652326 131.617865,128.322512 131.168293,132.172077 C131.154096,132.283009 131.142266,132.408102 131.130435,132.509593 C128.191659,128.322512 125.716652,123.819158 122.848861,119.587233 C123.064182,118.983009 123.281869,118.378785 123.445135,117.75804 C123.680407,116.755074 123.844865,115.736882 123.937297,114.710959 C124.318249,111.482139 124.777285,108.2604 125.179533,105.033941 L125.200828,104.864003 C125.366865,105.548701 125.604796,106.214034 125.910677,106.848972 C127.836735,110.752823 132.412896,112.72599 134.651287,116.462264 C134.725426,116.578703 134.794045,116.694355 134.857143,116.80922 Z" id="Path" fill="#000000" fill-rule="nonzero" opacity="0.1"></path>
                                <path d="M111.010944,82.4864872 C111.107956,85.6161767 111.609583,88.7199034 112.11121,91.8118288 L113.145223,98.1844997 C113.710736,101.677667 114.302277,105.239282 115.958592,108.366611 C117.198462,110.707978 118.98255,112.704748 120.598639,114.803009 C124.569062,119.962512 127.552795,125.808847 131.317362,131.119406 C132.412896,132.663009 133.97693,134.334065 135.843833,134.010711 C137.069506,133.800649 137.959184,132.781021 138.919846,131.997419 C140.055605,131.072202 141.423248,130.39481 142.317657,129.233568 C143.212067,128.072326 143.387164,126.146363 142.175688,125.320276 C141.761609,125.039406 141.257616,124.933195 140.789116,124.753816 C138.912748,124.045742 137.696539,122.214189 136.92517,120.363754 C136.153801,118.51332 135.682934,116.528351 134.653653,114.807729 C132.415262,111.071456 127.836735,109.098288 125.910677,105.192077 C124.831707,103.006487 124.727595,100.47158 124.647146,98.0476052 L124.436557,91.8377916 C124.412896,91.15804 124.396332,90.4523257 124.673174,89.8315804 C125.409051,88.1794065 127.633245,88.0236301 129.436261,87.813568 C131.480989,87.575421 133.461821,86.9523021 135.273588,85.9772947 C136.312334,85.4179158 137.325052,84.7051208 137.876368,83.6666115 C138.382727,82.7225121 138.451346,81.6108351 138.5105,80.5392823 L139.135167,69.2832574 C139.189589,68.3155556 139.236912,67.31245 138.898551,66.4061146 C138.039633,64.1261146 135.152913,63.3802761 132.713398,63.4888475 C128.175096,63.6918288 123.986986,65.6390338 119.699497,66.9560524 C118.63709,67.2817667 117.56995,67.5744375 116.474416,67.7939406 C115.52795,67.9851208 114.344868,67.9072326 113.436261,68.2140649 C111.808341,68.7616425 111.848566,72.3161767 111.619048,73.7889717 C111.145477,76.6629533 110.941893,79.5747567 111.010944,82.4864872 L111.010944,82.4864872 Z" id="Path" fill="#3F3D56" fill-rule="nonzero"></path>
                                <path d="M116.306418,11.6318288 C116.289636,11.4600266 116.314803,11.2867253 116.379769,11.1267357 C116.571429,10.7892202 117.073055,10.8907108 117.451642,10.9756798 C118.973085,11.35804 120.577344,11.0110835 122.146111,11.1007729 C123.714877,11.1904624 125.480035,11.9717046 125.794735,13.5058661 C126.932862,12.7024259 127.913681,11.69766 128.688554,10.5413941 C129.123928,9.89232574 129.502514,9.14884748 129.44336,8.36996549 C129.358178,7.24648723 128.414079,6.40623879 127.550429,5.69344375 L124.947649,3.56922015 C124.60477,3.25550245 124.209072,3.00461462 123.778764,2.82810214 C123.177758,2.62276052 122.519965,2.72189096 121.885833,2.72189096 C119.992902,2.72189096 117.962733,1.86040028 116.275658,2.72189096 C115.565809,3.08300897 115.038154,3.70375431 114.527063,4.30797792 L112.201124,7.05530711 C112.025062,7.23043458 111.896429,7.44726324 111.82727,7.68549344 C111.761017,8.02064872 111.933747,8.35108351 111.995268,8.68859903 C112.104111,9.30226363 111.839101,9.9584127 112.042591,10.5484748 C112.380952,11.5256177 113.573499,11.6648723 114.302277,12.2266115 C114.57202,12.4343133 114.99793,13.1447481 115.322094,13.1353071 C115.89234,13.1235059 116.289855,12.0849965 116.306418,11.6318288 Z" id="Path" fill="#3F3D56" fill-rule="nonzero"></path>
                                <ellipse id="Oval" fill="#FEC8AE" fill-rule="nonzero" cx="120.25318" cy="12.2997792" rx="7.45341615" ry="7.43478261"></ellipse>
                                <path d="M121.999408,28.5689717 C121.481364,27.0904035 120.064761,26.115286 118.49512,26.1567978 C118.275697,26.1985581 118.048645,26.1696276 117.846791,26.0741891 C117.732369,25.987048 117.640659,25.8737099 117.579414,25.7437543 C117.127549,24.9300541 116.76349,24.0708372 116.493345,23.1805245 C116.375037,22.786363 116.211772,22.3213941 115.81189,22.2199034 C115.490092,22.1372947 115.161195,22.3449965 114.945874,22.5975431 C114.755021,22.8685456 114.548002,23.1278542 114.325939,23.3740649 C113.379474,24.2095928 111.723159,23.4472326 110.731736,24.2143133 C110.568471,24.3394065 110.4336,24.4999034 110.258503,24.6155556 C110.08815,24.7191075 109.904196,24.7985422 109.71192,24.8515804 C107.787388,25.4761209 105.900759,26.2113908 104.06152,27.0536922 C104.724046,31.0283506 105.400769,35.0785369 106.952972,38.7959282 C107.691216,40.5661146 108.526471,42.3008972 109.118012,44.1253692 C110.428867,48.1684748 110.485655,52.4948102 110.502218,56.7456177 C110.502218,59.6534438 110.502218,62.6226363 109.555753,65.374686 C109.342798,65.9977916 109.08252,66.6161767 109.023366,67.2628847 C108.964212,67.9095928 109.158237,68.6412698 109.690624,69.0283506 C109.998823,69.2311289 110.352308,69.3551471 110.719905,69.3894686 C112.354925,69.6254934 114.001775,69.1959282 115.610766,68.823009 C119.924283,67.8269841 124.325348,67.255804 128.714581,66.6987854 L136.073351,65.754686 C136.601261,65.7178609 137.117836,65.5842392 137.597161,65.3605245 C138.943508,64.6264872 139.071281,62.6061146 138.233659,61.3221394 C137.833777,60.7061146 137.268264,60.2010214 136.929902,59.5495928 C136.591541,58.8981643 136.565513,57.9823879 137.145223,57.5315804 C138.328305,56.6110835 137.973381,54.9046239 138.030169,53.4129469 C138.187913,49.2400276 138.166617,45.0702553 137.966282,40.9036301 C137.90605,40.0395666 137.891833,39.1729234 137.923691,38.3073568 C138.006507,36.8392823 138.370896,35.401891 138.735285,33.9739406 L140.97131,25.1938164 C140.386868,24.2733195 139.267672,23.6879779 138.209997,23.4236301 C137.152322,23.1592823 136.047323,23.0813941 135.003845,22.75804 C132.874298,22.0971705 130.962437,20.4213941 128.731145,20.5771705 C128.561932,20.580175 128.39548,20.6204749 128.243715,20.6951829 C127.742088,20.9807729 127.820172,21.703009 127.789411,22.2789096 C127.718427,23.555804 126.776693,24.6202761 125.740314,25.3684748 C124.703934,26.1166736 123.516119,26.6595307 122.562555,27.5115804 C122.227349,27.7636589 122.02117,28.1507919 121.999408,28.5689717 Z" id="Path" fill="#9CA3DB" fill-rule="nonzero"></path>
                                <path d="M92.4673174,36.8982885 C91.9736462,37.2184319 91.4488556,37.4880787 90.9009169,37.7031332 C90.3803608,37.9084748 89.8243123,38.071332 89.3984028,38.4300897 C89.1875285,38.6125881 89.0105183,38.8307011 88.8754806,39.0744375 C88.3619186,39.9834201 88.3847702,41.0991189 88.9351233,41.9864194 C89.4854765,42.8737199 90.4761743,43.3921043 91.5208518,43.3394065 C92.2046732,43.3040028 92.8506359,43.0278537 93.4776693,42.7564251 L98.7352854,40.4740649 C99.624963,40.0893444 100.585626,39.6408972 101.006803,38.7676052 C101.055067,38.6858439 101.073461,38.5899347 101.058858,38.4961767 C101.018138,38.3933032 100.940558,38.3091873 100.841171,38.2601518 C99.6563774,37.491244 98.6200325,36.5158534 97.7817214,35.3806487 C97.5664005,35.0879779 97.3084886,34.3987854 96.996155,34.2217667 C95.884058,33.6057419 93.3593611,36.3223879 92.4673174,36.8982885 Z" id="Path" fill="#FEC8AE" fill-rule="nonzero"></path>
                                <path d="M148.668441,35.0454934 L150.606329,37.254686 C151.022774,37.7267357 151.439219,38.1987854 151.817805,38.708599 C152.749453,39.9884471 153.49655,41.3923063 154.037267,42.879158 C154.458444,43.9813941 154.808636,45.1567978 154.661934,46.327481 C154.563627,46.9276667 154.401007,47.5155903 154.176871,48.0811456 C153.821852,49.1684083 153.381159,50.2259517 152.858917,51.2438785 C152.422811,52.0162666 151.930097,52.7554625 151.384797,53.4554313 C149.8838,55.4393416 148.241369,57.3127275 146.470275,59.0610214 C145.807749,59.7148102 145.52381,60.7745618 145.242236,61.6572947 C144.709849,63.2882264 143.443951,64.5604003 142.220645,65.764127 C141.827187,66.1790359 141.391875,66.552357 140.921621,66.8781643 C140.217336,67.3314781 139.393473,67.5648701 138.555457,67.5484748 C138.189795,67.5505624 137.827796,67.47577 137.493049,67.3289717 C136.655427,66.93245 136.229518,65.9671084 136.14197,65.0466115 C136.064653,64.2101933 136.204824,63.3680179 136.54895,62.6013941 C137.661047,60.1443754 140.517007,59.0799034 142.535345,57.2861146 C143.718427,56.235804 144.624667,54.9140649 145.519077,53.6088475 C146.124873,52.7930053 146.630868,51.9079445 147.026324,50.97245 C147.475895,49.7710835 147.300799,48.3502139 147.695948,47.1323257 C147.861579,46.6154313 148.169181,46.1504624 148.337178,45.6382885 C148.505176,45.1261146 148.561964,44.5195307 148.247264,44.0781643 C148.011462,43.7960142 147.710104,43.5756246 147.369417,43.4361767 C146.079858,42.7847481 144.636498,41.9444997 144.390417,40.5212698 C144.291859,39.7331077 144.498336,38.9371202 144.967761,38.2955556 C145.434638,37.6621772 145.980936,37.0910692 146.593316,36.5961767 C147.154096,36.0910835 148.102928,35.5317046 148.668441,35.0454934 Z" id="Path" fill="#FEC8AE" fill-rule="nonzero"></path>
                                <path d="M91.2227152,39.9807729 C90.8819876,39.2915804 90.4537119,38.5882264 89.7627921,38.2459903 C89.0832154,37.9535413 88.3128212,37.9535413 87.6332446,38.2459903 C86.9637051,38.5347424 86.3364849,38.9126744 85.7687075,39.3694686 L84.0981958,40.599158 C83.719522,40.8470572 83.3845325,41.1556893 83.1067731,41.5125742 C82.8418528,41.9455762 82.6664688,42.4270776 82.5909494,42.9287233 C82.354333,44.0781643 82.1626738,45.2606487 82.3283052,46.4242512 C82.5933156,48.31245 83.7290742,49.9457419 84.9784088,51.3807729 C85.7592428,52.2729469 86.7246377,53.1745618 87.9124519,53.214686 C88.4259095,53.2312077 88.996155,53.0282264 89.2091097,52.5632574 C89.2833592,52.3785162 89.3226694,52.1816567 89.3250518,51.9826363 C89.4528246,49.8867357 88.7003845,47.8404003 87.8249039,45.9309593 C87.5882875,45.4117046 87.3327418,44.873568 87.3516711,44.3047481 C87.34441,44.2081733 87.3693671,44.1119138 87.422656,44.0309593 C87.4977673,43.9524424 87.5983956,43.9030905 87.7065957,43.8917046 C88.9062408,43.6556798 90.974268,44.5856177 91.8142561,43.2567978 C92.3584738,42.3787854 91.610766,40.7620152 91.2227152,39.9807729 Z" id="Path" fill="#FEC8AE" fill-rule="nonzero"></path>
                                <path d="M115.913635,9.29282264 C115.898795,9.12086432 115.924733,8.94783582 115.989352,8.78772947 C116.181012,8.44785369 116.682638,8.55170462 117.061224,8.63667357 C118.582668,9.01903382 120.186927,8.67207729 121.755694,8.76176674 C123.32446,8.85145618 125.087252,9.63269841 125.404318,11.1668599 C126.541336,10.3621259 127.521938,9.35758204 128.298137,8.20238785 C128.733511,7.55095928 129.112097,6.80748102 129.052943,6.02859903 C128.967761,4.90512077 128.021295,4.06487233 127.160012,3.35443754 L124.557232,1.23021394 C124.215214,0.916533023 123.820298,0.665633023 123.390713,0.489095928 C122.787341,0.283754313 122.131914,0.382884748 121.497782,0.382884748 C119.604851,0.382884748 117.574682,-0.478605935 115.887607,0.382884748 C115.177758,0.744002761 114.650104,1.3647481 114.139012,1.9689717 L111.810707,4.7163009 C111.635668,4.89181857 111.50789,5.10857973 111.439219,5.34648723 C111.372967,5.68164251 111.545697,6.01207729 111.607217,6.34959282 C111.71606,6.96325742 111.45105,7.61940649 111.65454,8.20710835 C111.992902,9.18661146 113.185448,9.32586611 113.914227,9.88760524 C114.183969,10.0953071 114.609879,10.8057419 114.934043,10.7963009 C115.494824,10.7844997 115.89234,9.74599034 115.913635,9.29282264 Z" id="Path" fill="#2F2E41" fill-rule="nonzero"></path>
                                <path d="M100.083999,29.6664872 C99.7835893,29.8610548 99.5193774,30.1062374 99.3031647,30.3910835 C99.0310559,30.804127 98.974268,31.3351829 98.7400177,31.7600276 C98.238391,32.6899655 97.0624076,33.0227605 96.3312629,33.7851208 C96.212729,33.8893333 96.1299687,34.0280229 96.0946466,34.1816425 C96.0901469,34.3892409 96.1597521,34.5916789 96.2910382,34.7528226 L99.826087,40.294686 C101.009169,40.3985369 102.130731,39.6621394 103.30908,39.7612698 C103.74682,39.7966736 104.198758,39.9477295 104.619935,39.8179158 C104.920961,39.6841507 105.203314,39.5119888 105.459923,39.3057419 C106.169772,38.8620152 107.097308,38.8100897 107.686483,38.2271084 C108.275658,37.644127 108.325348,36.7873568 108.318249,35.9919531 C108.328863,35.3016186 108.258183,34.6124285 108.10766,33.9385369 C107.587104,31.8143133 105.956818,30.1763009 104.934635,28.2928226 C104.435374,27.374686 104.165631,26.8389096 103.112689,27.4690959 C102.059746,28.0992823 101.080154,28.9395307 100.083999,29.6664872 Z" id="Path" fill="#9CA3DB" fill-rule="nonzero"></path>
                                <path d="M143.008577,26.8648723 C143.67297,27.2951817 144.272169,27.8181702 144.787933,28.4179158 C145.325052,29.1094686 145.630287,29.959158 146.148477,30.6672326 C146.666667,31.3753071 147.331559,31.8851208 147.899438,32.5176674 C148.763088,33.4759282 149.34753,34.641891 149.920142,35.8007729 C148.518391,37.6200481 146.990858,39.3393527 145.348713,40.9461146 C145.165543,41.1609852 144.923937,41.3183747 144.653061,41.3992823 C144.280038,41.4392693 143.911877,41.2893573 143.673469,41.0004003 C143.417924,40.7360524 143.238095,40.4056177 142.99438,40.1294686 C142.420207,39.5387725 141.654856,39.1700146 140.834073,39.088599 C140.020119,39.0095098 139.201003,38.9976682 138.385093,39.0531953 C138.206005,39.0743752 138.024578,39.0440765 137.862171,38.9658661 C137.741349,38.8830882 137.643635,38.7709986 137.578231,38.6401518 C136.631766,37.0163009 136.927536,34.9770462 137.265898,33.121891 L138.039633,28.8734438 C138.152558,28.0623104 138.369662,27.2690457 138.685596,26.5131953 C138.979,25.8877295 139.632062,24.8256177 140.44129,25.0144375 C141.250518,25.2032574 142.324756,26.3739406 143.008577,26.8648723 Z" id="Path" fill="#9CA3DB" fill-rule="nonzero"></path>
                                <polygon id="Path" fill="#AEB9CA" fill-rule="nonzero" points="75.5326826 58.0083506 59.2321798 61.3339406 58.8606921 61.2985369 44.5359361 59.8564251 44.5359361 41.748599 62.0715765 38.7912077 74.7920734 40.2710835 74.7968057 40.351332 74.7968057 40.3890959"></polygon>
                                <polygon id="Path" fill="#000000" fill-rule="nonzero" opacity="0.1" points="75.5326826 58.0083506 59.2321798 61.3339406 58.8606921 61.2985369 58.8606921 42.7351829 74.7968057 40.351332"></polygon>
                                <polygon id="Path" fill="#000000" fill-rule="nonzero" opacity="0.05" points="74.7968057 40.3890959 74.7920734 40.3938164 58.8606921 42.7351829 44.5359361 41.748599 62.0715765 38.7912077 74.7920734 40.2710835 74.7968057 40.351332"></polygon>
                                <polygon id="Path" fill="#3F3D56" fill-rule="nonzero" points="84.0508725 40.0704624 67.7503697 43.3984127 67.378882 43.3606487 53.054126 41.9185369 53.054126 23.8107108 70.5897663 20.8533195 83.3102632 22.3331953 83.3149956 22.4134438 83.3149956 22.4512077"></polygon>
                                <polygon id="Path" fill="#000000" fill-rule="nonzero" opacity="0.1" points="84.0508725 40.0704624 67.7503697 43.3984127 67.378882 43.3606487 67.378882 24.7972947 83.3149956 22.4134438"></polygon>
                                <polygon id="Path" fill="#000000" fill-rule="nonzero" opacity="0.05" points="83.3149956 22.4512077 83.3102632 22.4559282 67.378882 24.7972947 53.054126 23.8107108 70.5897663 20.8533195 83.3102632 22.3331953 83.3149956 22.4134438"></polygon>
                            </g>
                        </g>
                    </g>
                </g>
            </g>
        </g>
    </g>
</svg>