<?xml version="1.0" encoding="UTF-8"?>
<svg width="216px" height="180px" viewBox="0 0 216 180" version="1.1" xmlns="http://www.w3.org/2000/svg" xmlns:xlink="http://www.w3.org/1999/xlink">
    <title>1D63A974-3862-40EC-8C88-3C53EA21138C</title>
    <g id="HF_Consumers" stroke="none" stroke-width="1" fill="none" fill-rule="evenodd">
        <g id="HF_Consumers_01_16" transform="translate(-612.000000, -352.000000)">
            <g id="Group" transform="translate(565.000000, 352.000000)">
                <g id="Group-3" transform="translate(47.000000, 0.000000)">
                    <rect id="Rectangle" x="0" y="0" width="216" height="180"></rect>
                    <g id="undraw_No_data_re_kwbl" transform="translate(15.000000, 0.000000)" fill-rule="nonzero">
                        <path d="M116.913563,40.4285744 L67.2899318,40.4285744 C64.9354022,40.4314386 63.0273931,42.3394477 63.0245289,44.6939773 L63.0245289,154.983077 L62.4558085,155.156551 L50.2823318,158.884513 C49.0810512,159.250795 47.8100406,158.575195 47.4416474,157.37456 L11.231127,39.0949251 C10.8641858,37.8935573 11.5400253,36.6220771 12.7410967,36.2541668 L31.5004009,30.510091 L85.8842872,13.8636455 L104.643449,8.11956967 C105.220021,7.94211953 105.843496,8.00127526 106.376407,8.28399386 C106.909317,8.56671247 107.307901,9.04977697 107.484276,9.62667867 L116.740143,39.859854 L116.913563,40.4285744 Z" id="Path" fill="#F2F2F2"></path>
                        <path d="M127.742027,39.859854 L116.586577,3.42193934 C116.211744,2.19578814 115.364981,1.16886722 114.232716,0.56726789 C113.10045,-0.0343314356 111.775514,-0.161285519 110.54961,0.214356398 L84.1752028,8.28734218 L29.794237,24.936637 L3.41982938,33.0124664 C0.868704573,33.7958282 -0.566451087,36.4968565 0.212166825,39.0494332 L38.3392038,163.579291 C38.9627868,165.610679 40.8380303,166.99806 42.9629744,167.000145 C43.4420705,167.000145 43.9184707,166.928469 44.3761649,166.786874 L62.4558085,161.253225 L63.0245289,161.076921 L63.0245289,160.482609 L62.4558085,160.656068 L44.2084379,166.243746 C41.9566644,166.930152 39.5741617,165.664487 38.8823716,163.414362 L0.758249289,38.8816607 C0.425776322,37.8001916 0.537226958,36.6308813 1.06801398,35.6316923 C1.598801,34.6325033 2.50530836,33.8855413 3.58755071,33.5555943 L29.9619583,25.4797649 L84.3430692,8.83331943 L110.717477,0.757490047 C111.123915,0.633451856 111.546464,0.570208341 111.971409,0.569812322 C113.843429,0.574015642 115.494374,1.79720976 116.043537,3.58687393 L127.147746,39.8598597 L127.324083,40.4285801 L127.915575,40.4285801 L127.742027,39.859854 Z" id="Path" fill="#3F3D56"></path>
                        <path d="M34.8855697,36.3471469 C33.7605023,36.3463455 32.7674182,35.6121187 32.4368502,34.5367109 L28.7741858,22.5731716 C28.5754114,21.9241542 28.6426432,21.2227523 28.9610867,20.6233121 C29.2795301,20.0238719 29.8230912,19.5755127 30.4721573,19.3768976 L80.5022047,4.06018578 C81.8535732,3.64781349 83.2836719,4.40743482 83.698618,5.75801517 L87.3612825,17.7216938 C87.7733817,19.0730359 87.0138587,20.5029495 85.6634531,20.9181071 L35.6332664,36.234819 C35.3909926,36.309173 35.1389963,36.3471469 34.8855697,36.3471469 L34.8855697,36.3471469 Z" id="Path" fill="#9CA3DB"></path>
                        <circle id="Oval" fill="#9CA3DB" cx="54.0720882" cy="7.096109" r="5.68720379"></circle>
                        <circle id="Oval" fill="#FFFFFF" cx="54.0720882" cy="7.096109" r="3.60131374"></circle>
                        <path d="M171.365827,165.547058 L75.2520825,165.547058 C73.9178135,165.545521 72.8365581,164.464265 72.8350209,163.129996 L72.8350209,47.9641194 C72.8365112,46.629831 73.917794,45.5485482 75.2520825,45.5470578 L171.365827,45.5470578 C172.700095,45.5485966 173.781349,46.6298511 173.782888,47.9641194 L173.782888,163.129996 C173.781301,164.464244 172.700075,165.545471 171.365827,165.547058 Z" id="Path" fill="#F2F2F2"></path>
                        <path d="M127.147752,39.859854 L67.2899318,39.859854 C64.6216849,39.8636302 62.4595847,42.0257304 62.4558085,44.6939773 L62.4558085,160.656063 L63.0245289,160.482603 L63.0245289,44.6939773 C63.0273931,42.3394477 64.9354022,40.4314386 67.2899318,40.4285744 L127.324089,40.4285744 L127.147752,39.859854 Z M179.327846,39.859854 L67.2899318,39.859854 C64.6216849,39.8636302 62.4595847,42.0257304 62.4558085,44.6939773 L62.4558085,174.930944 C62.4595831,177.599192 64.6216843,179.761293 67.2899318,179.765067 L179.327846,179.765067 C181.996094,179.761293 184.158195,177.599192 184.16197,174.930944 L184.16197,44.6939773 C184.158193,42.0257304 181.996093,39.8636302 179.327846,39.859854 L179.327846,39.859854 Z M183.593249,174.930944 C183.590385,177.285474 181.682376,179.193483 179.327846,179.196347 L67.2899318,179.196347 C64.9354022,179.193483 63.0273931,177.285474 63.0245289,174.930944 L63.0245289,44.6939773 C63.0273931,42.3394477 64.9354022,40.4314386 67.2899318,40.4285744 L179.327846,40.4285744 C181.682376,40.4314386 183.590385,42.3394477 183.593249,44.6939773 L183.593249,174.930944 Z" id="Shape" fill="#3F3D56"></path>
                        <path d="M149.470092,52.3717024 L97.1478171,52.3717024 C95.7350463,52.3701118 94.590166,51.2252315 94.5885754,49.8124607 L94.5885754,37.3006123 C94.5901675,35.8878422 95.7350469,34.7429628 97.1478171,34.7413706 L149.470092,34.7413706 C150.882862,34.7429628 152.027741,35.8878422 152.029334,37.3006123 L152.029334,49.8124607 C152.027743,51.2252315 150.882863,52.3701118 149.470092,52.3717024 Z" id="Path" fill="#9CA3DB"></path>
                        <circle id="Oval" fill="#9CA3DB" cx="123.308889" cy="29.9072502" r="5.68720379"></circle>
                        <circle id="Oval" fill="#FFFFFF" cx="123.308889" cy="29.9072502" r="3.46403886"></circle>
                    </g>
                </g>
            </g>
        </g>
    </g>
</svg>