<?xml version="1.0" encoding="UTF-8"?>
<svg width="247px" height="206px" viewBox="0 0 247 206" version="1.1" xmlns="http://www.w3.org/2000/svg" xmlns:xlink="http://www.w3.org/1999/xlink">
    <title>D1638592-CF3A-41C2-9185-1FE1F7678C4E@3x</title>
    <defs>
        <linearGradient x1="49.9946628%" y1="99.9937813%" x2="49.9946628%" y2="-0.000220870294%" id="linearGradient-1">
            <stop stop-color="#808080" stop-opacity="0.25" offset="0%"></stop>
            <stop stop-color="#808080" stop-opacity="0.12" offset="54%"></stop>
            <stop stop-color="#808080" stop-opacity="0.1" offset="100%"></stop>
        </linearGradient>
        <path d="M23.2916667,22.75 C23.2916667,23.716 22.489,24.5 21.5,24.5 C20.511,24.5 19.7083333,23.716 19.7083333,22.75 L19.7083333,14 C19.7083333,13.034 20.511,12.25 21.5,12.25 C22.489,12.25 23.2916667,13.034 23.2916667,14 L23.2916667,22.75 Z M21.5,29.75 C20.511,29.75 19.7083333,28.966 19.7083333,28 C19.7083333,27.034 20.511,26.25 21.5,26.25 C22.489,26.25 23.2916667,27.034 23.2916667,28 C23.2916667,28.966 22.489,29.75 21.5,29.75 L21.5,29.75 Z M21.5,3.5 C11.604625,3.5 3.58333333,11.33475 3.58333333,21 C3.58333333,30.66525 11.604625,38.5 21.5,38.5 C31.395375,38.5 39.4166667,30.66525 39.4166667,21 C39.4166667,11.33475 31.395375,3.5 21.5,3.5 L21.5,3.5 Z" id="path-2"></path>
    </defs>
    <g id="Page-1" stroke="none" stroke-width="1" fill="none" fill-rule="evenodd">
        <g id="Illustrations" transform="translate(-1170.000000, -6005.000000)">
            <g id="undraw_blank_canvas_3rbb" transform="translate(1170.000000, 6005.000000)">
                <path d="M79.7686918,7.3366107 C86.9953664,0.906079264 98.3388456,-0.412179681 108.665494,0.0997895529 C141.097701,1.71236897 170.373031,17.3632932 195.697318,35.0695142 C204.866115,41.4777861 213.891417,48.3856608 219.841486,57.2128018 C231.964289,75.1811906 228.362085,100.072294 211.518812,114.874883 C205.786458,119.910483 198.83935,123.778695 191.706689,127.194297 C179.024754,133.278569 165.340831,138.1633 150.946859,139.560703 C140.684536,140.550016 130.293563,139.7462 120.088142,138.363635 C91.5797649,134.490477 63.6008321,125.942816 40.1394988,111.320777 C29.8524352,104.907559 20.1566674,96.9336999 15.9161607,86.5632313 C11.6756539,76.1927627 14.3896772,63.0349061 24.8944564,56.8838554 C29.2388729,54.3437955 34.4343596,53.196193 39.5185144,52.1178423 C47.0049633,50.532469 54.6101662,48.9693552 61.3642988,45.7466696 C68.3435692,42.417633 76.6043931,35.9796817 75.2189299,28.6093034 C73.7444013,20.7121161 72.5519135,13.7671421 79.7686918,7.3366107 Z" id="Path" fill="#EAEDF1"></path>
                <path d="M169,165 C169,165 175.184927,154.233769 184.496871,151.131716 C188.411728,149.85496 191.799574,147.364817 194.151873,144.035075 C195.256175,142.445984 196.209558,140.760541 197,139" id="Path" stroke="#535461" stroke-width="2"></path>
                <path d="M203.165798,136.809172 C202.076077,137.887813 197,139 197,139 C197,139 198.24431,133.867424 199.334032,132.791363 C200.423637,131.713942 202.164706,131.739937 203.222819,132.849424 C204.280932,133.958911 204.255403,135.731751 203.165798,136.809172 L203.165798,136.809172 Z" id="Path" fill="#6C63FF" fill-rule="nonzero"></path>
                <path d="M199.920636,144.970497 C198.528103,145.240983 194,143.562585 194,143.562585 C194,143.562585 197.538172,140.326005 198.928338,140.048584 C200.320651,139.778542 201.673599,140.661437 201.95023,142.020586 C202.226862,143.379735 201.322423,144.700455 199.930109,144.970497 L199.920636,144.970497 Z" id="Path" fill="#6C63FF" fill-rule="nonzero"></path>
                <path d="M190.471934,154.8434 C189.104303,154.381891 186,150.712894 186,150.712894 C186,150.712894 190.824092,149.660654 192.184487,150.112933 C193.087662,150.390958 193.762812,151.114852 193.949031,152.004872 C194.135249,152.894891 193.803368,153.811625 193.081639,154.400809 C192.35991,154.989992 191.361384,155.159336 190.471934,154.8434 L190.471934,154.8434 Z" id="Path" fill="#6C63FF" fill-rule="nonzero"></path>
                <path d="M181.00867,160.962663 C179.618287,160.731781 176,157.612567 176,157.612567 C176,157.612567 180.448753,155.793217 181.839135,156.019481 C182.745883,156.157684 183.507267,156.7629 183.833355,157.604665 C184.159444,158.446429 184,159.395192 183.41587,160.089667 C182.83169,160.784142 181.912632,161.117448 181.00867,160.962663 L181.00867,160.962663 Z" id="Path" fill="#6C63FF" fill-rule="nonzero"></path>
                <path d="M190,140.534931 C190,141.93803 192.497696,146 192.497696,146 C192.497696,146 195,141.93803 195,140.53727 C195,139.135974 193.880712,138 192.5,138 C191.119288,138 190,139.135974 190,140.53727 L190,140.534931 Z" id="Path" fill="#6C63FF" fill-rule="nonzero"></path>
                <path d="M179.115684,146.401612 C179.532606,147.781611 183.132033,151 183.132033,151 C183.132033,151 184.32721,146.215843 183.912604,144.835844 C183.497497,143.456109 182.087159,142.688121 180.762526,143.120496 C179.437893,143.552871 178.700577,145.021877 179.115684,146.401612 Z" id="Path" fill="#6C63FF" fill-rule="nonzero"></path>
                <path d="M170.022599,154.892102 C170.20726,156.289013 173.224149,160 173.224149,160 C173.224149,160 175.172316,155.609371 174.987656,154.21246 C174.803445,152.81559 173.542647,151.835347 172.171585,152.023025 C170.800522,152.210703 169.838389,153.495232 170.022599,154.892102 L170.022599,154.892102 Z" id="Path" fill="#6C63FF" fill-rule="nonzero"></path>
                <path d="M203.165798,136.809172 C202.076077,137.887813 197,139 197,139 C197,139 198.24431,133.867424 199.334032,132.791363 C200.423637,131.713942 202.164706,131.739937 203.222819,132.849424 C204.280932,133.958911 204.255403,135.731751 203.165798,136.809172 L203.165798,136.809172 Z" id="Path" fill="#9CA3DB"></path>
                <path d="M199.920636,144.970497 C198.528103,145.240983 194,143.562585 194,143.562585 C194,143.562585 197.538172,140.326005 198.928338,140.048584 C200.320651,139.778542 201.673599,140.661437 201.95023,142.020586 C202.226862,143.379735 201.322423,144.700455 199.930109,144.970497 L199.920636,144.970497 Z" id="Path" fill="#9CA3DB"></path>
                <path d="M190.471934,154.8434 C189.104303,154.381891 186,150.712894 186,150.712894 C186,150.712894 190.824092,149.660654 192.184487,150.112933 C193.087662,150.390958 193.762812,151.114852 193.949031,152.004872 C194.135249,152.894891 193.803368,153.811625 193.081639,154.400809 C192.35991,154.989992 191.361384,155.159336 190.471934,154.8434 L190.471934,154.8434 Z" id="Path" fill="#9CA3DB"></path>
                <path d="M181.00867,160.962663 C179.618287,160.731781 176,157.612567 176,157.612567 C176,157.612567 180.448753,155.793217 181.839135,156.019481 C182.745883,156.157684 183.507267,156.7629 183.833355,157.604665 C184.159444,158.446429 184,159.395192 183.41587,160.089667 C182.83169,160.784142 181.912632,161.117448 181.00867,160.962663 L181.00867,160.962663 Z" id="Path" fill="#9CA3DB"></path>
                <path d="M190,140.534931 C190,141.93803 192.497696,146 192.497696,146 C192.497696,146 195,141.93803 195,140.53727 C195,139.135974 193.880712,138 192.5,138 C191.119288,138 190,139.135974 190,140.53727 L190,140.534931 Z" id="Path" fill="#9CA3DB"></path>
                <path d="M179.115684,146.401612 C179.532606,147.781611 183.132033,151 183.132033,151 C183.132033,151 184.32721,146.215843 183.912604,144.835844 C183.497497,143.456109 182.087159,142.688121 180.762526,143.120496 C179.437893,143.552871 178.700577,145.021877 179.115684,146.401612 Z" id="Path" fill="#9CA3DB"></path>
                <path d="M170.022599,154.892102 C170.20726,156.289013 173.224149,160 173.224149,160 C173.224149,160 175.172316,155.609371 174.987656,154.21246 C174.803445,152.81559 173.542647,151.835347 172.171585,152.023025 C170.800522,152.210703 169.838389,153.495232 170.022599,154.892102 L170.022599,154.892102 Z" id="Path" fill="#9CA3DB"></path>
                <path d="M170,165 C170,165 171.224281,152.315 178.520203,145.57 C181.597585,142.759157 183.68442,139.021274 184.467424,134.9175 C184.825598,132.965638 185.003857,130.984752 185,129" id="Path" stroke="#535461" stroke-width="2"></path>
                <path d="M188.794724,125.69991 C188.279853,127.056806 184.473487,130 184.473487,130 C184.473487,130 183.655211,125.075152 184.170081,123.720697 C184.48738,122.819579 185.240037,122.172076 186.136096,122.029356 C187.032155,121.886636 187.930624,122.271155 188.482987,123.033757 C189.03535,123.79636 189.154693,124.817053 188.794724,125.69991 L188.794724,125.69991 Z" id="Path" fill="#4A76C4"></path>
                <path d="M189.923829,134.871467 C188.779241,135.723423 184,136 184,136 C184,136 185.868716,131.340173 187.006297,130.488217 C187.746946,129.937255 188.709374,129.845867 189.531043,130.248477 C190.352711,130.651087 190.90879,131.48653 190.989809,132.440102 C191.070828,133.393674 190.664479,134.320505 189.923829,134.871467 L189.923829,134.871467 Z" id="Path" fill="#4A76C4"></path>
                <path d="M184.676782,146.995541 C183.269315,147.110811 179,144.952953 179,144.952953 C179,144.952953 182.849421,142.126528 184.240467,142.008952 C185.641591,141.893087 186.872997,142.915446 186.990891,144.292455 C187.108785,145.669463 186.068522,146.879676 184.667399,146.995541 L184.676782,146.995541 Z" id="Path" fill="#4A76C4"></path>
                <path d="M178.019928,155.945491 C176.642044,156.2919 172,154.873931 172,154.873931 C172,154.873931 175.347308,151.439859 176.725192,151.093449 C177.623561,150.848104 178.588185,151.093918 179.247211,151.736134 C179.906237,152.378349 180.15674,153.316667 179.902154,154.189373 C179.647567,155.062079 178.927651,155.732877 178.019928,155.943181 L178.019928,155.945491 Z" id="Path" fill="#4A76C4"></path>
                <path d="M179.195684,133.75407 C179.754314,135.122758 183.669344,138 183.669344,138 C183.669344,138 184.336469,132.934855 183.77553,131.566167 C183.199369,130.228032 181.739297,129.635035 180.491629,130.232437 C179.243962,130.829838 178.667765,132.397831 179.195684,133.759065 L179.195684,133.75407 Z" id="Path" fill="#4A76C4"></path>
                <path d="M170.748632,144.450052 C171.796273,145.553395 177,147 177,147 C177,147 176.122103,142.042313 175.07181,140.93897 C174.398972,140.206067 173.350774,139.865724 172.329959,140.048709 C171.309144,140.231695 170.474513,140.909543 170.146752,141.821808 C169.818991,142.734072 170.049087,143.73884 170.748632,144.450052 L170.748632,144.450052 Z" id="Path" fill="#4A76C4"></path>
                <path d="M165.419662,155.299147 C166.235367,156.628125 170.999705,159 170.999705,159 C170.999705,159 171.038672,153.673684 170.22037,152.344706 C169.693209,151.485702 168.748341,150.973506 167.741687,151.001058 C166.735032,151.02861 165.819528,151.591723 165.340034,152.478278 C164.86054,153.364834 164.889904,154.440143 165.417065,155.299147 L165.419662,155.299147 Z" id="Path" fill="#4A76C4"></path>
                <ellipse id="Oval" fill="#EAEDF1" cx="92.5" cy="201" rx="29.5" ry="5"></ellipse>
                <ellipse id="Oval" fill="#EAEDF1" cx="150.5" cy="163" rx="29.5" ry="5"></ellipse>
                <polygon id="Path" fill="#B77B7F" fill-rule="nonzero" points="153 98.1481421 152.96983 99.1085964 151.115743 158 148 158 149.527702 99.1085964 149.557872 98"></polygon>
                <polygon id="Path" fill="#DDA2A6" fill-rule="nonzero" points="169 148 166.897876 147.994718 135.664902 147.923415 134 147.920775 134.886795 145 168.777684 145"></polygon>
                <polygon id="Path" fill="#000000" fill-rule="nonzero" opacity="0.1" points="152 98.1336303 151.973934 99 149 99 149.026066 98"></polygon>
                <rect id="Rectangle" fill="#B77B7F" fill-rule="nonzero" x="148" y="97" width="5" height="2"></rect>
                <polygon id="Path" fill="#000000" fill-rule="nonzero" opacity="0.1" points="136 145 135.715013 148 134 147.99729 134.913486 145"></polygon>
                <polygon id="Path" fill="#DDA2A6" fill-rule="nonzero" points="140 97 139.915152 97.8474722 133.115152 166 130 165.849722 137.166061 97.8474722 137.246061 97.0739075"></polygon>
                <polygon id="Path" fill="#000000" fill-rule="nonzero" opacity="0.1" points="168 148 166.238095 147.994718 166 145 167.813665 145"></polygon>
                <polygon id="Path" fill="#DDA2A6" fill-rule="nonzero" points="172 165.849722 168.882424 166 162.084848 97.8474722 162 97 164.751515 97.0739075 164.831515 97.8474722"></polygon>
                <rect id="Rectangle" fill="#FFFFFF" fill-rule="nonzero" x="115" y="30" width="70" height="67"></rect>
                <path d="M151.998638,6.45389506 L151.998638,23 L149.001362,23 L149.001362,6.45389506 C148.977931,5.9419612 149.258335,5.45931049 149.731664,5.19684735 C150.204993,4.93438422 150.795007,4.93438422 151.268336,5.19684735 C151.741665,5.45931049 152.022069,5.9419612 151.998638,6.45389506 Z" id="Path" fill="#DDA2A6" fill-rule="nonzero"></path>
                <rect id="Rectangle" fill="#000000" fill-rule="nonzero" opacity="0.1" x="149" y="22" width="3" height="1"></rect>
                <path d="M153,22.6628378 L153,28 L148,28 L148,22.6628378 C147.999326,22.4868426 148.071149,22.3178659 148.199531,22.1934176 C148.327912,22.0689694 148.502229,21.9993467 148.683787,22 L152.321302,22 C152.696957,22.0027121 153,22.2986811 153,22.6628378 L153,22.6628378 Z" id="Path" fill="#DDA2A6" fill-rule="nonzero"></path>
                <circle id="Oval" fill="#000000" fill-rule="nonzero" opacity="0.1" cx="150" cy="26" r="1"></circle>
                <circle id="Oval" fill="#B77B7F" fill-rule="nonzero" cx="150" cy="25" r="1"></circle>
                <rect id="Rectangle" fill="#000000" fill-rule="nonzero" opacity="0.1" x="148" y="27" width="5" height="1"></rect>
                <rect id="Rectangle" fill="#000000" fill-rule="nonzero" opacity="0.1" x="146" y="29" width="9" height="1"></rect>
                <rect id="Rectangle" fill="#DDA2A6" fill-rule="nonzero" x="146" y="28" width="9" height="1"></rect>
                <path d="M132.588756,95 L169.411244,95 C170.288689,95 171,95.7348861 171,96.6414141 L171,97 L131,97 L131,96.6414141 C131,95.7348861 131.711311,95 132.588756,95 Z" id="Path" fill="#000000" fill-rule="nonzero" opacity="0.1"></path>
                <polygon id="Path" fill="#000000" fill-rule="nonzero" opacity="0.1" points="137.084688 97.0872093 140 97 139.91018 98 137 98"></polygon>
                <rect id="Rectangle" fill="#000000" fill-rule="nonzero" opacity="0.1" x="148" y="97" width="5" height="1"></rect>
                <polygon id="Path" fill="#000000" fill-rule="nonzero" opacity="0.1" points="165 98 162.089897 98 162 97 164.91524 97.0872093"></polygon>
                <path d="M132.588756,95 L169.411244,95 C170.288689,95 171,95.7348861 171,96.6414141 L171,97 L131,97 L131,96.6414141 C131,96.206084 131.167386,95.7885839 131.465336,95.4807591 C131.763286,95.1729342 132.167392,95 132.588756,95 L132.588756,95 Z" id="Path" fill="#DDA2A6" fill-rule="nonzero"></path>
                <path d="M124.603002,63.8610717 C124.044478,63.5654626 117.959764,58.9638145 117.959764,58.9638145 L108.140075,52.7289261 C108.140075,52.7289261 108.088405,52.5811215 107.994908,52.3273904 C110.68911,49.2653729 110.10106,44.8213829 107.360109,41.6977801 C104.03849,37.909057 89.0296941,29.7527095 84.5073716,36.729084 C83.8750337,37.7144476 83.8528896,38.8328354 83.6880389,39.9167354 C83.3017469,42.4466565 82.056755,44.8977485 80.103151,46.9620854 C78.5973504,48.5559111 76.6216023,50.0241029 75.755521,51.8273183 C75.755521,51.8051476 75.7382978,51.782977 75.7309164,51.7583429 C75.5218491,52.1448256 75.3701666,52.5597558 75.2806525,52.9900474 C74.8500723,55.1898717 76.3263473,57.2985499 77.1112336,59.4392524 C77.3746876,60.1641823 77.5658934,60.9134199 77.6820599,61.6760279 C77.7017436,61.5232965 77.7189668,61.3730286 77.73619,61.2202972 C77.9274746,62.3061663 77.9926999,63.4105396 77.9305662,64.5114117 C72.4806508,65.6224092 72.4781904,74.9562663 72.4781904,74.9562663 C72.4781904,74.9562663 71.8064852,78.6661604 71.9196663,80.0037915 C72.0328474,81.3414226 72.0303869,84.2334649 72.0303869,84.9306097 C72.0303869,85.6277545 71.3586818,89.9756715 71.2922494,90.4979142 C71.292902,90.50529 71.292902,90.5127091 71.2922494,90.5200849 C71.1938311,91.0915958 70.1727408,93.8456872 72.6405806,94.4615395 C72.8128127,94.5058808 72.9948866,94.542832 73.1843419,94.5773197 C73.2901416,96.8067049 73.4820574,101.474865 73.3122858,102.514424 C73.3122858,102.514424 74.2103531,108.786263 74.955872,110.380089 C75.4273049,111.314643 75.9788777,112.206461 76.6043791,113.045498 C76.5502452,113.427394 76.4214898,113.794871 76.2254685,114.126934 C75.8440975,114.676274 76.0409342,115.127078 76.6781929,115.321688 C76.6560488,115.51137 76.6314442,115.725687 76.6043791,115.967101 C76.3312682,118.386169 75.9228321,123.194743 76.6166814,125.631055 C77.5688788,128.971437 77.6254694,130.084898 77.6254694,130.084898 C77.6254694,130.084898 77.6254694,131.085042 78.0191427,131.641773 C78.4128161,132.198503 79.1386513,137.376589 79.1386513,138.211685 C79.1386513,139.046781 81.0430461,146.560178 80.4820616,148.341223 C79.9210771,150.122268 80.371341,152.627555 80.371341,152.627555 C80.371341,152.627555 80.0342582,157.02474 79.6332034,157.970689 C79.2321487,158.916638 79.0722189,174.167604 79.6873335,178.118912 C80.3024481,182.07022 80.6961215,185.353945 80.6961215,185.353945 C80.6961215,185.353945 80.3049086,188.972693 80.6395309,189.472765 C80.9741533,189.972837 81.5917283,192.980659 81.1439249,193.145708 C80.6961215,193.310756 80.4722198,194.537534 80.4722198,194.537534 C80.7090283,194.897951 80.9644424,195.245764 81.2374223,195.579556 C81.0647931,195.519231 80.8963004,195.447639 80.7330283,195.365239 C80.9101814,195.61158 81.1759109,195.961384 81.5031518,196.350603 L81.1955945,200.353643 C81.1689389,200.675889 81.3759439,200.971225 81.6876862,201.055714 C83.6894929,201.60051 85.8283263,200.998419 87.2532431,199.488986 C90.0532448,196.651139 91.0054422,197.040357 91.5098362,195.315971 C91.5639663,195.131215 91.610715,194.948923 91.6500823,194.776484 C92.0117697,193.239317 90.3755649,192.096295 89.0739824,192.751562 C89.2535958,191.534638 89.393842,190.152666 89.2585167,189.371765 C88.9780245,187.758232 89.034615,183.528559 89.034615,183.528559 L88.6434021,163.267019 C88.6434021,163.267019 89.3692374,159.259052 90.2107142,157.702178 C91.0521909,156.145303 90.9488517,150.688852 90.9488517,150.688852 L91.9010491,132.765087 L92.7966559,124.027375 C92.7966559,124.027375 93.6922628,121.022016 94.8117714,124.362399 C94.8117714,124.362399 94.1966568,131.094896 94.477149,132.710892 C94.7576413,134.326889 95.1488542,142.172847 94.8683619,143.897233 C94.5878697,145.621619 93.3576405,155.086037 94.1302244,157.478007 C94.9028083,159.869978 95.7639688,162.76941 95.5917367,163.717823 C95.4195046,164.666235 94.8535992,185.201213 94.8535992,185.201213 C94.8535992,185.201213 96.3667811,189.142668 95.2472725,190.433494 C94.1277639,191.724321 95.190682,196.838358 95.190682,196.838358 C95.190682,196.838358 95.3260072,196.934431 95.5572903,197.067455 L95.5253043,197.493625 L95.1734588,202.097736 C95.1475798,202.420325 95.3540327,202.715907 95.6655505,202.802271 C97.6673595,203.347632 99.8064823,202.745459 101.231107,201.235543 C104.031109,198.395232 104.983306,198.786914 105.4877,197.060065 C105.541831,196.875309 105.588579,196.69548 105.630407,196.520578 C106.02408,194.842997 104.031109,193.626072 102.697541,194.722289 L102.631108,194.778948 C102.561434,194.838245 102.488312,194.893358 102.412127,194.943996 C102.376738,194.970089 102.33976,194.993948 102.301407,195.015435 C102.581899,193.744316 102.990335,191.566662 102.793498,190.546811 C102.513006,189.044132 103.07153,184.481898 103.07153,184.481898 C103.07153,184.481898 104.695433,179.025447 104.752023,176.84533 L105.199827,159.480759 C105.199827,159.480759 105.145697,152.410775 105.369598,150.686389 C105.5935,148.962002 107.384714,134.043597 109.175928,129.589753 C110.551324,126.180395 111.166438,117.479634 110.802291,113.067668 C110.782607,112.850888 110.762923,112.641499 110.738319,112.446889 C112.935508,110.823503 113.154489,108.123606 113.154489,108.123606 C113.154489,108.123606 111.136913,104.265908 109.195611,102.632667 C107.25431,100.999427 106.836032,98.1911408 106.904924,96.9963874 C106.937903,96.2683545 106.69838,95.5541963 106.233219,94.9936358 C106.233219,94.9936358 105.337612,92.0991302 104.739721,91.8035211 C104.690813,91.7785938 104.646671,91.7452391 104.609317,91.7049847 C104.203341,91.2689613 104.515819,90.0224763 104.515819,90.0224763 L104.515819,89.9830617 C104.587173,89.6948429 105.007911,87.8275788 104.882428,87.3496774 C104.73234,86.8323615 104.956241,84.3812695 104.956241,84.3812695 C104.956241,84.3812695 106.375926,80.1515961 106.152024,76.8112133 C105.928122,73.4708306 109.065207,73.7689031 109.065207,73.7689031 L118.752032,73.6679033 L119.854317,73.6679033 C120.243008,73.3374597 120.598212,72.9694529 120.914775,72.5692229 C122.760118,72.3499795 126.492634,71.6528347 126.910912,69.613132 C127.479278,66.9058454 125.163986,64.1591442 124.603002,63.8610717 Z M79.7242404,94.7423681 L79.7906728,93.0450792 C80.0194954,93.242152 80.1720438,93.3677858 80.1720438,93.3677858 C80.2955727,93.8118731 80.3015084,94.2805069 80.189267,94.7275877 C80.0675344,95.1529358 79.7586035,95.4994259 79.3502507,95.6686099 C79.3034175,95.688993 79.2581816,95.7128733 79.2149255,95.7400488 L79.1214281,94.7817827 L79.7242404,94.7423681 Z M114.859587,64.9351181 C114.44869,64.7503624 113.065912,64.7873136 112.35484,64.7873136 C111.643767,64.7873136 110.489812,64.193632 110.489812,64.193632 C110.243767,63.7132672 108.883133,63.4275117 107.672588,63.2649267 C106.752376,60.9936636 105.458175,58.7790588 105.283482,56.4117226 C105.283482,56.3255033 105.283482,56.239284 105.27118,56.1530647 L105.411426,56.3994056 C105.411426,56.3994056 111.050797,60.0009097 111.685595,61.0798829 C112.177687,61.9026615 114.547108,63.7403647 115.644473,64.5631433 C115.493375,64.7605138 115.281504,64.9025082 115.04166,64.9671424 C114.979165,64.9739323 114.916028,64.9628274 114.859587,64.9351181 Z" id="Shape" fill="url(#linearGradient-1)" fill-rule="nonzero"></path>
                <path d="M104.957352,197.287939 C104.916904,197.467998 104.874077,197.655774 104.821732,197.846122 C104.345872,199.646712 103.434599,199.230004 100.776918,202.170111 C99.4272196,203.734179 97.3866481,204.360239 95.4782122,203.795786 C95.1765285,203.709546 94.975803,203.401398 95.0023518,203.065261 L95.3378334,198.296269 L95.4972466,196.001803 C95.4972466,196.001803 99.7419218,197.287939 101.902328,195.654546 C101.974805,195.601014 102.04469,195.543491 102.111707,195.482204 C102.128375,195.46595 102.144258,195.448778 102.159293,195.430759 C102.730973,194.919104 103.540415,194.857356 104.172888,195.277154 C104.805362,195.696951 105.120707,196.505263 104.957352,197.287939 L104.957352,197.287939 Z" id="Path" fill="#67647E" fill-rule="nonzero"></path>
                <path d="M90.9573524,195.287939 C90.9169042,195.467998 90.8740768,195.655774 90.8217321,195.846122 C90.3458717,197.646712 89.4345989,197.230004 86.7769183,200.170111 C85.4272196,201.734179 83.3866481,202.360239 81.4782122,201.795786 C81.1765285,201.709546 80.975803,201.401398 81.0023518,201.065261 L81.3378334,196.296269 L81.4972466,194.001803 C81.4972466,194.001803 85.7419218,195.287939 87.9023283,193.654546 C87.9748054,193.601014 88.0446904,193.543491 88.1117069,193.482204 C88.1283746,193.46595 88.1442577,193.448778 88.1592929,193.430759 C88.7309726,192.919104 89.5404148,192.857356 90.1728883,193.277154 C90.8053618,193.696951 91.1207074,194.505263 90.9573524,195.287939 Z" id="Path" fill="#67647E" fill-rule="nonzero"></path>
                <path d="M86.8338462,196.08024 L87,198.228879 C84.6369231,200.509023 81.8238462,197.11444 81,196 C83.1669231,197.078778 86.8338462,196.08024 86.8338462,196.08024 Z" id="Path" fill="#000000" fill-rule="nonzero" opacity="0.1"></path>
                <path d="M101.654947,197.295017 L101.994926,197.10451 C99.6226894,200.148334 96.0985864,198.744151 95,198.198317 L95.1699891,196.288971 C95.1699891,196.288971 99.6962668,197.359232 102,196 C101.819862,196.744902 101.654947,197.295017 101.654947,197.295017 Z" id="Path" fill="#000000" fill-rule="nonzero" opacity="0.1"></path>
                <path d="M108.307363,131.05761 C106.548879,135.46141 104.792844,150.215245 104.572421,151.93452 C104.351998,153.653795 104.408328,160.634051 104.408328,160.634051 L103.967482,177.799783 C103.911152,179.948877 102.31921,185.344944 102.31921,185.344944 C102.31921,185.344944 101.770602,189.859269 102.044906,191.345213 C102.31921,192.831158 101.332205,196.748649 101.332205,196.748649 L101.66039,196.527599 C98.9149015,200.702981 94.5774701,197.573901 94.5774701,197.573901 C94.5774701,197.573901 93.5341354,192.509408 94.6338004,191.242057 C95.7334654,189.974706 94.249285,186.067039 94.249285,186.067039 C94.249285,186.067039 94.7978929,165.750122 94.9619855,164.814345 C95.126078,163.878568 94.3031661,161.014747 93.5341354,158.64706 C92.7651046,156.279373 93.974981,146.919149 94.249285,145.212155 C94.523589,143.50516 94.1390736,135.741406 93.8647696,134.144936 C93.5904657,132.548467 94.1929547,125.885048 94.1929547,125.885048 C93.0957389,122.581584 92.2164967,125.55593 92.2164967,125.55593 L91.3372545,134.198971 L90.4041312,151.929607 C90.4041312,151.929607 90.5143427,157.333043 89.6914308,158.86811 C88.8685189,160.403177 88.1533693,164.372246 88.1533693,164.372246 L88.5378846,184.416535 C88.5378846,184.416535 88.4840035,188.591917 88.7583075,190.195755 C89.0326114,191.799593 88.1533693,195.923397 88.1533693,195.923397 C85.0796954,203.186106 80.1422241,195.311826 80.1422241,195.311826 C80.1422241,195.311826 80.3626469,194.100966 80.8010434,193.936406 C81.2394399,193.771847 80.6369509,190.797502 80.3112149,190.301368 C79.985479,189.805234 80.3650961,186.226686 80.3650961,186.226686 C80.3650961,186.226686 79.9805807,182.979713 79.3854391,179.06959 C78.7902974,175.159468 78.9470425,160.074058 79.3315579,159.138282 C79.7160733,158.202505 80.0442584,153.852739 80.0442584,153.852739 C80.0442584,153.852739 79.6058619,151.374527 80.1544698,149.611042 C80.7030777,147.847558 78.8368311,140.417834 78.8368311,139.590126 C78.8368311,138.762418 78.1241307,133.64389 77.7396153,133.093722 C77.3550999,132.543554 77.3550999,131.551287 77.3550999,131.551287 C77.3550999,131.551287 77.3012188,130.450951 76.3754429,127.147487 C75.6945813,124.73559 76.0962407,119.980567 76.3631972,117.585862 C76.4587137,116.699208 76.5419846,116.134303 76.5419846,116.134303 C76.5419846,116.134303 108.03061,111.01332 109.28702,112.170146 C109.580917,112.442774 109.776849,113.378551 109.891958,114.712217 C110.266677,119.074263 109.649493,127.695199 108.307363,131.05761 Z" id="Path" fill="#2F2E41" fill-rule="nonzero"></path>
                <path d="M97,155.972618 C97.1448803,155.972618 100.573713,156.269021 101.829342,156.009668 C103.084971,155.750316 97,155.972618 97,155.972618 Z" id="Path" fill="#000000" fill-rule="nonzero" opacity="0.1"></path>
                <path d="M97,157.001181 C97,157.001181 101.749641,158.587345 101.991846,157.761986 C102.234051,156.936628 97,157.001181 97,157.001181 Z" id="Path" fill="#000000" fill-rule="nonzero" opacity="0.1"></path>
                <path d="M82,157 C82,157 84.4467917,157.122614 85.7785593,157.817424 C87.1103268,158.512235 82,157 82,157 Z" id="Path" fill="#000000" fill-rule="nonzero" opacity="0.1"></path>
                <path d="M73,94.0756848 C73,94.0756848 73.3849765,101.954469 73.1760563,103.349592 C73.1760563,103.349592 74.0164319,109.722249 74.7183099,111.341903 C75.4201878,112.961557 76.9295775,115 76.9295775,115 L79,99.3584815 L78.5070423,94 L73,94.0756848 Z" id="Path" fill="#EFBD9E"></path>
                <circle id="Oval" fill="#EFB7B9" fill-rule="nonzero" cx="95.5" cy="50.5" r="8.5"></circle>
                <path d="M91.6806323,55.2926899 C91.6806323,55.2926899 88.9726402,60.4430474 86.2646481,62.8520857 C83.556656,65.2611239 102.512601,68 102.963094,68 C103.413587,68 99.5781036,57.0469388 100.255102,55.725144 C100.9321,54.4033492 91.6806323,55.2926899 91.6806323,55.2926899 Z" id="Path" fill="#EFB7B9" fill-rule="nonzero"></path>
                <path d="M110,113.683305 C109.58071,113.99695 109.118014,114.250582 108.625812,114.436582 C105.217626,115.743882 101.509302,117.559036 98.9891296,116.834919 C96.4689575,116.110801 91.130955,116.834919 91.130955,116.834919 C91.130955,116.834919 80.378055,115.962576 78.232436,116.47043 C77.2551251,116.701273 76.4960969,116.691553 76,116.526318 C76.0967389,115.649115 76.1810754,115.090232 76.1810754,115.090232 C76.1810754,115.090232 108.109871,110.023838 109.382359,111.168333 C109.684978,111.438054 109.878456,112.363856 110,113.683305 Z" id="Path" fill="#000000" fill-rule="nonzero" opacity="0.1"></path>
                <path d="M112,109.360623 C112,109.360623 111.707796,113.059166 108.329036,114.390147 C104.950276,115.721128 101.284223,117.569163 98.7894414,116.831928 C96.2946593,116.094694 91.0104359,116.831928 91.0104359,116.831928 C91.0104359,116.831928 80.3658686,115.943783 78.2418662,116.460837 C76.1178637,116.977891 75.0104359,116.314874 75.6709638,115.352511 C76.3314917,114.390147 76.2602824,111.211132 76.2602824,109.880151 C76.2602824,108.54917 75.5236341,103.151028 76.1841621,102.188664 C76.84469,101.226301 77.4315531,97.530231 78.752609,96.9364849 C79.1544073,96.7660101 79.457825,96.4211909 79.577655,95.9988608 C79.686849,95.5537162 79.680931,95.0877979 79.5604665,94.6456144 C79.5604665,94.6456144 79.3370166,94.4600687 79.0300798,94.1854611 C78.2516882,93.4853355 76.9355433,92.1865158 77.3578883,91.7609977 C77.9447514,91.1672516 77.3578883,87.3227454 77.3578883,87.3227454 C77.3578883,87.3227454 75.9631676,84.3663844 76.4788214,83.2580583 C76.9944751,82.1497322 72,76.3062806 72,76.3062806 C72,76.3062806 72,66.2521794 78.0184162,65.8068698 C78.0184162,65.8068698 82.2762431,65.9553063 82.7894414,64.0330532 C83.3026397,62.1108001 86.6789441,61 86.6789441,61 L94.3867403,62.7020723 C94.3867403,62.7020723 101.210559,64.1864376 102.460405,63.2933445 C103.710252,62.4002513 104.67035,64.4758888 104.67035,64.4758888 C104.67035,64.4758888 108.925721,64.6985436 109.365255,65.5866889 C109.804788,66.4748342 107.97299,75.1237362 107.97299,75.1237362 C107.97299,75.1237362 104.888889,74.8293371 105.109883,78.1567894 C105.330878,81.4842417 103.921424,85.6998393 103.921424,85.6998393 C103.921424,85.6998393 103.70043,88.1391463 103.847759,88.6562002 C103.985267,89.1336711 103.558011,90.9940757 103.489257,91.281053 L103.489257,91.3181621 C103.489257,91.3181621 103.18232,92.5551332 103.58011,92.9954949 C103.616976,93.035337 103.660118,93.0687726 103.707796,93.0944526 C104.297115,93.3888517 105.181093,96.2734684 105.181093,96.2734684 C105.639348,96.8334257 105.874756,97.5449549 105.841621,98.2699398 C105.770411,99.4549581 106.209945,102.262883 108.117864,103.890737 C110.025783,105.518591 112,109.360623 112,109.360623 Z" id="Path" fill="#FFC95B" fill-rule="nonzero"></path>
                <path d="M80,92.1901547 L80,92.4980999 L79.8633179,95.8927706 C79.8633179,95.8927706 75.2085328,96.2540606 72.6748516,95.6502941 C70.1411703,95.0465277 71.2067845,92.352614 71.3080305,91.7949181 C71.3089575,91.7876709 71.3089575,91.7803424 71.3080305,91.7730952 C71.3814339,91.2638946 72.0673755,87.0254057 72.0673755,86.3367725 C72.0673755,85.6481392 72.0673755,82.8208635 71.9534738,81.51634 C71.839572,80.2118165 72.5103268,76.577094 72.5103268,76.577094 L73.0013699,76 L78.3319721,77.9567852 L80,92.1901547 Z" id="Path" fill="#FFC95B" fill-rule="nonzero"></path>
                <path d="M80,92.6688876 L79.8633179,95.8980002 C79.8633179,95.8980002 75.2085328,96.24167 72.6748516,95.6673493 C70.1411703,95.0930286 71.2067845,92.5304971 71.3080305,92 L80,92.6688876 Z" id="Path" fill="#F0AA2C" fill-rule="nonzero"></path>
                <path d="M79.5575,96 C79.6686731,95.5284767 79.6626479,95.0349487 79.54,94.5665618 C79.54,94.5665618 79.3125,94.370021 79,94.0791405 C82.9575,93.5 98.63,91.2463312 103.9075,91 L103.9075,91.0393082 C103.9075,91.0393082 103.595,92.3495807 104,92.8160377 L79.5575,96 Z" id="Path" fill="#000000" fill-rule="nonzero" opacity="0.1"></path>
                <path d="M104.871622,99 C104.871622,99 105.924459,104.178192 102,106 C101.997296,106.009389 104.224763,103.441477 104.871622,99 Z" id="Path" fill="#F0AA2C" fill-rule="nonzero"></path>
                <path d="M81,105.730856 C81,105.730856 90.0566166,104.322154 91.8291258,105.416246 C93.6016351,106.510337 81,105.730856 81,105.730856 Z" id="Path" fill="#F0AA2C" fill-rule="nonzero"></path>
                <path d="M101.765308,72 C101.765308,72 100.319376,77.5813611 101.402481,78.8631565 C102.485586,80.1449519 101.765308,72 101.765308,72 Z" id="Path" fill="#000000" fill-rule="nonzero" opacity="0.1"></path>
                <path d="M76.0580026,68 C76.0580026,68 77.6579368,70.2221557 76.6875913,72.525412 C75.7172458,74.8286683 76.0580026,68 76.0580026,68 Z" id="Path" fill="#000000" fill-rule="nonzero" opacity="0.1"></path>
                <path d="M74,86 C74,86 75.3604919,87.028617 74.9077168,88.6363481 C74.4549416,90.2440792 74,86 74,86 Z" id="Path" fill="#F0AA2C" fill-rule="nonzero"></path>
                <path d="M74,82 C74,82 75.7572639,82.7132062 75.9837154,83.7648447 C76.210167,84.8164832 74,82 74,82 Z" id="Path" fill="#F0AA2C" fill-rule="nonzero"></path>
                <path d="M95,125.860041 C95,125.860041 104.167501,126.512485 106,125 C106,125.008723 97.7312244,126.147884 95,125.860041 Z" id="Path" fill="#000000" fill-rule="nonzero" opacity="0.1"></path>
                <path d="M79,125 C79,125 89.0195412,126.947033 91,125.40747 C91,125.40747 82.3899745,125.940961 79,125 Z" id="Path" fill="#000000" fill-rule="nonzero" opacity="0.1"></path>
                <path d="M96,128.928863 C96,128.928863 99.907595,128.928863 101.71878,129.040014 C103.529964,129.151165 96,128.928863 96,128.928863 Z" id="Path" fill="#000000" fill-rule="nonzero" opacity="0.1"></path>
                <path d="M80,130 C80,130 82.1113209,132.375818 84.4973491,131.948587 C86.8833772,131.521357 80,130 80,130 Z" id="Path" fill="#000000" fill-rule="nonzero" opacity="0.1"></path>
                <path d="M84.0815509,38.7007753 C83.4571656,39.6668387 83.4349542,40.7853091 83.2720711,41.8570741 C82.8920104,44.361956 81.6605152,46.7881764 79.7330648,48.8333793 C77.9635617,50.7065099 75.5375901,52.4051099 75.0785558,54.6936724 C74.6442008,56.8667005 76.1175528,58.9586088 76.8900137,61.0849316 C78.9260529,66.6625343 76.0830018,72.5129947 75.2537786,78.2700443 C75.0242615,79.8604846 75.3006692,81.8933966 77.2676065,82.4219046 C77.8821201,82.5890606 78.5854791,82.566937 79.1382946,82.8324201 C79.8786725,83.1863975 80.1057217,83.9213923 80.2414576,84.5826419 C80.7364877,86.9479429 80.9075074,89.3691434 80.7498504,91.780183 C80.6610051,93.1321801 80.562288,94.6882059 81.8456097,95.6173967 C82.4280403,96.0426612 83.2128409,96.2589808 83.9704942,96.4630095 C85.9917259,97.0062665 88.6052598,97.4462801 89.9675551,96.1704864 C90.540114,95.6370621 90.7548236,94.8848601 91.4680543,94.4620537 C92.5366664,93.8303023 94.0519731,94.258025 95.3969929,94.3243958 C98.1586024,94.4620537 100.695631,92.8494898 101.783986,90.9050721 C102.872342,88.9606544 102.771157,86.7261719 102.376288,84.6293472 C101.98142,82.5325226 101.275593,80.450447 101.226235,78.321666 C101.208959,77.584213 101.275593,76.8344692 101.700077,76.1805942 C102.521896,74.9146332 104.434539,74.3394199 105.74254,73.3438584 C108.193191,71.4756441 108.185787,68.4152142 107.294866,65.8537942 C106.403944,63.2923742 104.804728,60.8366557 104.607294,58.1891995 C104.519179,57.5492082 104.646776,56.8981845 104.970079,56.3381925 C105.320524,55.7998518 105.93257,55.3967109 106.450835,54.9517809 C110.02686,51.9429727 109.604845,47.0020377 106.648269,43.6195867 C103.375799,39.8708674 88.5484975,31.7957572 84.0815509,38.7007753 Z" id="Path" fill="#92341E"></path>
                <g id="Group" opacity="0.1" transform="translate(75.000000, 47.000000)" fill="#000000" fill-rule="nonzero">
                    <path d="M2.5218705,16.2058824 C2.79827338,13.9779412 2.74690647,11.7696078 1.96172662,9.6004902 C1.5752518,8.53676471 1.01510791,7.48039216 0.606618705,6.41421569 C0.402566358,6.79970882 0.254316759,7.21234447 0.166330935,7.63970588 C-0.264172662,9.80637255 1.19611511,11.8921569 1.96172662,14.0122549 C2.21945827,14.7233886 2.40706826,15.4581041 2.5218705,16.2058824 Z" id="Path"></path>
                    <path d="M5.78733813,40.2058824 C5.94319984,37.8020146 5.77453085,35.3880651 5.28589928,33.0294118 C5.14892086,32.370098 4.92388489,31.6397059 4.19007194,31.2867647 C3.64215827,31.0220588 2.94503597,31.0416667 2.33597122,30.877451 C1.57763811,30.6952809 0.945736475,30.1724576 0.623741007,29.4607843 C0.511223022,30.0196078 0.413381295,30.5759804 0.332661871,31.1348039 C0.105179856,32.7205882 0.379136691,34.747549 2.32863309,35.2745098 C2.93769784,35.4387255 3.63482014,35.4166667 4.18273381,35.6813725 C4.91654676,36.0343137 5.14158273,36.7671569 5.27856115,37.4264706 C5.5029476,38.5203207 5.65979211,39.6269967 5.74820144,40.7401961 C5.7653253,40.5588235 5.77510791,40.3823529 5.78733813,40.2058824 Z" id="Path"></path>
                    <path d="M26.6374101,39.3357843 C25.556259,41.2818627 23.0417266,42.8823529 20.3046043,42.745098 C18.9715108,42.6764706 17.4696403,42.254902 16.4129496,42.8823529 C15.7060432,43.3014706 15.4907914,44.0539216 14.9233094,44.5857843 C13.5730935,45.8480392 10.9827338,45.4191176 8.97942446,44.877451 C8.22848921,44.6715686 7.45309353,44.4583333 6.87338129,44.0343137 C6.32092155,43.6271668 5.9481266,43.0207015 5.83381295,42.3431373 C5.84848921,43.0955882 5.83381295,43.8504902 5.78733813,44.6029412 C5.69928058,45.9509804 5.60143885,47.502451 6.87338129,48.4313725 C7.45309353,48.8529412 8.22848921,49.0686275 8.97942446,49.2720588 C10.9827338,49.8137255 13.5730935,50.252451 14.9233094,48.9803922 C15.4907914,48.4485294 15.7060432,47.6985294 16.4129496,47.2647059 C17.4696403,46.6348039 18.9715108,47.0612745 20.3046043,47.127451 C23.0417266,47.2647059 25.556259,45.6568627 26.6374101,43.7181373 C27.6745324,41.8455882 27.6280576,39.7279412 27.2660432,37.7058824 C27.1296792,38.2747499 26.9182745,38.822874 26.6374101,39.3357843 Z" id="Path"></path>
                    <path d="M31.2702158,3.49754902 C30.7467626,3.93872549 30.1401439,4.34313725 29.8025899,4.87990196 C29.4821532,5.43825457 29.3556883,6.08737241 29.4430216,6.7254902 C29.5140626,7.5275398 29.683295,8.31778758 29.9469065,9.07843137 C30.3542578,8.64311887 30.80048,8.24604095 31.28,7.89215686 C33.6771223,5.86519608 34.2592806,2.95588235 33.4814388,0.240196078 C33.0710161,1.51582468 32.3035001,2.64645263 31.2702158,3.49754902 Z" id="Path"></path>
                    <path d="M30.5584173,21.8235294 C29.2644604,22.8161765 27.3663309,23.3921569 26.5542446,24.6544118 C26.1310791,25.3063725 26.065036,26.0588235 26.0821583,26.7867647 C26.1122366,27.6439532 26.2169994,28.4968694 26.3952518,29.3357843 C26.4415409,29.2366133 26.494667,29.1407932 26.5542446,29.0490196 C27.3663309,27.7867647 29.2644604,27.2132353 30.5584173,26.2205882 C32.7769784,24.5196078 32.9628777,21.8284314 32.3073381,19.4289216 C31.9747514,20.3835112 31.365881,21.2171715 30.5584173,21.8235294 Z" id="Path"></path>
                </g>
                <path d="M119.83302,74 C119.83302,74 126.348146,73.6714966 126.912488,70.9968902 C127.47683,68.3222839 125.14892,65.6035502 124.579539,65.3167225 C124.010158,65.0298949 117.867901,60.4798771 117.867901,60.4798771 L107.966723,54.3265665 C107.966723,54.3265665 103.222723,41.0883682 102.17214,46.1556563 C101.121557,51.2229444 105.223114,57.9523619 105.223114,57.9523619 C105.223114,57.9523619 110.906844,61.5070633 111.546767,62.5685707 C112.186691,63.630078 116.104332,66.4150027 116.104332,66.4150027 L119.83302,74 Z" id="Path" fill="#EFBD9E"></path>
                <path d="M122.833054,69.2901474 C121.361769,73.3113525 119.455349,74.8965606 119.455349,74.8965606 L118.395158,74.8965606 L109.074615,75 L108,71.8425136 L109.50975,65 L110.442526,65.0413757 C110.442526,65.0413757 111.55801,65.6594259 112.238359,65.6594259 C112.918708,65.6594259 114.252962,65.6206362 114.64242,65.811999 C114.696831,65.8405865 114.758089,65.8505158 114.817916,65.8404448 C115.171313,65.801655 115.539134,65.2327386 115.539134,65.2327386 C115.539134,65.2327386 124.306743,65.2715283 122.833054,69.2901474 Z" id="Path" fill="#FFC95B" fill-rule="nonzero"></path>
                <path d="M122.837205,69.7842823 C121.400736,73.5252606 119.539429,75 119.539429,75 L118.504327,75 C119.044176,73.5180433 120.182554,70.4771451 120.616781,69.7746592 C121.041619,69.1106656 117.229813,67.457899 115,66.5653569 C115.345034,66.5292702 115.704151,66 115.704151,66 C115.704151,66 124.276021,66.0457097 122.837205,69.7842823 Z" id="Path" fill="#F0AA2C" fill-rule="nonzero"></path>
                <ellipse id="Oval" fill="#EAEDF1" cx="22" cy="188" rx="11" ry="2"></ellipse>
                <ellipse id="Oval" fill="#EAEDF1" cx="205" cy="174.5" rx="8" ry="1.5"></ellipse>
                <ellipse id="Oval" fill="#6C63FF" fill-rule="nonzero" opacity="0.1" cx="239" cy="180.5" rx="8" ry="1.5"></ellipse>
                <ellipse id="Oval" fill="#EAEDF1" cx="186" cy="193.5" rx="8" ry="1.5"></ellipse>
                <circle id="Oval" fill="#EAEDF1" cx="45" cy="31" r="8"></circle>
                <circle id="Oval" fill="#EAEDF1" cx="28" cy="12" r="5"></circle>
                <circle id="Oval" fill="#EAEDF1" cx="3" cy="23" r="3"></circle>
                <g id="icons/filled/alert-circle-fill" transform="translate(130.000000, 41.000000)">
                    <mask id="mask-3" fill="white">
                        <use xlink:href="#path-2"></use>
                    </mask>
                    <use id="🎨-Icon-Сolor" fill="#3F3D56" xlink:href="#path-2"></use>
                    <rect id="Rectangle" stroke-opacity="0.01" stroke="#FFFFFF" stroke-width="0.1" x="0" y="0" width="43" height="42"></rect>
                </g>
            </g>
        </g>
    </g>
</svg>