<?xml version="1.0" encoding="UTF-8"?>
<svg width="238px" height="180px" viewBox="0 0 238 180" version="1.1" xmlns="http://www.w3.org/2000/svg" xmlns:xlink="http://www.w3.org/1999/xlink">
    <title>no-rezults</title>
    <defs>
        <linearGradient x1="49.999825%" y1="0.000485942204%" x2="49.999825%" y2="100.001407%" id="linearGradient-1">
            <stop stop-color="#4DA1FF" offset="0%"></stop>
            <stop stop-color="#FFFFFF" stop-opacity="0.2" offset="100%"></stop>
        </linearGradient>
    </defs>
    <g id="HF_Invite_Users" stroke="none" stroke-width="1" fill="none" fill-rule="evenodd">
        <g id="HF_Invite_Users_01_00" transform="translate(-251.000000, -231.000000)" fill-rule="nonzero">
            <g id="no-rezults" transform="translate(251.000000, 231.000000)">
                <path d="M33.3024125,29.458403 C11.2195278,43.858403 -1.86076061,70.2699415 0.21529708,97.8497491 C1.27885477,111.955518 6.08433554,125.654557 19.1213548,132.993018 C53.9911625,152.697826 205.936259,152.533403 226.644047,118.134365 C247.984432,82.6968645 240.654624,33.3699415 192.166259,12.6353261 C150.099047,-5.34736624 90.3217394,-7.71852009 33.3024125,29.458403 Z" id="Path" fill="url(#linearGradient-1)" opacity="0.3"></path>
                <path d="M126.958662,179.299749 C187.995105,179.299749 237.478662,174.574749 237.478662,168.742057 C237.478662,162.918018 187.995105,158.193018 126.958662,158.193018 C65.9222202,158.193018 16.442124,162.918018 16.442124,168.742057 C16.442124,174.574749 65.9222202,179.299749 126.958662,179.299749 Z" id="Path" fill="#ECF5FF" opacity="0.45"></path>
                <path d="M53.07126,73.0218645 C53.07126,71.8622491 52.6126048,70.7545568 51.7956817,69.9410953 C50.979624,69.1276338 49.8719317,68.6689799 48.718374,68.6689799 C48.4925086,68.6689799 48.2675086,68.6949415 48.0451048,68.7295568 C47.0213548,66.8343645 45.0370278,65.6487876 42.8778932,65.6401338 L42.6624125,65.6401338 C42.8017394,65.0949415 42.8744317,64.5237876 42.8778932,63.9526338 C42.9566432,61.4170568 41.6473163,59.0372491 39.4613548,57.7478261 C37.2753932,56.4497491 34.5589509,56.4497491 32.3729894,57.7478261 C30.1861625,59.0372491 28.8777009,61.4170568 28.9564509,63.9526338 C28.9590471,64.5237876 29.0317394,65.0949415 29.1719317,65.6401338 L28.9564509,65.6401338 C26.8137586,65.570903 24.8026048,66.6699415 23.709624,68.5132107 C22.6175086,70.3651338 22.6175086,72.658403 23.709624,74.5016722 C24.8026048,76.3449415 26.8137586,77.4439799 28.9564509,77.3747491 L49.2895278,77.3747491 L49.2895278,77.3314799 C51.4547202,77.045903 53.0729894,75.2026338 53.07126,73.0218645 Z" id="Path" fill-opacity="0.5" fill="#D4E5F9"></path>
                <path d="M234.622893,27.8660953 C234.622893,24.6382107 232.009432,22.0074415 228.772893,21.9987876 C228.461355,21.9987876 228.141162,22.0247491 227.829624,22.0766722 C226.453662,19.5151338 223.779624,17.9141722 220.863278,17.9141722 C220.768086,17.9141722 220.672893,17.9141722 220.577701,17.9141722 C221.598855,14.0891722 220.119047,10.0305184 216.882509,7.76321068 C213.635586,5.48724915 209.319047,5.48724915 206.075586,7.76321068 C202.832124,10.0305184 201.354047,14.0891722 202.376932,17.9141722 C202.282605,17.9141722 202.188278,17.9141722 202.087893,17.9141722 C197.809432,18.0353261 194.405009,21.5401338 194.405009,25.8237876 C194.405009,30.0987876 197.809432,33.6035953 202.087893,33.733403 L229.543086,33.733403 L229.543086,33.6728261 C232.450778,33.283403 234.622893,30.7997491 234.622893,27.8660953 Z" id="Path" fill-opacity="0.5" fill="#D4E5F9"></path>
                <polygon id="Path" fill="#4DA1FF" points="108.13222 73.0997491 123.251355 54.2603261 126.51472 57.1160953 113.629143 78.6641722"></polygon>
                <polygon id="Path" fill="#F4A28C" points="89.1032778 48.3151338 91.8889509 56.683403 85.2678932 60.8891722 82.8854894 46.3853261"></polygon>
                <path d="M80.6129894,38.3026338 C81.3148163,36.6757107 82.7885663,35.5247491 84.5288548,35.2305184 C86.2700086,34.9449415 88.0397202,35.5507107 89.2322202,36.8487876 C92.0516432,39.8603261 95.4491432,44.645903 91.6068355,47.2507107 C85.719624,51.2401338 80.3230855,43.7891722 80.3230855,43.7891722 C79.8748163,41.9718645 79.9760663,40.0593645 80.6129894,38.3026338 Z" id="Path" fill="#F4A28C"></path>
                <path d="M84.9104894,43.4343645 C84.9104894,43.4343645 83.4029894,42.170903 82.7236625,43.9535953 C82.0443355,45.7449415 84.7019317,46.6449415 85.4954894,45.7103261 C86.2899125,44.7757107 84.9104894,43.4343645 84.9104894,43.4343645 Z" id="Path" fill="#F4A28C"></path>
                <path d="M77.5365471,64.9997491 C79.5563548,60.508403 83.4298163,57.1247491 88.1478932,55.7228261 C97.1504894,53.0314799 113.715682,55.9824415 118.769528,64.4026338 C125.685682,75.920903 115.559816,112.535326 115.559816,112.535326 L85.3215471,114.880518 C85.3215471,114.880518 68.6888548,84.8776338 77.5365471,64.9997491 Z" id="Path" fill="#4DA1FF"></path>
                <path d="M90.7717394,54.9612876 C90.7717394,54.9612876 76.6417394,100.523788 117.470586,103.54398 L115.566739,112.561288 L85.3284702,114.90648 C85.3284702,114.90648 74.6703932,98.1785953 75.1212586,74.6747491 C75.1212586,74.6747491 75.3774125,63.0526338 83.5587586,57.920903 C85.7248163,56.4324415 88.1842394,55.4199415 90.7717394,54.9612876 Z" id="Path" fill="#000000" opacity="0.08"></path>
                <path d="M103.107797,55.4891722 C100.024432,60.4305184 100.024432,66.695903 103.107797,71.6372491 C106.404047,77.2016722 115.999432,88.0449415 122.559912,95.1843645 C124.063086,96.8285953 126.263759,97.6507107 128.474816,97.3910953 C130.685874,97.1314799 132.638182,95.8247491 133.722509,93.8862876 L147.852509,69.0410953 L143.068662,65.9689799 L130.149336,84.9035953 C130.149336,84.9035953 121.280874,55.8526338 103.107797,55.4891722 Z" id="Path" fill="#4DA1FF"></path>
                <path d="M103.107797,55.4891722 C100.024432,60.4305184 100.024432,66.695903 103.107797,71.6372491 C106.404047,77.2016722 115.999432,88.0449415 122.559912,95.1843645 C124.063086,96.8285953 126.263759,97.6507107 128.474816,97.3910953 C130.685874,97.1314799 132.638182,95.8247491 133.722509,93.8862876 L147.852509,69.0410953 L143.068662,65.9689799 L130.149336,84.9035953 C130.149336,84.9035953 121.280874,55.8526338 103.107797,55.4891722 Z" id="Path" fill="#FFFFFF" opacity="0.2"></path>
                <path d="M146.148566,67.9680184 C146.148566,67.9680184 154.149047,65.0343645 150.858855,60.508403 C147.568662,55.9910953 143.006355,65.9776338 143.006355,65.9776338 L146.148566,67.9680184 Z" id="Path" fill="#F4A28C"></path>
                <path d="M83.323374,49.0420568 L78.8424125,44.4122491 C77.9095278,43.4343645 77.4223163,42.1189799 77.4967394,40.7689799 C77.6040471,38.4064799 78.1085663,34.6420568 80.0600086,31.820903 C83.1277971,27.3901338 87.2054894,25.7199415 88.2214509,29.5449415 C89.2374125,33.3699415 89.4390471,28.8266722 91.9088548,30.8862876 C94.3786625,32.9545568 93.8732778,34.1228261 91.9088548,35.195903 C89.9444317,36.2776338 85.8866432,37.8353261 85.5231817,41.0718645 C85.1597202,44.308403 88.2084702,46.8872491 83.323374,49.0420568 Z" id="Path" fill="#7B4B2A"></path>
                <polygon id="Path" fill="#D6CFAE" points="127.608566 54.0612876 134.700393 37.7660953 139.323278 43.6853261 148.30597 39.4016722 152.228759 46.0305184 161.903759 44.645903 156.157605 63.1564799 146.757797 65.5795568 142.438662 58.5007107 133.435201 60.9757107"></polygon>
                <polygon id="Path" fill="#FFFFFF" opacity="0.2" points="130.020393 53.2132107 134.313566 58.5699415 143.571451 55.4891722 147.353182 63.6497491 154.512509 61.6160953 159.141451 46.9997491 150.832028 48.4276338 147.353182 41.7987876 138.942509 46.0737876 135.15472 41.7987876"></polygon>
                <polygon id="Path" fill="#000000" opacity="0.08" points="139.327605 43.6853261 133.439528 60.9757107 142.442989 58.5007107 148.309432 39.4016722"></polygon>
                <polygon id="Path" fill="#000000" opacity="0.08" points="152.233951 46.0305184 146.763855 65.5795568 156.163662 63.1564799 161.909816 44.645903"></polygon>
                <path d="M123.810393,54.7535953 C123.810393,54.7535953 124.705201,50.6776338 126.501739,49.6305184 C128.298278,48.583403 131.985682,49.4055184 130.411547,51.6468645 C128.836547,53.8882107 126.501739,57.1160953 126.501739,57.1160953 L123.810393,54.7535953 Z" id="Path" fill="#F4A28C"></path>
                <polygon id="Path" fill="#001E61" points="115.451643 112.457441 111.42847 165.046865 105.062701 165.046865 99.3909702 124.192057 85.3284702 114.837249"></polygon>
                <polygon id="Path" fill="#001E61" points="85.3284702 114.837249 76.5474125 165.046865 83.3701048 165.046865 98.0989509 123.326672"></polygon>
                <path d="M77.7866432,165.046865 L73.5609702,168.162249 C73.2381817,168.395903 73.1049125,168.819941 73.2303932,169.200711 C73.355874,169.58148 73.7115471,169.832441 74.1122202,169.832441 L81.1979894,169.832441 C81.444624,169.841095 81.6817394,169.737249 81.8565471,169.564172 C82.0304894,169.391095 82.1282778,169.157441 82.1265697,168.90648 L82.1265697,165.046865 L77.7866432,165.046865 Z" id="Path" fill="#AB6A61"></path>
                <path d="M111.246739,165.046865 L115.230105,168.162249 C115.547701,168.404557 115.673182,168.828595 115.542509,169.209365 C115.411836,169.58148 115.052701,169.841095 114.651162,169.832441 L109.605105,169.832441 C108.118374,169.832441 106.913759,168.629557 106.913759,167.141095 L106.913759,165.046865 L111.246739,165.046865 Z" id="Path" fill="#AB6A61"></path>
                <path d="M194.579816,166.855518 C194.579816,166.855518 200.985393,157.639172 191.437605,155.103595 C181.889816,152.568018 193.738662,140.158403 184.843374,138.53148 C175.948086,136.904557 177.441739,150.023788 177.441739,150.023788 C177.441739,150.023788 171.305297,144.736288 167.073566,149.175711 C162.84097,153.615134 168.768855,158.495903 168.768855,158.495903 C168.768855,158.495903 160.217124,161.446865 165.546162,166.855518 L194.579816,166.855518 Z" id="Path" fill="#6BB132"></path>
                <path d="M181.742701,168.075711 C181.742701,168.075711 185.77972,161.118018 191.801932,161.974749 C197.823278,162.83148 197.150874,168.075711 197.150874,168.075711 L181.742701,168.075711 Z" id="Path" fill="#C9C9C9"></path>
            </g>
        </g>
    </g>
</svg>