<?xml version="1.0" encoding="UTF-8"?>
<svg width="75px" height="73px" viewBox="0 0 75 73" version="1.1" xmlns="http://www.w3.org/2000/svg" xmlns:xlink="http://www.w3.org/1999/xlink">
    <!-- Generator: Sketch 56.3 (81716) - https://sketch.com -->
    <title>Group</title>
    <desc>Created with Sketch.</desc>
    <g id="Page-1" stroke="none" stroke-width="1" fill="none" fill-rule="evenodd">
        <g id="reef-small" transform="translate(-382.000000, -232.000000)">
            <g id="Group" transform="translate(382.954592, 232.952568)">
                <path d="M16.7044078,9.33843183 C15.6334078,8.71443183 15.2774078,7.34543183 15.9014078,6.28543183 C16.5254078,5.22543183 17.8934078,4.86843183 18.9534078,5.49343183 C20.0244078,6.11743183 20.3804078,7.48543183 19.7564078,8.54443183 C19.3394078,9.24943183 18.5964078,9.64443183 17.8234078,9.64443183 C17.4474078,9.64443183 17.0504078,9.54643183 16.7044078,9.33843183 Z M22.4714078,12.7174318 C21.4114078,12.1024318 21.0544078,10.7354318 21.6784078,9.67443183 C22.2934078,8.60443183 23.6604078,8.24743183 24.7204078,8.87143183 C25.7904078,9.49643183 26.1474078,10.8634318 25.5234078,11.9234318 C25.1074078,12.6374318 24.3634078,13.0244318 23.5904078,13.0244318 C23.2144078,13.0244318 22.8284078,12.9254318 22.4714078,12.7174318 Z M28.2384078,16.1064318 C27.1774078,15.4814318 26.8214078,14.1134318 27.4454078,13.0534318 C28.0694078,11.9934318 29.4374078,11.6364318 30.4974078,12.2604318 C31.5574078,12.8854318 31.9144078,14.2534318 31.2904078,15.3124318 C30.8744078,16.0164318 30.1304078,16.4124318 29.3674078,16.4124318 C28.9814078,16.4124318 28.5954078,16.3144318 28.2384078,16.1064318 Z M34.0054078,19.4844318 C32.9454078,18.8604318 32.5884078,17.5024318 33.2124078,16.4434318 C33.8374078,15.3724318 35.2044078,15.0154318 36.2644078,15.6394318 C37.3254078,16.2634318 37.6814078,17.6314318 37.0574078,18.6914318 C36.6414078,19.4054318 35.8984078,19.8014318 35.1354078,19.8014318 C34.7484078,19.8014318 34.3614078,19.6924318 34.0054078,19.4844318 L34.0054078,19.4844318 Z" id="Fill-7" fill="#5A5896"></path>
                <path d="M7.24040783,19.9114318 C6.02240783,19.7714318 5.14040783,18.6624318 5.27840783,17.4434318 C5.41740783,16.2144318 6.51740783,15.3424318 7.73540783,15.4714318 C8.96440783,15.6104318 9.84740783,16.7194318 9.70840783,17.9394318 C9.57940783,19.0784318 8.61840783,19.9204318 7.48840783,19.9204318 C7.40940783,19.9204318 7.33040783,19.9204318 7.24040783,19.9114318 Z M13.8904078,20.6544318 C12.6714078,20.5144318 11.7894078,19.4154318 11.9284078,18.1864318 C12.0564078,16.9674318 13.1664078,16.0854318 14.3854078,16.2244318 C15.6134078,16.3634318 16.4964078,17.4624318 16.3574078,18.6824318 C16.2284078,19.8214318 15.2674078,20.6634318 14.1474078,20.6634318 C14.0584078,20.6634318 13.9794078,20.6634318 13.8904078,20.6544318 Z M20.5394078,21.3974318 C19.3104078,21.2574318 18.4284078,20.1584318 18.5664078,18.9294318 C18.7054078,17.7104318 19.8054078,16.8284318 21.0344078,16.9674318 C22.2534078,17.1064318 23.1344078,18.2064318 22.9964078,19.4344318 C22.8674078,20.5654318 21.9064078,21.4164318 20.7864078,21.4164318 C20.7074078,21.4164318 20.6174078,21.4064318 20.5394078,21.3974318 Z M27.1884078,22.1404318 C25.9594078,22.0014318 25.0774078,20.9014318 25.2154078,19.6824318 C25.3554078,18.4534318 26.4544078,17.5714318 27.6834078,17.7104318 C28.9024078,17.8494318 29.7834078,18.9494318 29.6454078,20.1784318 C29.5164078,21.3184318 28.5554078,22.1594318 27.4354078,22.1594318 C27.3564078,22.1594318 27.2674078,22.1504318 27.1884078,22.1404318 L27.1884078,22.1404318 Z" id="Fill-8" fill="#5B649F"></path>
                <path d="M19.2314078,25.8964318 C18.8544078,24.7164318 19.5084078,23.4684318 20.6774078,23.0914318 C21.8564078,22.7254318 23.1054078,23.3694318 23.4824078,24.5474318 C23.8484078,25.7164318 23.2044078,26.9764318 22.0254078,27.3424318 C21.8074078,27.4114318 21.5794078,27.4514318 21.3514078,27.4514318 C20.4094078,27.4514318 19.5284078,26.8374318 19.2314078,25.8964318 Z M12.8594078,27.9174318 C12.4824078,26.7374318 13.1274078,25.4894318 14.3064078,25.1134318 C15.4854078,24.7464318 16.7334078,25.3904318 17.1104078,26.5694318 C17.4764078,27.7384318 16.8234078,28.9974318 15.6534078,29.3644318 C15.4254078,29.4334318 15.2074078,29.4724318 14.9794078,29.4724318 C14.0384078,29.4724318 13.1564078,28.8684318 12.8594078,27.9174318 Z M6.47840783,29.9394318 C6.11140783,28.7594318 6.75540783,27.5114318 7.92440783,27.1344318 C9.10440783,26.7684318 10.3524078,27.4114318 10.7284078,28.5914318 C11.1054078,29.7604318 10.4514078,31.0194318 9.28140783,31.3854318 C9.05440783,31.4544318 8.82640783,31.4944318 8.59840783,31.4944318 C7.65740783,31.4944318 6.78440783,30.8904318 6.47840783,29.9394318 Z M0.106407829,31.9604318 C-0.269592171,30.7904318 0.383407829,29.5324318 1.55240783,29.1564318 C2.73240783,28.7894318 3.98140783,29.4334318 4.35740783,30.6124318 C4.72440783,31.7814318 4.07940783,33.0404318 2.90040783,33.4074318 C2.68240783,33.4864318 2.45540783,33.5154318 2.22740783,33.5154318 C1.28540783,33.5154318 0.403407829,32.9114318 0.106407829,31.9604318 L0.106407829,31.9604318 Z" id="Fill-9" fill="#5D7BAF"></path>
                <path d="M16.2884078,34.0014318 C15.4654078,33.0804318 15.5544078,31.6734318 16.4764078,30.8604318 C17.3974078,30.0374318 18.8054078,30.1174318 19.6274078,31.0384318 C20.4404078,31.9604318 20.3604078,33.3674318 19.4394078,34.1904318 C19.0134078,34.5664318 18.4874078,34.7544318 17.9524078,34.7544318 C17.3384078,34.7544318 16.7334078,34.4974318 16.2884078,34.0014318 Z M11.2834078,38.4414318 C10.4714078,37.5194318 10.5504078,36.1114318 11.4714078,35.2994318 C12.3934078,34.4774318 13.8004078,34.5664318 14.6234078,35.4874318 C15.4354078,36.4094318 15.3564078,37.8164318 14.4354078,38.6294318 C14.0084078,39.0054318 13.4834078,39.1934318 12.9584078,39.1934318 C12.3344078,39.1934318 11.7294078,38.9374318 11.2834078,38.4414318 Z M6.28940783,42.8904318 C5.46740783,41.9684318 5.55640783,40.5514318 6.46740783,39.7384318 C7.38940783,38.9164318 8.80640783,39.0054318 9.61940783,39.9274318 C10.4414078,40.8494318 10.3524078,42.2554318 9.43140783,43.0684318 C9.00440783,43.4444318 8.47940783,43.6334318 7.95440783,43.6334318 C7.33940783,43.6334318 6.72540783,43.3854318 6.28940783,42.8904318 Z M1.28540783,47.3294318 C0.462407829,46.4074318 0.551407829,45.0004318 1.47340783,44.1784318 C2.39540783,43.3654318 3.80240783,43.4444318 4.61440783,44.3664318 C5.43740783,45.2874318 5.34840783,46.6944318 4.43640783,47.5174318 C4.01040783,47.8954318 3.47540783,48.0724318 2.95040783,48.0724318 C2.33640783,48.0724318 1.72140783,47.8244318 1.28540783,47.3294318 L1.28540783,47.3294318 Z" id="Fill-10" fill="#5594BB"></path>
                <path d="M16.9014078,42.6124318 C15.7724078,42.0974318 15.2774078,40.7784318 15.7924078,39.6594318 C16.2974078,38.5394318 17.6154078,38.0444318 18.7454078,38.5494318 C19.8654078,39.0554318 20.3604078,40.3724318 19.8454078,41.5034318 C19.4784078,42.3254318 18.6664078,42.8104318 17.8144078,42.8104318 C17.5064078,42.8104318 17.1994078,42.7414318 16.9014078,42.6124318 Z M14.1374078,48.6964318 C13.0174078,48.1924318 12.5224078,46.8734318 13.0274078,45.7544318 C13.5334078,44.6234318 14.8614078,44.1284318 15.9814078,44.6444318 C17.1004078,45.1494318 17.5954078,46.4674318 17.0904078,47.5864318 C16.7134078,48.4094318 15.9014078,48.9044318 15.0594078,48.9044318 C14.7524078,48.9044318 14.4354078,48.8354318 14.1374078,48.6964318 Z M11.3734078,54.7914318 C10.2534078,54.2854318 9.75740783,52.9574318 10.2634078,51.8374318 C10.7684078,50.7184318 12.0964078,50.2234318 13.2154078,50.7284318 C14.3354078,51.2434318 14.8314078,52.5624318 14.3264078,53.6814318 C13.9494078,54.5034318 13.1364078,54.9884318 12.2944078,54.9884318 C11.9874078,54.9884318 11.6704078,54.9294318 11.3734078,54.7914318 Z M8.60840783,60.8854318 C7.48840783,60.3694318 6.99240783,59.0524318 7.49840783,57.9324318 C8.01340783,56.8134318 9.33140783,56.3174318 10.4514078,56.8224318 C11.5704078,57.3274318 12.0664078,58.6544318 11.5614078,59.7754318 C11.1854078,60.5974318 10.3824078,61.0834318 9.52940783,61.0834318 C9.22240783,61.0834318 8.90540783,61.0134318 8.60840783,60.8854318 L8.60840783,60.8854318 Z" id="Fill-11" fill="#56AFB3"></path>
                <path d="M20.9554078,50.2234318 C19.7264078,50.2134318 18.7354078,49.2114318 18.7454078,47.9734318 C18.7544078,46.7444318 19.7564078,45.7544318 20.9944078,45.7644318 C22.2234078,45.7734318 23.2144078,46.7744318 23.2044078,48.0124318 C23.1944078,49.2324318 22.1934078,50.2234318 20.9754078,50.2234318 C20.9644078,50.2234318 20.9644078,50.2234318 20.9554078,50.2234318 Z M20.9154078,56.9114318 C19.6764078,56.9014318 18.6864078,55.9004318 18.6954078,54.6614318 C18.7054078,53.4344318 19.7164078,52.4434318 20.9444078,52.4524318 C22.1734078,52.4624318 23.1654078,53.4624318 23.1544078,54.7014318 C23.1454078,55.9204318 22.1544078,56.9114318 20.9254078,56.9114318 L20.9154078,56.9114318 Z M20.8654078,63.6004318 C19.6374078,63.5904318 18.6464078,62.5894318 18.6464078,61.3504318 C18.6554078,60.1224318 19.6664078,59.1314318 20.8954078,59.1414318 C22.1244078,59.1514318 23.1154078,60.1514318 23.1054078,61.3904318 C23.1054078,62.6094318 22.1044078,63.6004318 20.8854078,63.6004318 C20.8764078,63.6004318 20.8654078,63.6004318 20.8654078,63.6004318 Z M20.8164078,70.2884318 C19.5874078,70.2784318 18.5964078,69.2774318 18.6064078,68.0384318 C18.6164078,66.8114318 19.6174078,65.8194318 20.8464078,65.8294318 C22.0854078,65.8394318 23.0754078,66.8404318 23.0664078,68.0784318 C23.0564078,69.2984318 22.0654078,70.2884318 20.8364078,70.2884318 C20.8264078,70.2884318 20.8264078,70.2884318 20.8164078,70.2884318 L20.8164078,70.2884318 Z" id="Fill-12" fill="#5BBBA3"></path>
                <path d="M32.9844078,57.7534318 C32.0724078,56.9214318 32.0134078,55.5044318 32.8464078,54.6034318 C33.6784078,53.6914318 35.0854078,53.6214318 35.9974078,54.4534318 C36.8994078,55.2864318 36.9674078,56.6934318 36.1354078,57.6054318 C35.6994078,58.0904318 35.0954078,58.3284318 34.4904078,58.3284318 C33.9564078,58.3284318 33.4104078,58.1404318 32.9844078,57.7534318 Z M37.9204078,62.2634318 C37.0184078,61.4294318 36.9484078,60.0234318 37.7804078,59.1104318 C38.6134078,58.1994318 40.0204078,58.1404318 40.9314078,58.9634318 C41.8434078,59.7954318 41.9034078,61.2024318 41.0704078,62.1134318 C40.6344078,62.5994318 40.0304078,62.8364318 39.4254078,62.8364318 C38.8904078,62.8364318 38.3554078,62.6494318 37.9204078,62.2634318 Z M42.8644078,66.7714318 C41.9524078,65.9394318 41.8934078,64.5304318 42.7254078,63.6194318 C43.5474078,62.7074318 44.9644078,62.6494318 45.8664078,63.4714318 C46.7784078,64.3034318 46.8474078,65.7204318 46.0154078,66.6224318 C45.5694078,67.1084318 44.9744078,67.3564318 44.3704078,67.3564318 C43.8354078,67.3564318 43.2904078,67.1574318 42.8644078,66.7714318 Z M47.8094078,71.2794318 C46.8974078,70.4474318 46.8274078,69.0404318 47.6604078,68.1294318 C48.4924078,67.2174318 49.8994078,67.1574318 50.8114078,67.9894318 C51.7224078,68.8124318 51.7824078,70.2294318 50.9504078,71.1414318 C50.5144078,71.6164318 49.9094078,71.8634318 49.3054078,71.8634318 C48.7704078,71.8634318 48.2344078,71.6654318 47.8094078,71.2794318 L47.8094078,71.2794318 Z" id="Fill-13" fill="#DA1C70"></path>
                <path d="M41.8134078,57.5054318 C40.6444078,57.1194318 40.0104078,55.8604318 40.3974078,54.6924318 C40.7934078,53.5234318 42.0514078,52.8884318 43.2204078,53.2754318 C44.3904078,53.6704318 45.0244078,54.9294318 44.6284078,56.0984318 C44.3204078,57.0304318 43.4484078,57.6244318 42.5174078,57.6244318 C42.2794078,57.6244318 42.0414078,57.5854318 41.8134078,57.5054318 Z M48.1554078,59.6264318 C46.9864078,59.2304318 46.3624078,57.9724318 46.7484078,56.8024318 C47.1354078,55.6334318 48.3934078,54.9994318 49.5634078,55.3954318 C50.7324078,55.7814318 51.3664078,57.0404318 50.9794078,58.2094318 C50.6624078,59.1414318 49.7914078,59.7354318 48.8584078,59.7354318 C48.6304078,59.7354318 48.3934078,59.6954318 48.1554078,59.6264318 Z M54.5074078,61.7284318 C53.3374078,61.3404318 52.7044078,60.0824318 53.0904078,58.9124318 C53.4764078,57.7434318 54.7454078,57.1104318 55.9144078,57.4954318 C57.0844078,57.8934318 57.7084078,59.1514318 57.3214078,60.3194318 C57.0144078,61.2514318 56.1424078,61.8464318 55.2114078,61.8464318 C54.9734078,61.8464318 54.7354078,61.8064318 54.5074078,61.7284318 Z M60.8494078,63.8484318 C59.6804078,63.4504318 59.0554078,62.1934318 59.4414078,61.0244318 C59.8284078,59.8544318 61.0874078,59.2204318 62.2564078,59.6154318 C63.4254078,60.0034318 64.0604078,61.2614318 63.6734078,62.4314318 C63.3564078,63.3614318 62.4944078,63.9574318 61.5524078,63.9574318 C61.3244078,63.9574318 61.0874078,63.9174318 60.8494078,63.8484318 L60.8494078,63.8484318 Z" id="Fill-14" fill="#C6207D"></path>
                <path d="M67.3104078,49.7464318 C67.1914078,48.5194318 68.0834078,47.4284318 69.3114078,47.3094318 C70.5404078,47.1904318 71.6304078,48.0824318 71.7494078,49.3114318 C71.8684078,50.5294318 70.9764078,51.6204318 69.7474078,51.7384318 C69.6684078,51.7484318 69.5994078,51.7584318 69.5194078,51.7584318 C68.3904078,51.7584318 67.4194078,50.8964318 67.3104078,49.7464318 Z M60.6514078,50.3914318 C60.5324078,49.1724318 61.4344078,48.0824318 62.6524078,47.9634318 C63.8814078,47.8344318 64.9714078,48.7364318 65.0904078,49.9544318 C65.2094078,51.1844318 64.3174078,52.2744318 63.0884078,52.3924318 C63.0194078,52.4024318 62.9404078,52.4024318 62.8704078,52.4024318 C61.7314078,52.4024318 60.7704078,51.5504318 60.6514078,50.3914318 Z M54.0024078,51.0454318 C53.8734078,49.8254318 54.7744078,48.7364318 56.0034078,48.6174318 C57.2224078,48.4884318 58.3124078,49.3904318 58.4314078,50.6094318 C58.5604078,51.8374318 57.6584078,52.9274318 56.4294078,53.0464318 C56.3604078,53.0574318 56.2814078,53.0574318 56.2124078,53.0574318 C55.0824078,53.0574318 54.1114078,52.1944318 54.0024078,51.0454318 Z M47.3434078,51.6994318 C47.2244078,50.4804318 48.1154078,49.3814318 49.3444078,49.2624318 C50.5634078,49.1434318 51.6634078,50.0444318 51.7824078,51.2634318 C51.9014078,52.4914318 50.9994078,53.5814318 49.7804078,53.7004318 C49.7014078,53.7104318 49.6324078,53.7104318 49.5524078,53.7104318 C48.4224078,53.7104318 47.4524078,52.8494318 47.3434078,51.6994318 L47.3434078,51.6994318 Z" id="Fill-15" fill="#AB3482"></path>
                <path d="M69.9164078,36.2314318 C69.3014078,35.1604318 69.6784078,33.8034318 70.7484078,33.1994318 C71.8184078,32.5854318 73.1864078,32.9614318 73.7904078,34.0314318 C74.3954078,35.1014318 74.0284078,36.4694318 72.9584078,37.0724318 C72.6014078,37.2714318 72.2244078,37.3604318 71.8584078,37.3604318 C71.0754078,37.3604318 70.3224078,36.9544318 69.9164078,36.2314318 Z M64.0994078,39.5404318 C63.4854078,38.4704318 63.8614078,37.1034318 64.9314078,36.4994318 C66.0024078,35.8944318 67.3694078,36.2704318 67.9734078,37.3404318 C68.5784078,38.4114318 68.2124078,39.7694318 67.1414078,40.3724318 C66.7854078,40.5704318 66.4084078,40.6704318 66.0424078,40.6704318 C65.2584078,40.6704318 64.5054078,40.2644318 64.0994078,39.5404318 Z M58.2824078,42.8404318 C57.6684078,41.7704318 58.0454078,40.4124318 59.1154078,39.7984318 C60.1854078,39.1934318 61.5524078,39.5704318 62.1574078,40.6414318 C62.7614078,41.7114318 62.3954078,43.0684318 61.3244078,43.6834318 C60.9784078,43.8804318 60.5914078,43.9694318 60.2254078,43.9694318 C59.4414078,43.9694318 58.6894078,43.5644318 58.2824078,42.8404318 Z M52.4654078,46.1504318 C51.8614078,45.0794318 52.2284078,43.7124318 53.2984078,43.1084318 C54.3784078,42.5034318 55.7364078,42.8704318 56.3404078,43.9414318 C56.9554078,45.0114318 56.5784078,46.3784318 55.5084078,46.9824318 C55.1614078,47.1804318 54.7854078,47.2694318 54.4084078,47.2694318 C53.6354078,47.2694318 52.8724078,46.8734318 52.4654078,46.1504318 L52.4654078,46.1504318 Z" id="Fill-16" fill="#933D86"></path>
                <path d="M66.7944078,22.8344318 C65.8034078,22.1104318 65.5954078,20.7134318 66.3294078,19.7224318 C67.0524078,18.7314318 68.4494078,18.5134318 69.4404078,19.2474318 C70.4314078,19.9794318 70.6494078,21.3774318 69.9164078,22.3674318 C69.4804078,22.9634318 68.8064078,23.2694318 68.1224078,23.2694318 C67.6564078,23.2694318 67.1914078,23.1314318 66.7944078,22.8344318 Z M62.8214078,28.2244318 C61.8304078,27.4904318 61.6224078,26.0944318 62.3554078,25.1034318 C63.0884078,24.1124318 64.4854078,23.9034318 65.4764078,24.6274318 C66.4674078,25.3604318 66.6764078,26.7584318 65.9424078,27.7494318 C65.5064078,28.3434318 64.8324078,28.6504318 64.1494078,28.6504318 C63.6934078,28.6504318 63.2274078,28.5114318 62.8214078,28.2244318 Z M58.8574078,33.6044318 C57.8664078,32.8724318 57.6584078,31.4744318 58.3814078,30.4844318 C59.1154078,29.4934318 60.5124078,29.2854318 61.5034078,30.0184318 C62.4944078,30.7514318 62.7024078,32.1384318 61.9794078,33.1294318 C61.5434078,33.7234318 60.8594078,34.0414318 60.1754078,34.0414318 C59.7194078,34.0414318 59.2534078,33.9024318 58.8574078,33.6044318 Z M54.8944078,38.9854318 C53.9024078,38.2624318 53.6854078,36.8644318 54.4184078,35.8744318 C55.1514078,34.8824318 56.5384078,34.6654318 57.5394078,35.3994318 C58.5304078,36.1324318 58.7384078,37.5284318 58.0054078,38.5204318 C57.5694078,39.1054318 56.8954078,39.4214318 56.2124078,39.4214318 C55.7464078,39.4214318 55.2904078,39.2824318 54.8944078,38.9854318 L54.8944078,38.9854318 Z" id="Fill-17" fill="#7F4489"></path>
                <path d="M58.5014078,11.8644318 C57.2924078,11.6074318 56.5384078,10.4184318 56.7964078,9.20943183 C57.0644078,8.01043183 58.2534078,7.24643183 59.4524078,7.51443183 C60.6614078,7.77243183 61.4234078,8.96143183 61.1564078,10.1704318 C60.9284078,11.2104318 60.0064078,11.9234318 58.9764078,11.9234318 C58.8174078,11.9234318 58.6594078,11.9044318 58.5014078,11.8644318 Z M57.0644078,18.3944318 C55.8654078,18.1374318 55.1024078,16.9474318 55.3594078,15.7394318 C55.6274078,14.5404318 56.8164078,13.7764318 58.0154078,14.0454318 C59.2244078,14.3024318 59.9874078,15.4914318 59.7194078,16.7004318 C59.4924078,17.7404318 58.5704078,18.4534318 57.5494078,18.4534318 C57.3914078,18.4534318 57.2224078,18.4344318 57.0644078,18.3944318 Z M55.6274078,24.9244318 C54.4184078,24.6674318 53.6654078,23.4784318 53.9324078,22.2784318 C54.1904078,21.0704318 55.3794078,20.3064318 56.5884078,20.5744318 C57.7874078,20.8414318 58.5504078,22.0314318 58.2824078,23.2304318 C58.0544078,24.2704318 57.1334078,24.9844318 56.1124078,24.9844318 C55.9444078,24.9844318 55.7854078,24.9644318 55.6274078,24.9244318 Z M54.1904078,31.4654318 C52.9914078,31.1974318 52.2284078,30.0074318 52.4854078,28.8084318 C52.7534078,27.6004318 53.9424078,26.8474318 55.1514078,27.1044318 C56.3504078,27.3714318 57.1134078,28.5614318 56.8454078,29.7704318 C56.6174078,30.8114318 55.6964078,31.5144318 54.6664078,31.5144318 C54.5074078,31.5144318 54.3484078,31.5054318 54.1904078,31.4654318 L54.1904078,31.4654318 Z" id="Fill-18" fill="#71488B"></path>
                <path d="M43.8254078,3.48143183 C43.5774078,2.27343183 44.3504078,1.09343183 45.5594078,0.845431826 C46.7684078,0.597431826 47.9474078,1.38043183 48.1954078,2.58943183 C48.4424078,3.78843183 47.6604078,4.96743183 46.4514078,5.21543183 C46.3024078,5.24543183 46.1534078,5.26543183 46.0054078,5.26543183 C44.9644078,5.26543183 44.0434078,4.54243183 43.8254078,3.48143183 Z M45.1724078,10.0304318 C44.9254078,8.82243183 45.6984078,7.65343183 46.9074078,7.40543183 C48.1154078,7.15743183 49.2954078,7.93043183 49.5334078,9.13943183 C49.7804078,10.3484318 49.0074078,11.5174318 47.7984078,11.7644318 C47.6504078,11.7954318 47.5024078,11.8154318 47.3534078,11.8154318 C46.3124078,11.8154318 45.3804078,11.0914318 45.1724078,10.0304318 Z M46.5104078,16.5814318 C46.2634078,15.3824318 47.0454078,14.2034318 48.2544078,13.9554318 C49.4534078,13.7084318 50.6324078,14.4804318 50.8804078,15.6904318 C51.1284078,16.8984318 50.3554078,18.0774318 49.1464078,18.3244318 C48.9984078,18.3554318 48.8394078,18.3644318 48.6904078,18.3644318 C47.6604078,18.3644318 46.7284078,17.6414318 46.5104078,16.5814318 Z M47.8584078,23.1414318 C47.6104078,21.9324318 48.3834078,20.7534318 49.5924078,20.5054318 C50.8014078,20.2574318 51.9814078,21.0404318 52.2284078,22.2394318 C52.4764078,23.4474318 51.6934078,24.6274318 50.4944078,24.8754318 C50.3354078,24.9054318 50.1874078,24.9154318 50.0384078,24.9154318 C48.9984078,24.9154318 48.0764078,24.1914318 47.8584078,23.1414318 L47.8584078,23.1414318 Z" id="Fill-19" fill="#634E8F"></path>
                <path d="M29.6454078,3.53043183 C28.9224078,2.53043183 29.1494078,1.13243183 30.1604078,0.420431826 C31.1514078,-0.304568174 32.5484078,-0.0655681735 33.2624078,0.934431826 C33.9854078,1.93543183 33.7474078,3.32243183 32.7474078,4.03643183 C32.3604078,4.32343183 31.9044078,4.46343183 31.4594078,4.46343183 C30.7654078,4.46343183 30.0714078,4.13543183 29.6454078,3.53043183 Z M33.5294078,8.96143183 C32.8164078,7.96043183 33.0444078,6.57343183 34.0454078,5.84943183 C35.0454078,5.13643183 36.4424078,5.36343183 37.1564078,6.36543183 C37.8794078,7.37543183 37.6424078,8.76343183 36.6414078,9.47643183 C36.2544078,9.76343183 35.7984078,9.89243183 35.3534078,9.89243183 C34.6494078,9.89243183 33.9654078,9.57543183 33.5294078,8.96143183 Z M37.4244078,14.4014318 C36.7104078,13.4004318 36.9384078,12.0124318 37.9394078,11.2894318 C38.9404078,10.5764318 40.3374078,10.8044318 41.0504078,11.8044318 C41.7644078,12.8064318 41.5364078,14.2034318 40.5354078,14.9164318 C40.1494078,15.2044318 39.6924078,15.3324318 39.2374078,15.3324318 C38.5444078,15.3324318 37.8604078,15.0154318 37.4244078,14.4014318 Z M41.3184078,19.8414318 C40.6054078,18.8404318 40.8334078,17.4534318 41.8334078,16.7304318 C42.8344078,16.0164318 44.2314078,16.2444318 44.9454078,17.2454318 C45.6584078,18.2454318 45.4304078,19.6434318 44.4294078,20.3574318 C44.0434078,20.6334318 43.5874078,20.7734318 43.1314078,20.7734318 C42.4384078,20.7734318 41.7544078,20.4454318 41.3184078,19.8414318 L41.3184078,19.8414318 Z" id="Fill-20" fill="#585392"></path>
            </g>
        </g>
    </g>
</svg>