<?xml version="1.0" encoding="UTF-8"?> <svg xmlns="http://www.w3.org/2000/svg" viewBox="0 0 134.59 51.54"><defs><style>.cls-1{fill:#fff;opacity:0;}.cls-2{fill:#1a237e;}.cls-3{fill:#ed127d;}.cls-4{fill:#dc188d;}.cls-5{fill:#cc1d9d;}.cls-6{fill:#bb23ad;}.cls-7{fill:#ab29bd;}.cls-8{fill:#9a2ecc;}.cls-9{fill:#8934dc;}.cls-10{fill:#7939ec;}.cls-11{fill:#683ffc;}.cls-12{fill:#6551f3;}.cls-13{fill:#6163ea;}.cls-14{fill:#5e75e1;}.cls-15{fill:#5a87d9;}.cls-16{fill:#5798d0;}.cls-17{fill:#54aac7;}.cls-18{fill:#50bcbe;}.cls-19{fill:#4dceb5;}</style></defs><g id="Layer_2" data-name="Layer 2"><g id="Layer_1-2" data-name="Layer 1"><rect class="cls-1" width="134.59" height="51.54"></rect><path class="cls-2" d="M78.76,21.28c0-3.32-2.14-6.14-6.93-6.14H62v9.18H59.45v3.1H62v8.1h3.38v-8.1h3.77l6.17,8.1h4.21l-6.26-8.19A5.8,5.8,0,0,0,78.76,21.28Zm-13.38,3V18.24H71.7c2.31,0,3.69,1.07,3.69,3s-1.38,3-3.69,3Z"></path><path class="cls-2" d="M82.39,35.52H96.45v-3.1H85.77V26.86H96.24v-3.1H85.77V18.24H96.45v-3.1H82.39Z"></path><path class="cls-2" d="M101.47,35.52h14.06v-3.1H104.85V26.86h10.47v-3.1H104.85V18.24h10.68v-3.1H101.47Z"></path><path class="cls-2" d="M134.59,18.24v-3.1H120.53V35.52h3.37V26.86h10.47v-3.1H123.9V18.24Z"></path><path class="cls-3" d="M28.19,50.27a1.34,1.34,0,0,1,.2-1.91h0a1.35,1.35,0,0,1,1.91.19h0a1.36,1.36,0,0,1-.19,1.92h0a1.38,1.38,0,0,1-.86.31h0A1.37,1.37,0,0,1,28.19,50.27ZM26,47.63a1.35,1.35,0,0,1,.2-1.91h0a1.37,1.37,0,0,1,1.92.19h0a1.37,1.37,0,0,1-.2,1.92h0a1.35,1.35,0,0,1-.86.31h0A1.37,1.37,0,0,1,26,47.63ZM23.89,45a1.35,1.35,0,0,1,.2-1.91h0a1.35,1.35,0,0,1,1.91.19h0a1.36,1.36,0,0,1-.19,1.92h0a1.38,1.38,0,0,1-.86.31h0A1.37,1.37,0,0,1,23.89,45Zm-2.15-2.64a1.35,1.35,0,0,1,.2-1.91h0a1.35,1.35,0,0,1,1.91.19h0a1.36,1.36,0,0,1-.19,1.92h0a1.38,1.38,0,0,1-.86.31h0a1.37,1.37,0,0,1-1.06-.51Zm-2.15-2.64a1.36,1.36,0,0,1,.2-1.91h0A1.35,1.35,0,0,1,21.7,38h0a1.37,1.37,0,0,1-.2,1.92h0a1.35,1.35,0,0,1-.86.31h0a1.37,1.37,0,0,1-1.06-.51Z"></path><path class="cls-4" d="M36.62,47.75a1.32,1.32,0,0,1-.46-1.81h0A1.32,1.32,0,0,1,38,45.48h0a1.33,1.33,0,0,1,.46,1.81h0a1.33,1.33,0,0,1-1.14.65h0A1.3,1.3,0,0,1,36.62,47.75ZM33.69,46a1.32,1.32,0,0,1-.45-1.81h0a1.31,1.31,0,0,1,1.8-.45h0a1.31,1.31,0,0,1,.45,1.8h0a1.32,1.32,0,0,1-1.13.64h0a1.27,1.27,0,0,1-.68-.19Zm-2.92-1.74a1.33,1.33,0,0,1-.46-1.81h0A1.33,1.33,0,0,1,32.12,42h0a1.32,1.32,0,0,1,.46,1.81h0a1.33,1.33,0,0,1-1.13.65h0A1.34,1.34,0,0,1,30.77,44.26Zm-2.92-1.75a1.31,1.31,0,0,1-.46-1.8h0a1.32,1.32,0,0,1,1.81-.46h0a1.32,1.32,0,0,1,.46,1.81h0a1.32,1.32,0,0,1-1.14.64h0a1.33,1.33,0,0,1-.67-.19Zm-2.92-1.74A1.31,1.31,0,0,1,24.47,39h0a1.32,1.32,0,0,1,1.81-.46h0a1.32,1.32,0,0,1,.45,1.81h0A1.28,1.28,0,0,1,25.6,41h0a1.29,1.29,0,0,1-.67-.18Z"></path><path class="cls-5" d="M43.66,42.49a1.29,1.29,0,0,1-1-1.5h0a1.29,1.29,0,0,1,1.5-1h0a1.28,1.28,0,0,1,1,1.5h0a1.27,1.27,0,0,1-1.25,1h0Zm-3.35-.64a1.28,1.28,0,0,1-1-1.5h0a1.27,1.27,0,0,1,1.49-1h0a1.27,1.27,0,0,1,1,1.49h0a1.28,1.28,0,0,1-1.25,1h0l-.25,0ZM37,41.21a1.28,1.28,0,0,1-1-1.5h0a1.27,1.27,0,0,1,1.49-1h0a1.27,1.27,0,0,1,1,1.49h0a1.27,1.27,0,0,1-1.25,1h0l-.24,0Zm-3.34-.64a1.29,1.29,0,0,1-1-1.5h0a1.28,1.28,0,0,1,1.5-1h0a1.27,1.27,0,0,1,1,1.49h0a1.27,1.27,0,0,1-1.25,1h0l-.24,0Zm-3.35-.65a1.27,1.27,0,0,1-1-1.49h0a1.27,1.27,0,0,1,1.49-1h0a1.27,1.27,0,0,1,1,1.49h0a1.27,1.27,0,0,1-1.25,1h0l-.24,0Z"></path><path class="cls-6" d="M33.6,36.28a1.23,1.23,0,0,1,1-1.41h0a1.24,1.24,0,0,1,1.42,1h0a1.23,1.23,0,0,1-1,1.41h0l-.2,0h0A1.24,1.24,0,0,1,33.6,36.28ZM37,35.74a1.23,1.23,0,0,1,1-1.41h0a1.23,1.23,0,0,1,1.42,1h0a1.23,1.23,0,0,1-1,1.41h0l-.2,0h0A1.24,1.24,0,0,1,37,35.74Zm3.36-.54a1.25,1.25,0,0,1,1-1.42h0a1.24,1.24,0,0,1,1.41,1h0a1.23,1.23,0,0,1-1,1.41h0l-.2,0h0a1.24,1.24,0,0,1-1.22-1Zm3.37-.54a1.23,1.23,0,0,1,1-1.42h0a1.23,1.23,0,0,1,1.41,1h0a1.24,1.24,0,0,1-1,1.42h0l-.2,0h0a1.25,1.25,0,0,1-1.22-1Zm3.36-.54a1.24,1.24,0,0,1,1-1.42h0a1.23,1.23,0,0,1,1.41,1h0a1.24,1.24,0,0,1-1,1.42h-.2a1.23,1.23,0,0,1-1.21-1Z"></path><path class="cls-7" d="M36.93,32.77a1.19,1.19,0,0,1,.46-1.62h0A1.19,1.19,0,0,1,39,31.6h0a1.19,1.19,0,0,1-.46,1.62h0a1.17,1.17,0,0,1-.58.15h0A1.21,1.21,0,0,1,36.93,32.77Zm3-1.66a1.19,1.19,0,0,1,.46-1.62h0A1.2,1.2,0,0,1,42,30h0a1.2,1.2,0,0,1-.46,1.62h0a1.19,1.19,0,0,1-.58.15h0A1.19,1.19,0,0,1,39.9,31.11Zm3-1.66a1.18,1.18,0,0,1,.46-1.62h0a1.19,1.19,0,0,1,1.62.46h0a1.2,1.2,0,0,1-.46,1.62h0a1.19,1.19,0,0,1-.58.15h0A1.19,1.19,0,0,1,42.88,29.45Zm3-1.66a1.2,1.2,0,0,1,.46-1.62h0a1.18,1.18,0,0,1,1.62.46h0a1.19,1.19,0,0,1-.46,1.62h0a1.14,1.14,0,0,1-.58.15h0a1.19,1.19,0,0,1-1-.61Zm3-1.66a1.19,1.19,0,0,1,.47-1.62h0a1.2,1.2,0,0,1,1.62.46h0a1.19,1.19,0,0,1-.46,1.62h0a1.19,1.19,0,0,1-.58.15h0a1.2,1.2,0,0,1-1-.61Z"></path><path class="cls-8" d="M38.85,28.31a1.15,1.15,0,0,1-.12-1.62h0a1.15,1.15,0,0,1,1.62-.12h0a1.16,1.16,0,0,1,.12,1.63h0a1.16,1.16,0,0,1-.87.39h0A1.14,1.14,0,0,1,38.85,28.31Zm2.22-2.57A1.15,1.15,0,0,1,41,24.12h0A1.14,1.14,0,0,1,42.58,24h0a1.15,1.15,0,0,1,.12,1.62h0a1.13,1.13,0,0,1-.87.39h0A1.11,1.11,0,0,1,41.07,25.74Zm2.23-2.58a1.15,1.15,0,0,1-.12-1.62h0a1.14,1.14,0,0,1,1.62-.12h0A1.14,1.14,0,0,1,44.92,23h0a1.16,1.16,0,0,1-.87.39h0A1.15,1.15,0,0,1,43.3,23.16Zm2.23-2.58A1.14,1.14,0,0,1,45.41,19h0A1.15,1.15,0,0,1,47,18.84h0a1.15,1.15,0,0,1,.12,1.62h0a1.14,1.14,0,0,1-.87.4h0a1.19,1.19,0,0,1-.75-.27ZM47.76,18a1.14,1.14,0,0,1-.12-1.62h0a1.14,1.14,0,0,1,1.62-.12h0a1.15,1.15,0,0,1,.12,1.62h0a1.16,1.16,0,0,1-.87.39h0a1.08,1.08,0,0,1-.75-.27Z"></path><path class="cls-9" d="M39.11,23.46A1.09,1.09,0,0,1,38.47,22h0a1.11,1.11,0,0,1,1.43-.64h0a1.09,1.09,0,0,1,.64,1.42h0a1.1,1.1,0,0,1-1,.72h0A1.1,1.1,0,0,1,39.11,23.46Zm1.21-3.18a1.11,1.11,0,0,1-.64-1.42h0a1.12,1.12,0,0,1,1.43-.64h0a1.11,1.11,0,0,1,.64,1.43h0a1.09,1.09,0,0,1-1,.71h0a1.08,1.08,0,0,1-.4-.06Zm1.22-3.18a1.12,1.12,0,0,1-.65-1.43h0A1.09,1.09,0,0,1,42.32,15h0A1.11,1.11,0,0,1,43,16.46h0a1.09,1.09,0,0,1-1,.71h0a1,1,0,0,1-.39-.07Zm1.21-3.18a1.11,1.11,0,0,1-.64-1.43h0a1.1,1.1,0,0,1,1.43-.64h0a1.11,1.11,0,0,1,.64,1.43h0a1.12,1.12,0,0,1-1,.71h0a1,1,0,0,1-.39-.07ZM44,10.74a1.11,1.11,0,0,1-.64-1.43h0a1.11,1.11,0,0,1,1.43-.64h0a1.11,1.11,0,0,1,.64,1.42h0a1.12,1.12,0,0,1-1,.71h0a1.28,1.28,0,0,1-.39-.07Z"></path><path class="cls-10" d="M37.69,18.81a1.06,1.06,0,0,1-1-1.08h0a1.06,1.06,0,0,1,1.08-1.05h0a1.06,1.06,0,0,1,1.05,1.08h0a1.07,1.07,0,0,1-1.06,1.05h0Zm.05-3.4a1.06,1.06,0,0,1-1.05-1.08h0a1.06,1.06,0,0,1,1.08-1.05h0a1.06,1.06,0,0,1,1,1.08h0a1.06,1.06,0,0,1-1.06,1.05Zm0-3.4a1.07,1.07,0,0,1-1-1.09h0a1.06,1.06,0,0,1,1.08-1.05h0a1.07,1.07,0,0,1,1,1.08h0a1.06,1.06,0,0,1-1.06,1Zm.05-3.41a1.06,1.06,0,0,1-1.05-1.08h0a1.07,1.07,0,0,1,1.08-1h0a1.06,1.06,0,0,1,1,1.08h0a1.06,1.06,0,0,1-1.06,1h0Zm0-3.4a1.07,1.07,0,0,1-1-1.09h0a1.07,1.07,0,0,1,1.08-1h0a1.05,1.05,0,0,1,1,1.08h0a1.06,1.06,0,0,1-1.06,1h0Z"></path><path class="cls-11" d="M33.45,14.3A1,1,0,0,1,34.08,13h0a1,1,0,0,1,1.3.62h0a1,1,0,0,1-.63,1.3h0a1,1,0,0,1-.34.06h0A1,1,0,0,1,33.45,14.3Zm-1.12-3.21A1,1,0,0,1,33,9.79h0a1,1,0,0,1,1.3.63h0a1,1,0,0,1-.63,1.3h0a1,1,0,0,1-.34,0h0a1,1,0,0,1-1-.68ZM31.21,7.87a1,1,0,0,1,.63-1.3h0a1,1,0,0,1,1.3.63h0a1,1,0,0,1-.63,1.3h0a.92.92,0,0,1-.33.06h0a1,1,0,0,1-1-.69ZM30.1,4.66a1,1,0,0,1,.62-1.3h0A1,1,0,0,1,32,4h0a1,1,0,0,1-.63,1.29h0a1,1,0,0,1-.34.06h0a1,1,0,0,1-1-.68ZM29,1.44a1,1,0,0,1,.63-1.3h0a1,1,0,0,1,1.3.63h0a1,1,0,0,1-.63,1.3h0a1,1,0,0,1-.34.05h0a1,1,0,0,1-1-.68Z"></path><path class="cls-12" d="M29.27,12.16a1,1,0,0,1,.13-1.38h0a1,1,0,0,1,1.38.14h0a1,1,0,0,1-.14,1.38h0a1,1,0,0,1-.61.22h0A1,1,0,0,1,29.27,12.16ZM27.12,9.52a1,1,0,0,1,.13-1.38h0a1,1,0,0,1,1.37.14h0a1,1,0,0,1-.14,1.38h0a1,1,0,0,1-.62.22h0A1,1,0,0,1,27.12,9.52ZM25,6.88A1,1,0,0,1,25.1,5.5h0a1,1,0,0,1,1.38.14h0A1,1,0,0,1,26.35,7h0a1,1,0,0,1-.62.22h0A1,1,0,0,1,25,6.88ZM22.82,4.24A1,1,0,0,1,23,2.86h0A1,1,0,0,1,24.34,3h0a1,1,0,0,1-.14,1.38h0a1,1,0,0,1-.62.22h0a1,1,0,0,1-.76-.36ZM20.67,1.6A1,1,0,0,1,20.81.22h0a1,1,0,0,1,1.38.14h0a1,1,0,0,1-.14,1.38h0a1,1,0,0,1-.62.22h0A1,1,0,0,1,20.67,1.6Z"></path><path class="cls-13" d="M24.59,11.56a.93.93,0,0,1-.32-1.28h0A.94.94,0,0,1,25.55,10h0a.93.93,0,0,1,.32,1.28h0a.94.94,0,0,1-.8.46h0A.92.92,0,0,1,24.59,11.56ZM21.67,9.82a.94.94,0,0,1-.33-1.28h0a1,1,0,0,1,1.29-.33h0A.94.94,0,0,1,23,9.49h0a.94.94,0,0,1-.81.46h0a.88.88,0,0,1-.47-.13ZM18.75,8.07a.93.93,0,0,1-.33-1.28h0a.94.94,0,0,1,1.28-.32h0A.94.94,0,0,1,20,7.75h0a1,1,0,0,1-.81.46h0a.86.86,0,0,1-.47-.14ZM15.82,6.33a.94.94,0,0,1-.32-1.28h0a.94.94,0,0,1,1.28-.33h0A.93.93,0,0,1,17.1,6h0a.91.91,0,0,1-.8.46h0A1,1,0,0,1,15.82,6.33ZM12.9,4.58a.93.93,0,0,1-.32-1.28h0A.94.94,0,0,1,13.86,3h0a.94.94,0,0,1,.32,1.28h0a.93.93,0,0,1-.8.45h0A.89.89,0,0,1,12.9,4.58Z"></path><path class="cls-14" d="M20,12.6a.9.9,0,0,1-.71-1h0a.9.9,0,0,1,1.05-.71h0A.91.91,0,0,1,21,11.89h0a.9.9,0,0,1-.88.73h0ZM16.64,12a.88.88,0,0,1-.71-1.05h0a.89.89,0,0,1,1-.71h0a.89.89,0,0,1,.71,1.05h0a.91.91,0,0,1-.87.73h0l-.17,0Zm-3.35-.64a.9.9,0,0,1-.71-1.05h0a.9.9,0,0,1,1.05-.71h0a.9.9,0,0,1,.71,1h0a.88.88,0,0,1-.88.72h-.17ZM10,10.68a.9.9,0,0,1-.71-1h0a.89.89,0,0,1,1-.71h0A.88.88,0,0,1,11,10h0a.88.88,0,0,1-.87.72H10ZM6.6,10a.91.91,0,0,1-.71-1h0a.91.91,0,0,1,1.05-.71h0a.89.89,0,0,1,.71,1h0a.89.89,0,0,1-.88.72H6.6Z"></path><path class="cls-15" d="M1.57,16.61a.86.86,0,0,1,.7-1h0a.87.87,0,0,1,1,.71h0a.86.86,0,0,1-.71,1H2.41A.86.86,0,0,1,1.57,16.61Zm3.36-.54a.86.86,0,0,1,.71-1h0a.85.85,0,0,1,1,.71h0a.84.84,0,0,1-.7,1H5.77A.85.85,0,0,1,4.93,16.07Zm3.36-.54a.86.86,0,0,1,.71-1H9a.85.85,0,0,1,1,.71h0a.84.84,0,0,1-.7,1H9.13a.85.85,0,0,1-.84-.71ZM11.65,15a.86.86,0,0,1,.71-1h0a.85.85,0,0,1,1,.71h0a.84.84,0,0,1-.7,1h-.14a.86.86,0,0,1-.84-.71ZM15,14.44a.84.84,0,0,1,.7-1h0a.86.86,0,0,1,1,.7h0a.86.86,0,0,1-.71,1h-.14a.86.86,0,0,1-.84-.72Z"></path><path class="cls-16" d="M.1,25.24a.82.82,0,0,1,.31-1.1h0a.81.81,0,0,1,1.1.31h0a.82.82,0,0,1-.32,1.1h0a.76.76,0,0,1-.39.1h0A.84.84,0,0,1,.1,25.24Zm3-1.66a.81.81,0,0,1,.31-1.1h0a.81.81,0,0,1,1.1.31h0a.81.81,0,0,1-.31,1.1h0a.79.79,0,0,1-.4.1h0A.81.81,0,0,1,3.08,23.58Zm3-1.66a.81.81,0,0,1,.31-1.1h0a.81.81,0,0,1,1.1.31h0a.81.81,0,0,1-.31,1.1h0a.78.78,0,0,1-.39.1h0A.79.79,0,0,1,6.05,21.92Zm3-1.66a.82.82,0,0,1,.32-1.1h0a.79.79,0,0,1,1.09.31h0a.8.8,0,0,1-.31,1.1h0a.76.76,0,0,1-.39.1h0A.81.81,0,0,1,9,20.26Zm3-1.66a.81.81,0,0,1,.31-1.1h0a.81.81,0,0,1,1.1.31h0a.79.79,0,0,1-.31,1.09h0a.8.8,0,0,1-.4.11h0a.8.8,0,0,1-.7-.42Z"></path><path class="cls-17" d="M1.66,33.83a.77.77,0,0,1-.08-1.08h0a.76.76,0,0,1,1.08-.08h0a.76.76,0,0,1,.08,1.08h0a.8.8,0,0,1-.58.26h0A.78.78,0,0,1,1.66,33.83Zm2.23-2.57a.77.77,0,0,1-.08-1.08h0a.78.78,0,0,1,1.09-.08h0A.76.76,0,0,1,5,31.18H5a.78.78,0,0,1-.58.27h0A.78.78,0,0,1,3.89,31.26Zm2.23-2.58A.76.76,0,0,1,6,27.6H6a.76.76,0,0,1,1.08-.08h0a.77.77,0,0,1,.08,1.08h0a.74.74,0,0,1-.58.26h0a.78.78,0,0,1-.5-.19Zm2.23-2.57A.76.76,0,0,1,8.27,25h0a.77.77,0,0,1,1.08-.08h0A.76.76,0,0,1,9.43,26h0a.76.76,0,0,1-.58.27h0a.78.78,0,0,1-.5-.19Zm2.22-2.58a.77.77,0,0,1-.08-1.08h0a.76.76,0,0,1,1.08-.08h0a.76.76,0,0,1,.08,1.08h0a.78.78,0,0,1-.58.27h0a.78.78,0,0,1-.51-.19Z"></path><path class="cls-18" d="M6.06,41.37a.73.73,0,0,1-.42-.93h0A.72.72,0,0,1,6.58,40h0A.73.73,0,0,1,7,41H7a.74.74,0,0,1-.68.47h0A.75.75,0,0,1,6.06,41.37Zm1.21-3.18a.74.74,0,0,1-.42-.94h0a.73.73,0,0,1,.93-.42h0a.74.74,0,0,1,.42.94h0a.75.75,0,0,1-.68.47h0A.8.8,0,0,1,7.27,38.19ZM8.49,35a.73.73,0,0,1-.42-.94h0A.73.73,0,0,1,9,33.65H9a.73.73,0,0,1,.42.94h0a.73.73,0,0,1-.68.46h0a.73.73,0,0,1-.25,0ZM9.7,31.82a.72.72,0,0,1-.42-.93h0a.73.73,0,0,1,.93-.42h0a.72.72,0,0,1,.42.93h0a.72.72,0,0,1-.67.47h0a.75.75,0,0,1-.26-.05Zm1.21-3.18a.73.73,0,0,1-.42-.93h0a.72.72,0,0,1,.93-.42h0a.71.71,0,0,1,.42.93h0a.71.71,0,0,1-.67.47h0a.75.75,0,0,1-.26-.05Z"></path><path class="cls-19" d="M12.76,46.94a.67.67,0,0,1-.67-.69h0a.68.68,0,0,1,.68-.67h0a.7.7,0,0,1,.68.69h0a.69.69,0,0,1-.68.67Zm.05-3.4a.67.67,0,0,1-.67-.69h0a.67.67,0,0,1,.69-.67h0a.69.69,0,0,1,.67.69h0a.69.69,0,0,1-.69.67h0Zm0-3.41a.67.67,0,0,1-.67-.68h0a.68.68,0,0,1,.69-.68h0a.69.69,0,0,1,.67.69h0a.68.68,0,0,1-.69.67h0Zm.05-3.4a.67.67,0,0,1-.67-.69h0a.68.68,0,0,1,.69-.67h0a.69.69,0,0,1,.67.69h0a.69.69,0,0,1-.68.67Zm.05-3.4a.68.68,0,0,1-.67-.69h0A.67.67,0,0,1,13,32h0a.68.68,0,0,1,.67.69h0a.69.69,0,0,1-.68.67Z"></path></g></g></svg> 