<?xml version="1.0" encoding="UTF-8"?>
<svg width="85px" height="32px" viewBox="0 0 85 32" version="1.1" xmlns="http://www.w3.org/2000/svg" xmlns:xlink="http://www.w3.org/1999/xlink">
    <title>B684B875-40CA-49C8-9362-34DF5D908C31</title>
    <g id="HF_Invite_Users" stroke="none" stroke-width="1" fill="none" fill-rule="evenodd">
        <g id="HF_Invite_Users_01_00" transform="translate(-25.000000, -14.000000)" fill-rule="nonzero">
            <g id="REEF-KITCHENS_HORIZONTAL_WHITE-TEXT-1" transform="translate(25.000000, 14.000000)">
                <path d="M50.4957159,13.0890302 C50.4957159,11.0816599 49.1668605,9.368927 46.206927,9.368927 L40.1322289,9.368927 L40.1322289,14.9342018 L38.5528027,14.9342018 L38.5528027,16.8091438 L40.1291827,16.8091438 L40.1291827,21.7196883 L42.2173663,21.7196883 L42.2173663,16.8091438 L44.5515721,16.8091438 L48.3695265,21.7196883 L50.9664364,21.7196883 L47.0938357,16.7540831 C49.4477593,16.4579696 50.4957159,14.8746818 50.4957159,13.0890302 Z M42.2219253,14.9297425 L42.2219253,11.2513012 L46.1309983,11.2513012 C47.5539979,11.2513012 48.409014,11.9015722 48.409014,13.0920135 C48.409014,14.2824444 47.5539979,14.9327154 46.1309983,14.9327154 L42.2219253,14.9297425 Z" id="Vector" fill="#FFFFFF"></path>
                <path d="M52.7325849,21.7208961 L61.4254974,21.7208961 L61.4254974,19.8430112 L54.8207689,19.8430112 L54.8207689,16.4770429 L61.2918555,16.4770429 L61.2918555,14.5991271 L54.8207689,14.5991271 L54.8207689,11.2510272 L61.4254974,11.2510272 L61.4254974,9.37312169 L52.7325849,9.37312169 L52.7325849,21.7208961 Z" id="Vector" fill="#FFFFFF"></path>
                <path d="M64.526445,21.7208961 L73.2178475,21.7208961 L73.2178475,19.8430112 L66.6131168,19.8430112 L66.6131168,16.4770429 L73.0857287,16.4770429 L73.0857287,14.5991271 L66.6131168,14.5991271 L66.6131168,11.2510272 L73.2178475,11.2510272 L73.2178475,9.37312169 L64.526445,9.37312169 L64.526445,21.7208961 Z" id="Vector" fill="#FFFFFF"></path>
                <path d="M85.0002134,11.2510272 L85.0002134,9.37312169 L76.3073168,9.37312169 L76.3073168,21.7208961 L78.3954891,21.7208961 L78.3954891,16.4770429 L84.8665612,16.4770429 L84.8665612,14.5991271 L78.3954891,14.5991271 L78.3954891,11.2510272 L85.0002134,11.2510272 Z" id="Vector" fill="#FFFFFF"></path>
                <path d="M15.0515669,8.43399826 C14.826682,8.30431568 14.6634686,8.09253762 14.5977045,7.84511568 C14.5319404,7.59768343 14.5689929,7.33480859 14.700749,7.11411181 L14.700749,7.11411181 C14.8333963,6.89366278 15.0498054,6.73370407 15.3025729,6.66928085 C15.5553404,6.60485762 15.8238676,6.64120343 16.0493326,6.77036988 L16.0493326,6.77036988 C16.1609151,6.83457633 16.2584784,6.91970665 16.336438,7.02089891 C16.4143975,7.12208085 16.4712196,7.23734278 16.5036717,7.36007826 C16.5361134,7.48281375 16.5435322,7.61061762 16.5255136,7.73617117 C16.5074847,7.86171439 16.4643707,7.98255052 16.3986273,8.0917531 L16.3986273,8.0917531 C16.3118917,8.23685762 16.1878755,8.3571673 16.0389298,8.44070794 C15.889984,8.52424859 15.72131,8.56810923 15.5496934,8.56792401 L15.5496934,8.56792401 C15.3743984,8.56783052 15.202357,8.52157504 15.0515669,8.43399826 Z M12.5047442,6.96828472 C12.2798076,6.83862278 12.1166459,6.62673117 12.0511408,6.37920601 C11.9856358,6.13169117 12.0231546,5.86880601 12.1554495,5.64838794 L12.1554495,5.64838794 C12.220851,5.53913375 12.3075659,5.44357762 12.4106623,5.36716988 C12.5137587,5.29076214 12.631216,5.23500988 12.7563098,5.20308214 C12.8814035,5.17116472 13.0116883,5.16370149 13.1397247,5.18112601 C13.2677611,5.19856085 13.3910416,5.24053246 13.50251,5.30464601 L13.50251,5.30464601 C13.7273948,5.43433891 13.8906083,5.64611697 13.9563724,5.89353891 C14.0221365,6.14097117 13.985084,6.40384601 13.8533278,6.62454278 C13.7663539,6.76944085 13.6422963,6.88959568 13.4934023,6.97310536 C13.3445083,7.05661504 13.1759483,7.10060988 13.0043835,7.10071952 L13.0043835,7.10071952 C12.8287259,7.10134278 12.6561353,7.0555931 12.5047442,6.96828472 L12.5047442,6.96828472 Z M9.95792157,5.49957762 C9.84650494,5.43580472 9.74903482,5.3510873 9.67113747,5.25029762 C9.59322976,5.14950794 9.53640759,5.03462794 9.50395554,4.91225375 C9.47149313,4.78987956 9.46403289,4.66242665 9.48199964,4.53722407 C9.49996638,4.41202149 9.54299747,4.29152601 9.60862687,4.18266407 L9.60862687,4.18266407 C9.74048663,3.96181246 9.95639843,3.80126536 10.2089587,3.73625375 C10.4615189,3.67125246 10.7300876,3.70710278 10.9556977,3.83594923 L10.9556977,3.83594923 C11.0682334,3.89941246 11.1668433,3.98406794 11.2458389,4.08504343 C11.3248346,4.18600859 11.3826618,4.30130149 11.4159739,4.42427439 C11.4492963,4.54723697 11.4574404,4.67545375 11.4399606,4.80152343 C11.4224705,4.9275931 11.3796984,5.04902794 11.3141001,5.15881891 L11.3141001,5.15881891 C11.2278307,5.30432601 11.1039182,5.42496601 10.9548688,5.50856859 C10.8058194,5.59217117 10.6369071,5.63578407 10.4651661,5.63500996 C10.286742,5.63531956 10.1115196,5.58853762 9.95792157,5.49957762 L9.95792157,5.49957762 Z M7.41110513,4.03980988 C7.18616954,3.91015826 7.02300744,3.69825633 6.95750352,3.45074149 C6.8919995,3.20321736 6.92951878,2.94033736 7.0618094,2.71991826 L7.0618094,2.71991826 C7.12693626,2.61039362 7.21349578,2.51454846 7.31651964,2.43788368 C7.41954453,2.36121788 7.53700602,2.30524141 7.66216296,2.27316596 C7.78732094,2.24109058 7.91771145,2.23354817 8.04585145,2.25097057 C8.17399145,2.268393 8.29735482,2.31043749 8.40887506,2.37469194 L8.40887506,2.37469194 C8.63417434,2.50438897 8.79767795,2.71643749 8.86346277,2.96422278 C8.92924759,3.21200704 8.89192566,3.4752473 8.75969289,3.69607826 L8.75969289,3.69607826 C8.67241843,3.84059439 8.54824687,3.9603673 8.39939434,4.04359826 C8.25054181,4.12682923 8.08213723,4.17065891 7.91074959,4.17078081 L7.91074959,4.17078081 C7.73522566,4.17183568 7.56264335,4.12660214 7.41110513,4.03980988 L7.41110513,4.03980988 Z" id="Vector" fill="#5887DA"></path>
                <path d="M12.0413471,9.5801958 C11.9126994,9.56667322 11.7880512,9.52838677 11.6745519,9.46754548 C11.5610527,9.40670419 11.46093,9.32449516 11.3799346,9.2256358 C11.2989392,9.12678677 11.2386666,9.01322806 11.2025777,8.89149387 C11.1664888,8.76974935 11.1552881,8.64223451 11.1696283,8.51624741 L11.1696283,8.51624741 C11.1989927,8.2615687 11.330324,8.02872225 11.534776,7.86885645 C11.7392281,7.70898754 12.0000775,7.63516251 12.2600358,7.66359606 L12.2600358,7.66359606 C12.5189994,7.69309903 12.7554787,7.82193 12.9177389,8.02189903 C13.0799992,8.22185774 13.1547052,8.47666032 13.1256931,8.73052354 L13.1256931,8.73052354 C13.0997895,8.9661158 12.9859172,9.18400483 12.8059389,9.34225 C12.6258984,9.50048483 12.3925276,9.58789645 12.1506915,9.58763895 C12.115763,9.58763895 12.0732397,9.5831687 12.0413471,9.5801958 Z M9.10422953,9.25878161 C8.84568037,9.22963064 8.60943941,9.10132096 8.44721025,8.90191967 C8.2849811,8.7025287 8.20996423,8.44828354 8.23858254,8.1948229 L8.23858254,8.1948229 C8.25199025,8.06882548 8.29076278,7.94667838 8.35266206,7.83545258 C8.41456134,7.72422677 8.49835435,7.62612716 8.59919194,7.54683529 C8.70002953,7.46754238 8.81591194,7.40862832 8.94013531,7.37349954 C9.06435869,7.33837077 9.19446736,7.32772406 9.3229182,7.34217774 L9.3229182,7.34217774 C9.58281435,7.37060406 9.82058881,7.49892096 9.98401989,7.69895606 C10.1474613,7.89898806 10.2232035,8.15439967 10.194637,8.40910935 L10.194637,8.40910935 C10.1667233,8.64494935 10.0513797,8.8625287 9.87052061,9.02053645 C9.68966158,9.17854419 9.45587628,9.26597645 9.21357387,9.26621387 L9.21357387,9.26621387 C9.17863507,9.26621387 9.14370664,9.26175451 9.10422953,9.25878161 Z M6.16862471,8.93587064 C6.04023604,8.9216358 5.91597122,8.88273 5.80294857,8.8213829 C5.68991555,8.76002548 5.59035242,8.67743451 5.5099476,8.57833774 C5.42954278,8.47923064 5.36987122,8.3655687 5.33436254,8.24383451 C5.29884351,8.12211064 5.28818158,7.99471967 5.30297772,7.86894935 L5.30297772,7.86894935 C5.31733869,7.7434887 5.35676399,7.62203116 5.41902592,7.51150832 C5.4812982,7.40098445 5.56516375,7.30356096 5.66585628,7.22479864 C5.76654881,7.14603632 5.88208929,7.08747838 6.00587748,7.05247038 C6.12966567,7.01746135 6.259277,7.00668664 6.38731339,7.02076148 C6.51610616,7.03445129 6.64086833,7.0729607 6.75440905,7.13407451 C6.86796013,7.19518729 6.96804134,7.27769877 7.04892278,7.37685851 C7.12979387,7.47601825 7.18986953,7.58987116 7.22566833,7.71186341 C7.26145676,7.83385258 7.27228447,7.96158419 7.25751941,8.08768483 C7.23027917,8.32234806 7.11582664,8.53896741 6.93600375,8.69623193 C6.75618086,8.85349645 6.52355604,8.94039193 6.28252808,8.94034032 C6.24450158,8.94108354 6.20646471,8.93958677 6.16862471,8.93587064 L6.16862471,8.93587064 Z M3.23757996,8.61445645 C3.10873124,8.60075838 2.98391416,8.56225516 2.87029365,8.50116612 C2.75667211,8.44006677 2.65648729,8.35757903 2.5754898,8.25845129 C2.49449126,8.15931322 2.43427707,8.0454758 2.39830275,7.92347322 C2.36232843,7.80148096 2.35130316,7.67371529 2.36585988,7.54752896 L2.36585988,7.54752896 C2.39597288,7.29339219 2.52762095,7.06129825 2.73198493,6.90205283 C2.9363489,6.742807 3.19678073,6.66938403 3.4562676,6.69785634 L3.4562676,6.69785634 C3.58490495,6.71137887 3.70955314,6.74966068 3.82306278,6.81050496 C3.93656206,6.87134935 4.03668471,6.95355838 4.11768013,7.05241361 C4.19867555,7.1512678 4.25894808,7.26482238 4.295037,7.38655967 C4.33112592,7.50829593 4.34232664,7.635818 4.3279864,7.76180096 L4.3279864,7.76180096 C4.30276664,7.99924096 4.18840736,8.21901903 4.00712351,8.3785029 C3.82583965,8.53798677 3.59055194,8.62578032 3.3469243,8.62487891 L3.3469243,8.62487891 C3.31028416,8.62373645 3.27375799,8.62025774 3.23757996,8.61445645 L3.23757996,8.61445645 Z" id="Vector" fill="#4197CB"></path>
                <path d="M0.075565912,13.8329657 C-0.00228377471,13.589456 0.0212310291,13.3256624 0.14098777,13.0990611 C0.260744324,12.8724598 0.467038637,12.7014147 0.714928975,12.6231798 L0.714928975,12.6231798 C0.963847167,12.545585 1.23402497,12.5679747 1.46610064,12.6854457 C1.6981763,12.8029063 1.87318112,13.0058379 1.95265341,13.2496469 L1.95265341,13.2496469 C2.0314004,13.4929605 2.00848088,13.7569295 1.88890979,13.9837063 C1.76934907,14.2104831 1.56289726,14.3815592 1.31480281,14.4594327 L1.31480281,14.4594327 C1.21695967,14.4915463 1.11424666,14.5071437 1.01107049,14.505554 L1.01107049,14.505554 C0.802404445,14.5055024 0.599192661,14.4402534 0.430958011,14.3193037 C0.26272336,14.1983437 0.138230589,14.0279798 0.075565912,13.8329657 L0.075565912,13.8329657 Z M2.88967003,12.9579927 C2.850711,12.8369502 2.83660907,12.7095489 2.84816208,12.5831386 C2.8597151,12.4567179 2.8966951,12.3337966 2.95698835,12.2214663 C3.0172816,12.109136 3.09967582,12.0096057 3.1994151,11.9286353 C3.29916473,11.847665 3.41429076,11.7868547 3.53815148,11.7497037 L3.53815148,11.7497037 C3.66106931,11.7104676 3.79071172,11.6955411 3.91956666,11.7057915 C4.0484216,11.7160418 4.17391943,11.7512521 4.28877606,11.8093889 C4.40363269,11.8675257 4.50556859,11.9474327 4.58865702,12.0444753 C4.67174546,12.1415076 4.73434931,12.253745 4.77283172,12.374674 L4.77283172,12.374674 C4.81220522,12.4952418 4.82689775,12.6222302 4.81604931,12.7483721 C4.80521124,12.8745037 4.76903943,12.9973011 4.70963726,13.1097037 C4.6502351,13.2221166 4.56875269,13.3219153 4.46987341,13.4033915 C4.37100449,13.4848573 4.2566763,13.5463902 4.13346835,13.5844598 L4.13346835,13.5844598 C4.03577028,13.6173373 3.93301582,13.6334508 3.82973293,13.6320779 L3.82973293,13.6320779 C3.62079437,13.630385 3.41780329,13.5637734 3.24995823,13.4418327 C3.08212353,13.3199024 2.95809702,13.1489295 2.8957522,12.9535231 L2.88967003,12.9579927 Z M5.70681244,12.0830198 C5.62761991,11.8391282 5.65047726,11.5743953 5.77035919,11.3469992 C5.89024112,11.1196031 6.0973457,10.9481347 6.34617582,10.8702663 L6.34617582,10.8702663 C6.59570016,10.7932702 6.86621678,10.8164712 7.09829244,10.9347721 C7.33036811,11.053074 7.50502064,11.2568005 7.58390232,11.5011979 L7.58390232,11.5011979 C7.6229857,11.6218586 7.63735702,11.7488882 7.62619775,11.8750095 C7.61504883,12.0011205 7.57857654,12.1238353 7.51888425,12.2361037 C7.45919196,12.3483721 7.37746088,12.447985 7.27838473,12.5292237 C7.17929823,12.6104624 7.06481461,12.6717166 6.94150305,12.7094869 L6.94150305,12.7094869 C6.8439604,12.7429734 6.74110232,12.7590973 6.63776763,12.757105 L6.63776763,12.757105 C6.4302175,12.7542147 6.22893606,12.6870044 6.06277991,12.565105 C5.89663413,12.4432057 5.77414112,12.2728831 5.71289461,12.0785605 L5.70681244,12.0830198 Z M8.52091895,11.2095437 C8.44272112,10.96485 8.46654208,10.6997734 8.58720112,10.4722462 C8.70786016,10.2447179 8.91553461,10.0732423 9.16484136,9.99529659 L9.16484136,9.99529659 C9.2880804,9.95646628 9.4179404,9.94187982 9.54695076,9.95237593 C9.67596112,9.96287202 9.80158329,9.99824359 9.91659534,10.0564578 C10.0316074,10.114672 10.1337505,10.1945832 10.2171498,10.2915969 C10.3005491,10.3886095 10.363557,10.5008139 10.4025471,10.6217626 L10.4025471,10.6217626 C10.4417134,10.7421342 10.456323,10.8688924 10.4454435,10.9947927 C10.434564,11.1206869 10.3985062,11.2432469 10.3392802,11.3554637 C10.2800438,11.4676908 10.1987997,11.5673657 10.1002105,11.6488005 C10.0016214,11.7302353 9.88762473,11.7918302 9.76471726,11.8300547 C9.6663975,11.8604134 9.56406787,11.876465 9.46098184,11.8776727 L9.46098184,11.8776727 C9.25281003,11.8763824 9.05037847,11.8106379 8.88263702,11.6898327 C8.71488522,11.5690379 8.59041317,11.3993657 8.52700112,11.205074 L8.52091895,11.2095437 Z" id="Vector" fill="#42A7C6"></path>
                <path d="M0.602856199,20.4787039 C0.42980762,20.286869 0.341161722,20.0357826 0.356238858,19.7801852 C0.371316016,19.5245878 0.488893765,19.2851865 0.683345982,19.114162 L0.683345982,19.114162 C0.879263307,18.9450574 1.13549564,18.8587607 1.3961202,18.8740897 C1.65674164,18.8894187 1.90059827,19.0051452 2.07445297,19.1960097 L2.07445297,19.1960097 C2.24741658,19.3878032 2.33574791,19.6389516 2.32009177,19.8944355 C2.30443562,20.1499297 2.18606646,20.3889181 1.99092936,20.5590549 L1.99092936,20.5590549 C1.81035008,20.7164123 1.57650261,20.8023374 1.33485815,20.8001181 C1.19655875,20.8004794 1.05976487,20.7719994 0.933559355,20.7165878 C0.807353837,20.6611658 0.694623379,20.580082 0.602856199,20.4787039 L0.602856199,20.4787039 Z M2.80949393,18.5576407 C2.72347321,18.4628381 2.65738791,18.3523452 2.61501996,18.2324897 C2.57265201,18.1126239 2.55484068,17.985749 2.5626014,17.8591323 C2.57035177,17.7325155 2.60353948,17.6086342 2.66023731,17.4946007 C2.71693514,17.3805671 2.79604478,17.2786213 2.89301755,17.1945852 L2.89301755,17.1945852 C2.98928574,17.1103426 3.10160381,17.0455787 3.22350622,17.0039994 C3.34540863,16.9624303 3.47449152,16.9448716 3.60334646,16.9523349 C3.73219104,16.9597981 3.85826911,16.992149 3.97431731,17.047509 C4.0903655,17.1028794 4.1941043,17.1801645 4.2795655,17.2749465 C4.36587634,17.3693155 4.43223104,17.479509 4.4747855,17.5991684 C4.51733996,17.7188278 4.53524454,17.8455684 4.52748381,17.9720613 C4.51971273,18.0985439 4.4864214,18.2222703 4.4295267,18.3360665 C4.37264237,18.4498626 4.29327369,18.5514678 4.19604189,18.6350187 L4.19604189,18.6350187 C4.01701683,18.7922936 3.78498261,18.8792097 3.5445349,18.8790669 L3.5445349,18.8790669 C3.40573297,18.8797361 3.26839201,18.8514316 3.14164044,18.7959994 C3.01488887,18.7405774 2.90165899,18.6593181 2.80949393,18.5576407 Z M5.0191655,16.6365774 C4.93286502,16.5420639 4.86644815,16.4317981 4.82370719,16.3120974 C4.78095586,16.1923968 4.76273008,16.0656149 4.77006598,15.9389981 C4.77740189,15.8123916 4.81015442,15.6884381 4.86645851,15.5742497 C4.92275225,15.460051 5.00147851,15.3578574 5.09814044,15.273522 L5.09814044,15.273522 C5.19488526,15.1892381 5.30764887,15.1244845 5.42998646,15.0829774 C5.55231369,15.04146 5.68180068,15.0240045 5.81101827,15.0316123 C5.94024622,15.0392097 6.06667658,15.0717258 6.18305634,15.127282 C6.2994361,15.1828381 6.40348574,15.2603503 6.48924743,15.3553697 L6.48924743,15.3553697 C6.57513345,15.4497903 6.6411255,15.559922 6.68343128,15.6794161 C6.72573707,15.7989103 6.74351731,15.9254239 6.73575658,16.0516794 C6.72799586,16.1779245 6.69483923,16.3014342 6.63820357,16.4150858 C6.58155755,16.5287478 6.50255152,16.6303116 6.40571345,16.7139555 C6.22754839,16.8706729 5.99667466,16.9575581 5.75724237,16.9579916 C5.61861658,16.9576407 5.48159683,16.9288716 5.35500068,16.8735116 C5.2284149,16.8181516 5.11505032,16.7374394 5.0222014,16.6365774 L5.0191655,16.6365774 Z M7.2273243,14.7110445 C7.05461972,14.5199942 6.96641273,14.2695684 6.98206887,14.0148143 C6.99773538,13.7600592 7.11599056,13.5218213 7.31084791,13.3524629 L7.31084791,13.3524629 C7.40759273,13.268178 7.5203667,13.2034243 7.64269393,13.1619122 C7.76502116,13.1204001 7.89450815,13.1029458 8.0237361,13.1105484 C8.15296405,13.1181511 8.27938405,13.1506618 8.39576381,13.2062179 C8.51214357,13.2617738 8.61619321,13.339283 8.7019549,13.4343065 L8.7019549,13.4343065 C8.78774767,13.528724 8.85368791,13.6387968 8.89600405,13.7582187 C8.9383202,13.8776417 8.95618333,14.0040706 8.94856767,14.1302662 C8.94095201,14.2564587 8.90800261,14.3799478 8.85161562,14.493651 C8.79522863,14.6073542 8.71650237,14.709042 8.61994405,14.7928923 L8.61994405,14.7928923 C8.4389814,14.950931 8.20477128,15.0378471 7.96236526,15.0369356 L7.96236526,15.0369356 C7.82334574,15.0362987 7.6860255,15.0069516 7.55936719,14.9507968 C7.43271923,14.894642 7.31957225,14.812949 7.2273243,14.7110445 L7.2273243,14.7110445 Z" id="Vector" fill="#57B6B2"></path>
                <path d="M3.84024901,26.3428755 C3.72218137,26.290922 3.61573306,26.216651 3.52700074,26.1243258 C3.43826947,26.0320007 3.36899595,25.9234278 3.32314852,25.8048316 C3.27730109,25.6862355 3.25577998,25.5599491 3.25981771,25.4331878 C3.26385544,25.3064368 3.29337273,25.1816987 3.34667915,25.0661374 L3.34667915,25.0661374 C3.45496797,24.8335697 3.65281667,24.65246 3.89698103,24.5623955 C4.14114643,24.472331 4.41176978,24.4806407 4.64969966,24.5854974 L4.64969966,24.5854974 C4.7680999,24.6372549 4.87483315,24.7115155 4.96371363,24.8039955 C5.05259412,24.8964652 5.12186038,25.0053065 5.16748183,25.1242123 C5.21311363,25.2431078 5.23419918,25.3697039 5.22952616,25.4966407 C5.22484279,25.6235878 5.19449412,25.7483671 5.14023122,25.8637323 L5.14023122,25.8637323 C5.06242713,26.0329091 4.93623508,26.176362 4.77694857,26.2767181 C4.61765171,26.3770742 4.43207821,26.4300291 4.24269792,26.4291826 C4.10365354,26.4302252 3.96613747,26.4007336 3.84024901,26.3428755 L3.84024901,26.3428755 Z M5.05519484,23.7060652 C4.81783484,23.5999594 4.63299701,23.4061013 4.54108062,23.1668652 C4.44915388,22.9276291 4.4576399,22.6624626 4.56465291,22.4293271 L4.56465291,22.4293271 C4.67325122,22.1966458 4.87138279,22.0155155 5.11578857,21.9254716 C5.36020472,21.8354174 5.63105291,21.8437684 5.86920038,21.9486871 L5.86920038,21.9486871 C5.98718616,22.0009091 6.09350496,22.0754381 6.18204351,22.1679904 C6.27059243,22.2605529 6.33962038,22.3693116 6.38519002,22.4880523 C6.43075966,22.6068033 6.45196954,22.7331826 6.44759701,22.8599749 C6.44323484,22.9867568 6.41337315,23.1114536 6.35973195,23.226922 L6.35973195,23.226922 C6.28192785,23.3960987 6.1557358,23.5395413 5.99643894,23.6399078 C5.83714207,23.7402639 5.65157894,23.7932187 5.46219243,23.7923896 L5.46219243,23.7923896 C5.32219894,23.7932084 5.18373894,23.7637374 5.05670761,23.7060652 L5.05519484,23.7060652 Z M6.27012616,21.0692549 C6.15262737,21.017322 6.04672303,20.9432058 5.95846424,20.8511387 C5.87020544,20.759082 5.80133291,20.6508807 5.75577363,20.5327181 C5.71022472,20.4145658 5.68888014,20.2887749 5.69296255,20.1625297 C5.69705532,20.0362845 5.72649219,19.9120729 5.7795946,19.7969762 C5.83258303,19.6811052 5.9084599,19.5766613 6.00287339,19.4896833 C6.09727653,19.4027052 6.2083305,19.3349168 6.32962159,19.2902304 C6.45092303,19.2455439 6.58004737,19.2248368 6.70954472,19.2293168 C6.83905243,19.2337968 6.96636351,19.2633813 7.08414207,19.3163362 C7.32156424,19.4215336 7.50661966,19.6148239 7.59860857,19.8536884 C7.69059749,20.0925633 7.68198713,20.357451 7.57467363,20.5901013 C7.49738761,20.7600007 7.37144424,20.9042794 7.21213701,21.0054407 C7.05281942,21.106602 6.86697653,21.1603 6.67713412,21.1600224 L6.67713412,21.1600224 C6.53885026,21.1585452 6.4025558,21.1275774 6.2777211,21.0692549 L6.27012616,21.0692549 Z M7.48506785,18.4369039 C7.24771821,18.3308084 7.06288038,18.1369504 6.97095363,17.8977039 C6.87903725,17.6584678 6.88752327,17.3933003 6.99453629,17.1601669 L6.99453629,17.1601669 C7.10282375,16.9272193 7.3009346,16.7458278 7.54545436,16.6557362 C7.78998448,16.5656448 8.06098809,16.5742009 8.29908375,16.6795296 L8.29908375,16.6795296 C8.53654737,16.7859341 8.72140592,16.9800657 8.81331195,17.2195465 C8.90521797,17.4590283 8.89670086,17.7244084 8.78961532,17.9577607 L8.78961532,17.9577607 C8.71073363,18.1261426 8.58428255,18.2688833 8.42523436,18.3690845 C8.2661758,18.4692858 8.08117219,18.5227774 7.8920758,18.523211 L7.8920758,18.523211 C7.75640303,18.5204342 7.62266785,18.4910871 7.49874496,18.4369039 L7.48506785,18.4369039 Z" id="Vector" fill="#45C2B1"></path>
                <path d="M9.23158926,30.4126793 C9.10216859,30.4123697 8.97410112,30.3868729 8.85474245,30.3378406 C8.73538377,30.2888084 8.6270849,30.2171697 8.53606582,30.1270535 C8.44504673,30.0369168 8.37309996,29.9300368 8.32435889,29.8125555 C8.27561762,29.6950845 8.25104161,29.5693348 8.25204238,29.4425219 C8.25243565,29.3154613 8.27849458,29.1897426 8.32871661,29.0725916 C8.37893864,28.9554406 8.45233083,28.8491903 8.54466064,28.7599722 C8.63699045,28.6707439 8.74643218,28.6003129 8.86667572,28.5527361 C8.98691926,28.5051593 9.11558563,28.4813658 9.24525705,28.4827387 C9.37467565,28.483709 9.50262914,28.5097219 9.62176505,28.559291 C9.74090095,28.6088497 9.84886722,28.6809942 9.93945734,28.7715542 C10.0300578,28.8621245 10.1015,28.9693348 10.1496807,29.0870329 C10.1978718,29.204731 10.2218482,29.3306045 10.2202525,29.4574071 L10.2202525,29.4574071 C10.2182528,29.7110845 10.1143171,29.9537684 9.93096095,30.1328342 C9.74760481,30.311931 9.4996036,30.4130922 9.24070112,30.4142277 L9.23158926,30.4142277 L9.23158926,30.4126793 Z M9.24829399,27.5229659 C9.11886917,27.5215929 8.99099235,27.4951981 8.87200979,27.4452781 C8.75302724,27.3953477 8.64528478,27.3228832 8.55496924,27.2320445 C8.4646537,27.1411955 8.39354517,27.0337684 8.34572979,26.9159155 C8.2979142,26.7980626 8.27433332,26.6721168 8.27634116,26.5453142 L8.27634116,26.5453142 C8.2779478,26.290491 8.38259519,26.0466819 8.5673491,25.8673271 C8.75210196,25.6879722 9.00188845,25.587709 9.26196281,25.5884991 L9.26196281,25.5884991 C9.39229011,25.5881013 9.52141445,25.6130406 9.64183517,25.6618561 C9.76226625,25.7106819 9.87162095,25.7824239 9.96356842,25.8729219 C10.0555159,25.9634303 10.1282325,26.070909 10.1775012,26.1891335 C10.2267699,26.3073581 10.251627,26.4339852 10.2506219,26.5616755 L10.2506219,26.5616755 C10.2486118,26.8180781 10.1429354,27.0632497 9.95676095,27.2434406 C9.77058649,27.4236316 9.51909348,27.5241426 9.25740584,27.5229659 L9.24829399,27.5229659 Z M9.27107466,24.6287103 C9.14163948,24.6275439 9.01370567,24.6014071 8.89458013,24.5517968 C8.77545459,24.5021864 8.66746967,24.4300626 8.57679148,24.3395542 C8.48611329,24.2490458 8.41451673,24.1419284 8.36609252,24.0243026 C8.31766799,23.9066871 8.29336294,23.7808652 8.29456518,23.6540419 L8.29456518,23.6540419 C8.29516075,23.5275593 8.3212288,23.402429 8.37127428,23.2858252 C8.42131902,23.1692316 8.49435789,23.0634561 8.58620382,22.9745684 C8.67804975,22.8856806 8.78689673,22.8154252 8.90650616,22.7678381 C9.02611454,22.720251 9.15413331,22.696251 9.28322346,22.6972316 L9.28322346,22.6972316 C9.41265035,22.6980161 9.54063493,22.7238329 9.65984336,22.7732161 C9.77905179,22.8225993 9.88713204,22.8945787 9.97786722,22.9850045 C10.0686024,23.0754303 10.1402103,23.1825271 10.1885879,23.3001529 C10.2369552,23.4177787 10.2611388,23.543611 10.2597296,23.6704135 L10.2597296,23.6704135 C10.2585277,23.9251026 10.154219,24.1689116 9.9697024,24.3483077 C9.78519613,24.5277039 9.53556818,24.6280187 9.27563059,24.6272239 L9.27563059,24.6272239 L9.27107466,24.6287103 Z M9.29233324,21.7344767 C9.16271466,21.7338871 9.03448866,21.7082252 8.91502119,21.6589452 C8.79555372,21.6096652 8.6871989,21.5377477 8.59617982,21.4473219 C8.5051597,21.3568961 8.43326992,21.2497374 8.38463743,21.1320084 C8.33600485,21.0142793 8.3115881,20.8882922 8.31278972,20.7612935 L8.31278972,20.7612935 C8.31599306,20.5056672 8.42219249,20.2616455 8.60823951,20.0824177 C8.79428755,19.9031888 9.04509878,19.8032862 9.30599999,19.8044729 L9.30599999,19.8044729 C9.43542481,19.8054538 9.5633783,19.8314675 9.6825142,19.8810313 C9.80163975,19.9305952 9.90960601,20.0027315 10.0002065,20.0932977 C10.090807,20.1838649 10.1622491,20.2910783 10.2104299,20.4087774 C10.258621,20.5264775 10.2825973,20.6523428 10.2809913,20.7791485 C10.2789916,21.0334587 10.174372,21.2766587 9.98999011,21.4556419 C9.80560818,21.6346355 9.55644649,21.7348781 9.29689228,21.7344767 L9.29233324,21.7344767 Z" id="Vector" fill="#7ADBD4"></path>
                <path d="M21.147508,30.8412709 C20.9546297,30.6686154 20.8393482,30.4281818 20.8268212,30.1725018 C20.8143046,29.9168218 20.9055682,29.6666851 21.080687,29.4767289 L21.080687,29.4767289 C21.1680237,29.3830515 21.2733788,29.3071702 21.3907015,29.2534618 C21.5080241,29.1997534 21.635014,29.1692502 21.764387,29.1637276 C21.89376,29.1581947 22.0229776,29.1777457 22.1446314,29.2212347 C22.2662851,29.2647341 22.3779815,29.3313354 22.4733068,29.4172089 L22.4733068,29.4172089 C22.5691916,29.5023496 22.6469646,29.6052141 22.70216,29.7198876 C22.7573555,29.8345612 22.7888957,29.9587934 22.7949675,30.0854412 C22.8010393,30.2120889 22.781508,30.3386644 22.7375237,30.4579005 C22.693529,30.5771367 22.6259309,30.6866799 22.538615,30.7802541 L22.538615,30.7802541 C22.4459629,30.8788451 22.3335205,30.957627 22.2083439,31.0116554 C22.0831673,31.0656838 21.9479504,31.0938025 21.811169,31.094236 L21.811169,31.094236 C21.5654784,31.0940399 21.32874,31.0038102 21.147508,30.8412709 L21.147508,30.8412709 Z M18.9636468,28.8904373 C18.7713591,28.7162644 18.6574453,28.474458 18.6469078,28.218076 C18.6363702,27.9616941 18.7300791,27.7116915 18.9074567,27.5229328 L18.9074567,27.5229328 C18.994669,27.4292967 19.0998894,27.3534463 19.2170878,27.2997586 C19.3342861,27.2460709 19.4611412,27.215578 19.5904003,27.2100554 C19.719649,27.2045225 19.8487422,27.2240528 19.9702716,27.2675315 C20.0917906,27.3110102 20.2033627,27.3775805 20.2985637,27.4634128 C20.4903022,27.6360992 20.6043506,27.8762128 20.6157379,28.1311496 C20.6271251,28.386076 20.5349186,28.635036 20.3593128,28.8234747 L20.3593128,28.8234747 C20.2677487,28.9232218 20.1558037,29.0029844 20.030741,29.0575909 C19.9056887,29.1121973 19.7703061,29.1404372 19.6333899,29.1404372 L19.6333899,29.1404372 C19.3862176,29.1413896 19.147521,29.0522954 18.9636468,28.8904373 L18.9636468,28.8904373 Z M16.7813191,26.9396141 C16.5887516,26.7670205 16.473781,26.5267315 16.4615441,26.2712992 C16.4493073,26.015867 16.5407988,25.7660812 16.7160109,25.5765689 C16.891741,25.3873251 17.1369239,25.2741483 17.3977422,25.2618747 C17.6585605,25.2495909 17.9136904,25.3392322 18.1071179,25.5110928 L18.1071179,25.5110928 C18.2030027,25.5962438 18.2807757,25.699098 18.3359711,25.8137715 C18.3911665,25.9284451 18.4227068,26.0526773 18.4287786,26.1793251 C18.43484,26.3059728 18.4153191,26.4325483 18.3713244,26.5517844 C18.3273297,26.6710205 18.259742,26.7805741 18.1724261,26.874138 L18.1724261,26.874138 C18.0807584,26.9738644 17.9688237,27.0537096 17.8438128,27.1085534 C17.718802,27.163387 17.5834608,27.1920115 17.4464928,27.1925792 C17.2003359,27.192476 16.9630899,27.1022567 16.7813191,26.9396141 Z M14.6004958,24.9932605 C14.5049312,24.9078102 14.4275302,24.8047083 14.3727326,24.6898799 C14.3179355,24.5750412 14.2868219,24.4507367 14.2811778,24.3240962 C14.2755336,24.1974515 14.2954693,24.0709627 14.3398418,23.9518876 C14.3842141,23.8328125 14.45215,23.7234933 14.5397488,23.6302082 L14.5397488,23.6302082 C14.7154758,23.4409674 14.9606628,23.3277849 15.2214791,23.3155094 C15.4822943,23.3032338 15.7374241,23.3928681 15.9308516,23.5647341 L15.9308516,23.5647341 C16.026467,23.6503114 16.1038981,23.7535382 16.1587205,23.8684956 C16.2135326,23.9834531 16.2446584,24.1078835 16.2503053,24.2346489 C16.255942,24.3614154 16.2359962,24.4880218 16.1916078,24.607227 C16.147209,24.7264218 16.0792482,24.8358618 15.9916008,24.9292709 L15.9916008,24.9292709 C15.8999952,25.0286463 15.7879362,25.1078722 15.6628114,25.1617354 C15.5376865,25.2155986 15.402335,25.2428709 15.2656748,25.241756 C15.0202007,25.2424476 14.7831909,25.1539005 14.6004958,24.9932605 L14.6004958,24.9932605 Z" id="Vector" fill="#E81F76"></path>
                <path d="M26.9047021,27.6253032 C26.6578303,27.5428671 26.4541139,27.3683225 26.3378067,27.1395845 C26.2215098,26.9108361 26.20202,26.6463716 26.2835645,26.4036258 L26.2835645,26.4036258 C26.3242228,26.2831303 26.388785,26.171698 26.473552,26.0757496 C26.558319,25.9797909 26.6616122,25.9012051 26.7774843,25.8445032 C26.8933667,25.7878012 27.019538,25.7541083 27.1487453,25.7453651 C27.2779628,25.7366116 27.4076674,25.7529832 27.5303987,25.7935303 L27.5303987,25.7935303 C27.7772913,25.8749961 27.9812253,26.0489212 28.0976257,26.2772877 C28.2139641,26.5056645 28.2334436,26.7699019 28.1515363,27.0122348 L28.1515363,27.0122348 C28.0867359,27.2040283 27.9619219,27.3709445 27.7948125,27.4892825 C27.6276927,27.6076103 27.4267739,27.6713522 27.2205915,27.6714348 L27.2205915,27.6714348 C27.1135889,27.6708051 27.0072286,27.65528 26.9047021,27.6253032 Z M24.1042624,26.7116516 C23.9815414,26.6714864 23.8681043,26.6080129 23.7704477,26.5248541 C23.672791,26.4416954 23.5928318,26.3404825 23.5351392,26.2270167 C23.4774467,26.1135406 23.4431503,25.9900412 23.4342291,25.863569 C23.4253079,25.7370967 23.4419173,25.6101393 23.4831248,25.4899638 L23.4831248,25.4899638 C23.5232754,25.3696541 23.5873816,25.2583458 23.6717342,25.1624903 C23.7560971,25.0666348 23.8590277,24.9881212 23.9745785,24.9315122 C24.090119,24.8749135 24.2159795,24.8413341 24.3448551,24.8327148 C24.4737412,24.8241058 24.6030831,24.8406425 24.7254,24.8813548 C24.8482453,24.9207458 24.961931,24.983538 25.0599296,25.0661083 C25.1579385,25.148689 25.2383122,25.2494271 25.2964607,25.3625419 C25.3545987,25.4756464 25.3893614,25.598898 25.3987385,25.7252154 C25.4081156,25.8515225 25.3919207,25.9784077 25.3510966,26.0985729 C25.284918,26.2905109 25.1591715,26.4573858 24.9914301,26.5758477 C24.8236886,26.69432 24.6223554,26.7584438 24.4155927,26.7592593 L24.4155927,26.7592593 C24.3100096,26.7582271 24.2051414,26.7421858 24.1042624,26.7116516 L24.1042624,26.7116516 Z M21.2992636,25.7979896 C21.0526301,25.7152335 20.8491727,25.5406374 20.7329277,25.3119922 C20.6166826,25.0833574 20.5969959,24.819058 20.678126,24.5763122 L20.678126,24.5763122 C20.7184527,24.4561161 20.7826626,24.3449316 20.8670566,24.2491793 C20.9514609,24.1534271 21.0543708,24.0749961 21.1698698,24.0184201 C21.2853585,23.9618389 21.4111361,23.9282255 21.53996,23.9195205 C21.6687734,23.9108154 21.7980843,23.9271901 21.9204115,23.9677001 L21.9204115,23.9677001 C22.0432672,24.0071096 22.1569841,24.0698864 22.2550448,24.1524361 C22.3531055,24.2349858 22.4335725,24.3356825 22.4918349,24.4487664 C22.5500973,24.56184 22.5850257,24.6850709 22.5945894,24.8113987 C22.6041633,24.9377161 22.5882067,25.0646529 22.5476209,25.1849212 C22.482406,25.3768593 22.3573122,25.5438993 22.190006,25.6624438 C22.0226997,25.7809883 21.8216255,25.8450503 21.615153,25.8456077 L21.615153,25.8456077 C21.5081089,25.8442451 21.4017797,25.8282141 21.2992636,25.7979896 L21.2992636,25.7979896 Z M18.498829,24.8813548 C18.2512091,24.8011174 18.0462224,24.6278529 17.9289018,24.3996206 C17.8115811,24.1713883 17.7915241,23.9068557 17.8731353,23.6641409 L17.8731353,23.6641409 C17.9563617,23.421041 18.1342812,23.2200273 18.3681173,23.1049099 C18.6019534,22.9897934 18.8727477,22.9699047 19.1214845,23.0495788 L19.1214845,23.0495788 C19.369206,23.1313367 19.5737202,23.3060268 19.6901621,23.5353316 C19.8066041,23.7646353 19.8254722,24.0298317 19.7426221,24.2727458 L19.7426221,24.2727458 C19.6771481,24.4644154 19.5519508,24.6311251 19.3846653,24.7493909 C19.2173797,24.8676464 19.0164402,24.9315019 18.8101583,24.9319458 L18.8101583,24.9319458 C18.7042892,24.9315019 18.5991775,24.914418 18.498829,24.8813548 L18.498829,24.8813548 Z" id="Vector" fill="#DF1683"></path>
                <path d="M20.9408555,22.368429 C20.9166808,22.114122 20.995987,21.8607439 21.1615171,21.6634381 C21.3270474,21.4661333 21.5654073,21.3408667 21.8247263,21.3148961 L21.8247263,21.3148961 C22.0846919,21.2899909 22.3441114,21.367212 22.5459938,21.5295955 C22.7478866,21.69198 22.8757468,21.926251 22.9014639,22.18094 L22.9014639,22.18094 C22.9142499,22.30702 22.9015054,22.4343284 22.8639762,22.5555774 C22.8264367,22.6768161 22.7648482,22.789611 22.6827338,22.8874897 C22.6006297,22.9853581 22.4996056,23.0663903 22.3854639,23.1259413 C22.2713222,23.185482 22.1463114,23.2223645 22.0176015,23.2344729 L22.0176015,23.2344729 C21.9852323,23.2366303 21.9527627,23.2366303 21.9204018,23.2344729 L21.9204018,23.2344729 C21.6764644,23.2352781 21.4409705,23.1470097 21.2598617,22.9868858 C21.078753,22.826762 20.9650214,22.6062716 20.9408555,22.368429 L20.9408555,22.368429 Z M23.8810143,22.0857039 C23.8568203,21.8312316 23.9360854,21.5776884 24.1015784,21.380141 C24.2670714,21.1825989 24.5054364,21.0570164 24.764887,21.0306794 L24.764887,21.0306794 C25.0245138,21.007372 25.2830629,21.0851795 25.4845827,21.2472626 C25.6860921,21.4093457 25.8143668,21.642669 25.8416278,21.8967181 L25.8416278,21.8967181 C25.8670444,22.1514381 25.7882352,22.4056213 25.6225039,22.6034432 C25.4567726,22.8012652 25.2176822,22.92654 24.957755,22.9517478 L24.957755,22.9517478 C24.9243808,22.9539671 24.8908926,22.9539671 24.8575184,22.9517478 C24.614014,22.9521503 24.3790786,22.8636549 24.1985408,22.7035413 C24.0179926,22.5434278 23.9047938,22.3231645 23.8810143,22.0857039 Z M26.8211678,21.8074381 C26.8081849,21.681131 26.8208155,21.5535439 26.858355,21.432042 C26.8958842,21.3105349 26.9575658,21.1974995 27.0398564,21.0994432 C27.122147,21.001387 27.2234198,20.9202453 27.3378413,20.8606881 C27.4522523,20.801131 27.577574,20.7643341 27.7065637,20.7524156 L27.7065637,20.7524156 C27.8349109,20.7403114 27.9644393,20.7531176 28.0877405,20.7901023 C28.2110314,20.8270881 28.3256808,20.8875269 28.4251196,20.9679614 C28.5245584,21.048396 28.6068386,21.1472492 28.6672562,21.2588672 C28.7276738,21.3704853 28.7650475,21.4926789 28.7772326,21.6184626 L28.7772326,21.6184626 C28.7904123,21.7444497 28.7779372,21.8717478 28.7405323,21.9929761 C28.7031172,22.1142045 28.6415184,22.2269478 28.5593003,22.3246716 C28.4770822,22.4223955 28.375882,22.5031594 28.2615642,22.5622665 C28.1472463,22.6213736 28.0220904,22.6576678 27.8933598,22.6690123 L27.8933598,22.6690123 C27.8615087,22.671242 27.8295333,22.671242 27.7976822,22.6690123 L27.7976822,22.6690123 C27.5548825,22.6695284 27.3205376,22.5816626 27.1401034,22.4224678 C26.9596796,22.2632729 26.8460145,22.0440936 26.8211678,21.8074381 L26.8211678,21.8074381 Z M29.7628444,21.5247129 C29.749416,21.3987857 29.7615492,21.2715 29.7985396,21.150189 C29.8355299,21.028877 29.8966521,20.9159356 29.9783936,20.8178701 C30.0601246,20.7198045 30.1608482,20.6385534 30.2747723,20.578796 C30.3886964,20.5190393 30.5135519,20.4819582 30.6421581,20.4696883 L30.6421581,20.4696883 C30.7709198,20.4571563 30.9009352,20.469626 31.0247752,20.5063853 C31.1486049,20.5431446 31.2638242,20.6034711 31.3638328,20.6839129 C31.4638208,20.7643537 31.5467123,20.8633276 31.6076376,20.9751749 C31.6685629,21.0870221 31.7063822,21.2095439 31.7189196,21.3357281 L31.7189196,21.3357281 C31.7430617,21.5901994 31.6637967,21.8437529 31.4983244,22.0412961 C31.3328521,22.238829 31.0944767,22.3644136 30.8350364,22.3907465 L30.8350364,22.3907465 L30.7378357,22.3907465 C30.4946837,22.3904471 30.2603181,22.3016832 30.0801637,22.1416626 C29.9000196,21.9816523 29.7869348,21.7617916 29.7628444,21.5247129 L29.7628444,21.5247129 Z" id="Vector" fill="#C017A2"></path>
                <path d="M23.2034848,19.9681362 C23.0748722,19.7450962 23.0418173,19.4811788 23.1115729,19.2342833 C23.1813289,18.9873878 23.348198,18.7776949 23.5755623,18.6512226 L23.5755623,18.6512226 C23.6877146,18.5885646 23.8114157,18.5482755 23.939536,18.5326988 C24.0676553,18.517122 24.1976531,18.5265465 24.3220423,18.5604355 C24.4464211,18.5943349 24.5627283,18.6520175 24.6642394,18.7301697 C24.7657608,18.808322 24.850476,18.9053955 24.913515,19.0157852 L24.913515,19.0157852 C24.9778803,19.1254729 25.0194505,19.2465671 25.0358112,19.3720794 C25.0521615,19.4975813 25.0429917,19.6250239 25.00883,19.7470471 C24.9746579,19.86906 24.9161676,19.9832381 24.8367367,20.0829955 C24.7572955,20.1827529 24.6584784,20.2660975 24.5459946,20.3282394 C24.3988102,20.4119039 24.2317008,20.4560433 24.0615379,20.4562188 C23.8873371,20.456002 23.7162748,20.4107684 23.5656205,20.3250704 C23.4149661,20.2393826 23.2900506,20.1162549 23.2034848,19.9681362 L23.2034848,19.9681362 Z M25.7715671,18.536642 C25.7079893,18.4265413 25.6671859,18.3052407 25.6514779,18.1796768 C25.63577,18.0541129 25.6454683,17.9267426 25.6800134,17.8048639 C25.7145688,17.6829749 25.7733078,17.5689517 25.8528526,17.4693181 C25.9324078,17.3696846 26.0312146,17.2863813 26.1436362,17.2241878 C26.2554673,17.1611478 26.3789447,17.1204458 26.5069189,17.1044355 C26.6348931,17.0884252 26.764836,17.0974265 26.8892459,17.1309129 C27.0136454,17.1643891 27.1300562,17.2217 27.2317228,17.299522 C27.3333996,17.3773336 27.418322,17.4741284 27.4815994,17.584291 L27.4815994,17.584291 C27.5460372,17.6942058 27.5876488,17.8155168 27.6040509,17.9412562 C27.6204531,18.0669955 27.611304,18.1946652 27.5771526,18.3169258 C27.5429909,18.4391865 27.4844902,18.5536226 27.4050179,18.6536381 C27.3255456,18.7536639 27.2266664,18.8372975 27.1140789,18.8997181 C26.9667288,18.9826704 26.7995468,19.0258084 26.6296191,19.0247142 C26.4554225,19.0245078 26.284355,18.9792742 26.1336996,18.8935762 C25.9830442,18.8078781 25.8581266,18.6847607 25.7715671,18.536642 Z M28.3396514,17.1081207 C28.2757628,16.9977207 28.2347107,16.8760794 28.218837,16.7501336 C28.2029632,16.6241878 28.2125683,16.4964046 28.2471237,16.3741026 C28.2816791,16.2517904 28.3405011,16.1373646 28.420222,16.0373491 C28.499943,15.9373233 28.5989881,15.8536794 28.7117206,15.7911968 L28.7117206,15.7911968 C28.9387502,15.6657878 29.2072878,15.6337465 29.4583975,15.7020923 C29.7095175,15.7704381 29.9227042,15.9335968 30.0511965,16.1557697 L30.0511965,16.1557697 C30.1153649,16.2655091 30.1567589,16.3865826 30.173016,16.5120536 C30.1892628,16.6375142 30.1800514,16.7648949 30.1458897,16.8868562 C30.1117384,17.0088175 30.0533206,17.1229749 29.9740037,17.2227426 C29.8946765,17.3225104 29.7960148,17.4059375 29.683676,17.4682239 L29.683676,17.4682239 C29.536015,17.5520742 29.3683668,17.5962136 29.1976931,17.596193 C29.0233514,17.5958317 28.8521907,17.5503813 28.7015146,17.4644149 C28.5508488,17.3784484 28.4260244,17.2550213 28.3396514,17.1066239 L28.3396514,17.1081207 Z M30.9046895,15.6766162 C30.7759175,15.4547942 30.7422946,15.1919566 30.8112085,14.9458569 C30.8801225,14.6997573 31.0459367,14.4905331 31.27221,14.364164 L31.27221,14.364164 C31.3845073,14.30099 31.5084302,14.2601861 31.6368707,14.2440984 C31.7653112,14.2280106 31.8957307,14.2369564 32.0206276,14.2704212 C32.1455348,14.3038858 32.2624534,14.3612097 32.364669,14.4390977 C32.4668847,14.5169847 32.552377,14.6139003 32.6162346,14.7242714 L32.6162346,14.7242714 C32.6807138,14.8342998 32.7223565,14.9557284 32.7387794,15.0815782 C32.7551919,15.207428 32.7460635,15.3352175 32.7119122,15.457602 C32.6777608,15.5799762 32.6192497,15.6945362 32.5397567,15.7946962 C32.4602741,15.8948458 32.3613637,15.9786136 32.2487141,16.0411891 L32.2487141,16.0411891 C32.1004314,16.1230265 31.9329283,16.1655968 31.7627415,16.1647127 L31.7627415,16.1647127 C31.5883791,16.1652562 31.4170112,16.1203426 31.2662211,16.0345723 C31.1154309,15.9487917 30.9906584,15.825251 30.9046895,15.6766162 L30.9046895,15.6766162 Z" id="Vector" fill="#C028B9"></path>
                <path d="M24.2742647,16.8730916 C24.0638061,16.721009 23.9235349,16.4933135 23.8842422,16.239987 C23.8449494,15.9866709 23.9098476,15.7284309 24.0646889,15.5219483 L24.0646889,15.5219483 C24.2204691,15.3181393 24.4519862,15.182738 24.7090071,15.1451329 C24.966029,15.1075174 25.2278213,15.1707329 25.437568,15.3210606 L25.437568,15.3210606 C25.5417109,15.3963122 25.6296485,15.4909806 25.6963555,15.5996258 C25.7630521,15.7082709 25.8071919,15.8287458 25.8262362,15.9541548 C25.8452909,16.0795535 25.8388772,16.207409 25.8073576,16.3303819 C25.7758381,16.4533445 25.7198449,16.569009 25.6425899,16.6707174 L25.6425899,16.6707174 C25.5516475,16.7925651 25.432522,16.8915483 25.2949842,16.9595845 C25.1574567,17.0276103 25.0054232,17.0627277 24.851362,17.0620762 L24.851362,17.0620762 C24.6436585,17.059187 24.4419978,16.9931535 24.2742647,16.8730916 Z M26.0253003,14.5398374 C25.8170249,14.3887664 25.6784509,14.1628774 25.6400099,13.9117806 C25.6015793,13.6606838 25.6664109,13.4049006 25.8202784,13.2005961 C25.9735552,12.9955999 26.2036519,12.8586399 26.4599733,12.8198477 C26.7162844,12.7810658 26.9778384,12.8436206 27.1870878,12.9937625 L27.1870878,12.9937625 C27.3968138,13.145298 27.5367555,13.3720438 27.5763155,13.6244103 C27.6158755,13.8767767 27.5518314,14.1342219 27.3981815,14.3404361 L27.3981815,14.3404361 C27.306089,14.4606632 27.1865801,14.558129 27.0491976,14.6250399 C26.9118152,14.6919612 26.7603723,14.7264799 26.6069504,14.7258399 L26.6069504,14.7258399 C26.3975663,14.7275638 26.1933319,14.6622529 26.0253003,14.5398374 Z M27.7808919,12.2125393 C27.675288,12.1378864 27.5858273,12.0434761 27.5176801,11.9347483 C27.4495225,11.8260206 27.4040461,11.7051432 27.3838516,11.5791045 C27.3636572,11.4530554 27.3691591,11.3243329 27.4000258,11.2003793 C27.4309029,11.0764258 27.4865336,10.959698 27.563716,10.8569264 L27.563716,10.8569264 C27.7194278,10.6513729 27.9517417,10.5144438 28.2100319,10.4759819 C28.4683323,10.4375199 28.7316685,10.5006322 28.9426793,10.6515793 L28.9426793,10.6515793 C29.0466461,10.7269651 29.1344386,10.8216851 29.2010213,10.9303303 C29.2676039,11.0389754 29.3116815,11.1594193 29.3307155,11.2847664 C29.3497598,11.4101135 29.3433979,11.5379174 29.3119923,11.660849 C29.2805868,11.7837909 29.2247593,11.8994554 29.1477013,12.0012361 L29.1477013,12.0012361 C29.0568107,12.1234658 28.9378095,12.2229961 28.8003442,12.2917651 C28.6628789,12.3605341 28.5108143,12.3966012 28.3564702,12.3970554 L28.3564702,12.3970554 C28.149749,12.3953625 27.948654,12.330898 27.7808919,12.2125393 L27.7808919,12.2125393 Z M29.5379962,9.87928511 C29.3294825,9.72844124 29.1906184,9.50265543 29.1518873,9.25154834 C29.1131666,9.00043608 29.1777495,8.74453105 29.3314615,8.54004898 L29.3314615,8.54004898 C29.4859714,8.33668072 29.7159022,8.2010033 29.9716227,8.16230539 C30.2273432,8.12360749 30.4883376,8.1849936 30.6982605,8.3332113 L30.6982605,8.3332113 C30.9068364,8.48538679 31.0455866,8.71216253 31.0842762,8.96412847 C31.1229658,9.21609027 31.0584555,9.4728335 30.9048056,9.67839737 L30.9048056,9.67839737 C30.8138632,9.80015221 30.6947066,9.89899092 30.557148,9.96676898 C30.4195791,10.034547 30.2675456,10.0693341 30.1135745,10.0682709 C29.9059726,10.0675174 29.704142,10.0012567 29.5379962,9.87928511 L29.5379962,9.87928511 Z" id="Vector" fill="#9E28B5"></path>
                <path d="M23.964589,13.6138311 C23.7101005,13.5582956 23.4884298,13.4062543 23.3481068,13.1909563 C23.2077824,12.9756479 23.1602364,12.7146414 23.2158803,12.4650621 L23.2158803,12.4650621 C23.2425541,12.3404066 23.2941718,12.2221511 23.3677501,12.1171498 C23.4413288,12.0121382 23.5354107,11.9224556 23.6445634,11.8532737 C23.753715,11.7841021 23.8757718,11.7367937 24.0036869,11.7141046 C24.131601,11.6914053 24.2628422,11.6937588 24.3898217,11.7210414 L24.3898217,11.7210414 C24.6442367,11.7765356 24.8657851,11.9286595 25.0058719,12.1440298 C25.1459482,12.3593898 25.1931135,12.6204169 25.1370063,12.8698104 L25.1370063,12.8698104 C25.090328,13.0848092 24.9696379,13.2775524 24.7951719,13.4157201 C24.6206955,13.5538569 24.4030533,13.6291085 24.1787228,13.6286956 C24.1070258,13.6303472 24.0353277,13.6253924 23.964589,13.6138311 Z M24.5993923,10.7865485 C24.3446976,10.731395 24.1227731,10.5794053 23.9823838,10.364004 C23.8419935,10.1486027 23.7946261,9.8873898 23.8506877,9.6377898 L23.8506877,9.6377898 C23.8773726,9.51327883 23.9289384,9.39516786 24.0024166,9.29028012 C24.0758948,9.18538206 24.1698327,9.09578206 24.2788092,9.02662077 C24.3878013,8.95745948 24.5096726,8.9101098 24.6374085,8.88730722 C24.7651548,8.86451496 24.8962374,8.86670335 25.0231029,8.89375883 L25.0231029,8.89375883 C25.277922,8.94926335 25.4998538,9.10154206 25.6402203,9.31719109 C25.7805764,9.5328298 25.8279075,9.79422851 25.7718107,10.0440246 L25.7718107,10.0440246 C25.7238475,10.258373 25.6028051,10.4503317 25.4286188,10.5882827 C25.2544326,10.7262233 25.037495,10.8019292 24.8135323,10.8029201 L24.8135323,10.8029201 C24.7418311,10.8045717 24.6701403,10.7995859 24.5993923,10.7880453 L24.5993923,10.7865485 Z M25.2341967,7.95927625 C25.1076938,7.93268528 24.9878326,7.88176399 24.8815552,7.80945431 C24.7752675,7.73715496 24.6846878,7.64491238 24.6150485,7.53806335 C24.5454092,7.43121431 24.4981092,7.31189561 24.4758632,7.1870027 C24.4536275,7.06212012 24.4569017,6.93414077 24.485489,6.81050722 L24.485489,6.81050722 C24.5131748,6.68687367 24.5655001,6.56982593 24.6394601,6.46605302 C24.7134201,6.36229044 24.8075745,6.2738569 24.9165044,6.20584141 C25.0254343,6.13781561 25.1470051,6.09153948 25.2742333,6.06966593 C25.4014719,6.0478027 25.5318499,6.05076528 25.6579073,6.07838851 L25.6579073,6.07838851 C25.912602,6.13355238 26.1345338,6.28553173 26.274921,6.50093302 C26.4153082,6.71634464 26.4626808,6.97754722 26.406615,7.22715754 L26.406615,7.22715754 C26.3586519,7.44151625 26.2376095,7.63347496 26.0634232,7.77141561 C25.8892369,7.90935625 25.6722993,7.98506206 25.4483367,7.98605302 C25.3760345,7.98546464 25.3040846,7.97596786 25.2341967,7.95777948 L25.2341967,7.95927625 Z M25.8674882,5.13199367 C25.7414102,5.10469044 25.622067,5.05331496 25.5162663,4.98078851 C25.410476,4.90827238 25.3203003,4.8160298 25.2509097,4.70933561 C25.1815191,4.60265173 25.1342605,4.48361173 25.1118591,4.35901819 C25.0894473,4.2344267 25.0923174,4.10672812 25.1203037,3.98322464 L25.1203037,3.98322464 C25.1476268,3.85936606 25.1997138,3.74203444 25.2735495,3.63800141 C25.3473955,3.53396838 25.4415292,3.44529225 25.5505316,3.37708993 C25.6595237,3.30888802 25.7812292,3.26251011 25.9086128,3.24063171 C26.0359964,3.21875324 26.1665403,3.22180779 26.292722,3.24961917 C26.4189348,3.27675351 26.5384437,3.32801297 26.6444102,3.40046335 C26.7503767,3.47291238 26.8407181,3.56513019 26.9102641,3.67183573 C26.9798102,3.77854128 27.0271931,3.89763909 27.0496981,4.02231109 C27.0722032,4.14698309 27.0693952,4.27478593 27.0414297,4.39838851 C26.9934562,4.61274722 26.8724138,4.80470593 26.6982275,4.94264657 C26.5240413,5.08058722 26.3071037,5.15629302 26.083141,5.15728448 L26.083141,5.15728448 C26.0105695,5.15735625 25.9382258,5.14936657 25.8674882,5.13348012 L25.8674882,5.13199367 Z" id="Vector" fill="#773DBD"></path>
                <path d="M21.1683633,10.0132034 C21.1160794,9.76332473 21.1664982,9.50331957 21.3086572,9.28964215 C21.4508266,9.07595441 21.6732662,8.92584344 21.9277018,8.87187699 L21.9277018,8.87187699 C22.1827281,8.82064602 22.4480744,8.87003957 22.6661621,9.00934279 C22.8842394,9.1486357 23.0374437,9.36659699 23.0925252,9.61589763 L23.0925252,9.61589763 C23.1456069,9.86566279 23.0954886,10.1258641 22.9531637,10.3395105 C22.8108389,10.553157 22.5879021,10.7028551 22.3331866,10.7557067 L22.3331866,10.7557067 C22.2687592,10.7690228 22.2031298,10.7760421 22.1372828,10.7765592 L22.1372828,10.7765592 C21.9110821,10.776868 21.6915852,10.7013067 21.5153059,10.5624576 C21.3390266,10.4235776 21.2165854,10.2297402 21.1683633,10.0132034 L21.1683633,10.0132034 Z M20.5775951,7.17401892 C20.5254459,6.92486279 20.5760305,6.6656215 20.7183035,6.45289376 C20.8605765,6.24016602 21.0829746,6.09124215 21.3369336,6.03863828 L21.3369336,6.03863828 C21.462991,6.01271828 21.5930168,6.01140731 21.7195922,6.03477763 C21.8461572,6.05815828 21.9667852,6.1057557 22.0745546,6.17486537 C22.182324,6.24397505 22.2751315,6.33323441 22.3476512,6.43752344 C22.4201813,6.54181247 22.4709939,6.65909763 22.4972083,6.78265892 L22.4972083,6.78265892 C22.5233917,6.90686021 22.5243139,7.03489118 22.499923,7.15944344 C22.4755322,7.28398537 22.426305,7.40259183 22.35507,7.50847054 C22.2838247,7.61434925 22.1919705,7.70542537 22.0847606,7.77646537 C21.9775507,7.8475157 21.8570886,7.89713634 21.7302748,7.92249892 L21.7302748,7.92249892 C21.6657748,7.93507183 21.6001247,7.94105892 21.5343606,7.94035699 L21.5343606,7.94035699 C21.3092375,7.94003699 21.0911083,7.86361892 20.9168081,7.72400602 C20.7425078,7.58439312 20.6226984,7.39013247 20.5775951,7.17401892 Z M19.9822792,4.34673634 C19.9292639,4.09733247 19.9794599,3.83750279 20.1218386,3.62433118 C20.2642183,3.41116989 20.4871293,3.26209118 20.7416168,3.20986925 C20.9967156,3.15783312 21.2624659,3.20689634 21.4807505,3.34632344 C21.6990351,3.48575054 21.852084,3.70419699 21.9064401,3.95388989 L21.9064401,3.95388989 C21.9586204,4.2032215 21.9080772,4.46265892 21.7658353,4.67562408 C21.6235934,4.88858925 21.401185,5.03781247 21.1471016,5.09075699 L21.1471016,5.09075699 C21.0806122,5.10400086 21.0129727,5.11097892 20.9451156,5.11158871 C20.7184589,5.11186666 20.4986927,5.03523183 20.3231677,4.89472086 C20.1476427,4.75419957 20.0271899,4.55847312 19.9822792,4.34078021 L19.9822792,4.34673634 Z M19.3869582,1.51201118 C19.3347111,1.26231725 19.385166,1.00250615 19.5273579,0.789063052 C19.669549,0.575618923 19.8919813,0.425799258 20.1462957,0.372172316 L20.1462957,0.372172316 C20.4027892,0.321631929 20.6692731,0.3726102 20.8875266,0.513970406 C21.1057801,0.655330923 21.2580727,0.875583826 21.3111233,1.12661041 C21.3624746,1.3758646 21.3115895,1.63491183 21.1694823,1.84768086 C21.0273647,2.06044989 20.8054536,2.20981763 20.5517847,2.26347441 C20.4852228,2.27629505 20.4176247,2.28326279 20.3497977,2.28430537 C20.1222986,2.28339699 19.9021252,2.20539957 19.7266303,2.06354666 C19.5511353,1.92170408 19.4311246,1.7247286 19.3869582,1.50606537 L19.3869582,1.51201118 Z" id="Vector" fill="#655DC6"></path>
                <path d="M18.2844962,8.58467166 C18.2094794,8.48216843 18.1558589,8.36615295 18.1267018,8.24329359 C18.0975447,8.12042392 18.0934312,7.99313617 18.1145996,7.86870779 C18.1357577,7.74428972 18.1817832,7.62517746 18.250034,7.51822521 C18.3182849,7.41127295 18.4074037,7.31856585 18.512303,7.24544069 L18.512303,7.24544069 C18.7236868,7.09761101 18.9862666,7.03793617 19.242474,7.07950521 C19.4986815,7.12106392 19.727628,7.26047037 19.8791124,7.4671594 L19.8791124,7.4671594 C20.0298921,7.67404456 20.0910454,7.93096327 20.0492266,8.18186392 C20.0073974,8.43276456 19.8659948,8.65727037 19.6558647,8.80639037 L19.6558647,8.80639037 C19.4884548,8.92267424 19.2885307,8.98554908 19.0833222,8.98644714 L19.0833222,8.98644714 C18.9272581,8.98601359 18.773515,8.94937875 18.6346716,8.8795465 C18.4958386,8.80971424 18.3758324,8.7086665 18.2844962,8.58467166 L18.2844962,8.58467166 Z M16.5607972,6.23059682 C16.412442,6.02253488 16.3532056,5.76578134 16.3957912,5.51542779 C16.4383767,5.26506392 16.579396,5.04102263 16.7886039,4.89135553 C17.0017285,4.74273101 17.2662148,4.68278779 17.524308,4.72461488 C17.7823909,4.76643166 18.0130989,4.90662263 18.1660442,5.11456069 L18.1660442,5.11456069 C18.3149485,5.32232327 18.3746615,5.57904585 18.3323454,5.82951295 C18.2900292,6.07996972 18.1490514,6.30414521 17.9397606,6.45380198 L17.9397606,6.45380198 C17.7727651,6.57199553 17.5717116,6.63505617 17.365695,6.63384843 C17.2082736,6.63530392 17.0528415,6.59938134 16.9126719,6.5291465 C16.7725022,6.45892198 16.6517707,6.35649101 16.5607972,6.23059682 L16.5607972,6.23059682 Z M14.8446931,3.87799811 C14.7688577,3.77529875 14.7144497,3.65894263 14.6846191,3.53559811 C14.6547885,3.41225359 14.6501051,3.2843465 14.6708487,3.1592265 C14.6915924,3.03409617 14.7373485,2.91422004 14.8054957,2.80647295 C14.8736326,2.69871553 14.9628239,2.60521359 15.0679408,2.53131424 L15.0679408,2.53131424 C15.2799049,2.38480585 15.5422671,2.32607037 15.7981326,2.36785617 C16.0539981,2.40964198 16.2827478,2.54857359 16.4347502,2.7545194 L16.4347502,2.7545194 C16.5097671,2.85703295 16.5633979,2.97304843 16.592555,3.09590779 C16.6217121,3.21877746 16.6258256,3.34606521 16.6046572,3.47049359 C16.5834887,3.59491166 16.5374632,3.71402392 16.4692227,3.82097617 C16.4009719,3.92792843 16.3118427,4.02063553 16.2069538,4.09376069 L16.2069538,4.09376069 C16.0426524,4.21289359 15.84335,4.27659424 15.6389704,4.27530392 L15.6389704,4.27530392 C15.4838907,4.27563424 15.3309557,4.23977359 15.1928377,4.17067424 C15.0547196,4.10158521 14.9353765,4.00126004 14.8446931,3.87799811 L14.8446931,3.87799811 Z M13.1255552,1.5283723 C12.9752392,1.32095037 12.9148235,1.06364972 12.9575077,0.81271398 C13.000192,0.56177411 13.1425065,0.337588303 13.3533567,0.189138239 L13.3533567,0.189138239 C13.4579773,0.115634239 13.5763796,0.0630905482 13.7017707,0.0345222902 C13.8271628,0.0059539908 13.9570767,0.00192266177 14.0840594,0.0226599934 C14.2110492,0.0433972321 14.3326097,0.0884951418 14.4417675,0.155366884 C14.5509254,0.222237593 14.6455254,0.309566626 14.7201692,0.412345464 C14.8713427,0.619100561 14.9327343,0.876133851 14.8908948,1.12715424 C14.8490553,1.37816843 14.7073832,1.60270521 14.4969215,1.75158779 L14.4969215,1.75158779 C14.3299572,1.86613746 14.131235,1.92792843 13.927416,1.92866221 C13.7709696,1.92886779 13.6167063,1.89268714 13.4773086,1.8230923 C13.3379099,1.75350779 13.2173565,1.65250134 13.1255552,1.5283723 L13.1255552,1.5283723 Z" id="Vector" fill="#655DC6"></path>
            </g>
        </g>
    </g>
</svg>