<svg xmlns="http://www.w3.org/2000/svg" width="517" height="359" viewBox="0 0 517 359">
  <defs>
    <linearGradient id="sign-in-illustration-a" x1="50%" x2="50%" y1="0%" y2="100%">
      <stop offset="0%" stop-color="#FF9B21"/>
      <stop offset="100%" stop-color="#FFF" stop-opacity="0"/>
    </linearGradient>
  </defs>
  <g fill="none">
    <path fill="url(#sign-in-illustration-a)" d="M72.2539067,91.4804728 C24.3678789,120.558529 -3.99967174,173.934886 0.458332746,229.709423 C2.81255221,258.171654 13.4316136,285.650586 41.4986255,300.755263 C116.349661,340.725407 443.119416,341.474793 491.489228,270.778377 C539.860485,200.081961 521.860803,99.5077114 416.688881,57.6060574 C325.507727,21.1835273 195.875069,16.3870812 72.2539067,91.4804728 Z" opacity=".3"/>
    <g transform="translate(37)">
      <path fill="#ECF5FF" d="M81.9312898,359 C127.180738,359 163.86258,352.055506 163.86258,343.489161 C163.86258,334.922773 127.180738,327.978323 81.9312898,327.978323 C36.6818419,327.978323 0,334.922773 0,343.489161 C0,352.055506 36.6818419,359 81.9312898,359 Z" opacity=".5"/>
      <path fill="#FFF" d="M388.029339,83.1843106 L85.9339023,83.1843106 L85.9339023,281.619094 L388.029339,281.619094 L388.029339,83.1843106 Z"/>
      <path fill="#FF4133" d="M100.539446,101.294659 C103.268287,101.294659 105.48046,99.0832965 105.48046,96.3554551 C105.48046,93.6275991 103.268287,91.4162511 100.539446,91.4162511 C97.8105911,91.4162511 95.5984329,93.6275991 95.5984329,96.3554551 C95.5984329,99.0832965 97.8105911,101.294659 100.539446,101.294659 Z"/>
      <path fill="#FFD200" d="M115.218266,101.294659 C117.94711,101.294659 120.15927,99.0832965 120.15927,96.3554551 C120.15927,93.6275991 117.94711,91.4162511 115.218266,91.4162511 C112.489407,91.4162511 110.277232,93.6275991 110.277232,96.3554551 C110.277232,99.0832965 112.489407,101.294659 115.218266,101.294659 Z"/>
      <path fill="#6BB132" d="M129.058988,101.294659 C131.787832,101.294659 134.000007,99.0832965 134.000007,96.3554551 C134.000007,93.6275991 131.787832,91.4162511 129.058988,91.4162511 C126.33013,91.4162511 124.117969,93.6275991 124.117969,96.3554551 C124.117969,99.0832965 126.33013,101.294659 129.058988,101.294659 Z"/>
      <path fill="#000" d="M339.067535,83.1843106 L267.91401,83.4731487 L256.529445,99.4894685 L149.257379,197.970312 L158.070303,215.084229 L127.94744,226.955655 L98.5902898,226.955655 L94.7039348,281.619094 L129.030996,281.619094 L133.885328,249.702 C153.042602,247.150558 168.93476,237.09884 181.561802,219.546845 L306.734217,166.038776 L290.842059,129.442434 L311.978629,119.332947 L313.14887,125.961882 C320.767474,123.86296 324.417855,119.26555 324.100012,112.169653 C323.623247,101.525808 322.626375,88.3112646 339.067535,83.1843106 Z" opacity=".08"/>
      <path fill="#FF6D4A" d="M280.352886,42.8474782 C278.604748,56.8418973 271.38104,85.7550314 241.720492,98.6374069 L246.054718,105.858469 C273.572231,97.1931944 290.649078,81.7882611 297.285259,59.6436695 C301.749511,44.6960702 298.903369,38.2115561 294.395775,35.5830908 C293.026738,34.8274442 291.492422,34.4210685 289.928778,34.3999882 C288.365134,34.3789079 286.820272,34.7437723 285.431442,35.4622406 C284.042612,36.1807045 282.852433,37.2305892 281.966518,38.5188268 C281.080747,39.8070643 280.526399,41.2938811 280.352886,42.8474782 Z"/>
      <path fill="#FFF" d="M280.352886,42.8474782 C278.604748,56.8418973 271.38104,85.7550314 241.720492,98.6374069 L246.054718,105.858469 C273.572231,97.1931944 290.649078,81.7882611 297.285259,59.6436695 C301.749511,44.6960702 298.903369,38.2115561 294.395775,35.5830908 C293.026738,34.8274442 291.492422,34.4210685 289.928778,34.3999882 C288.365134,34.3789079 286.820272,34.7437723 285.431442,35.4622406 C284.042612,36.1807045 282.852433,37.2305892 281.966518,38.5188268 C281.080747,39.8070643 280.526399,41.2938811 280.352886,42.8474782 Z" opacity=".2"/>
      <path fill="#F4A28C" d="M284.1372,20.7220797 L291.230878,29.3729127 L297.472158,22.6717666 L286.275417,12.7355845 L284.1372,20.7220797 Z"/>
      <path fill="#F4A28C" d="M279.139868,4.83573039 C278.051472,4.66671885 276.938068,4.7725867 275.901061,5.14369083 C274.864055,5.51479322 273.936416,6.13934121 273.202603,6.96044744 C272.468787,7.78156667 271.952126,8.77314583 271.699684,9.84487857 C271.447241,10.9166257 271.467018,12.0344721 271.757242,13.0966008 C273.071955,18.1513308 275.903648,25.0402635 281.306979,22.6717614 C286.806636,20.2647086 288.111724,15.4506608 285.222242,8.22961793 C283.572738,6.52507632 281.457059,5.34455424 279.139868,4.83573039 L279.139868,4.83573039 Z"/>
      <path fill="#24285B" d="M290.104553 72.5547517L276.032769 79.7758139C274.827667 80.4025443 273.761202 81.2655624 272.897073 82.3133385 272.03293 83.3611146 271.388824 84.5721734 271.003182 85.8742464 270.617538 87.1763917 270.498268 88.5427611 270.652489 89.8919443 270.806711 91.2411276 271.231266 92.5453958 271.90081 93.726906L284.542297 115.606724 290.696897 111.274087 283.473189 91.3150713C283.351094 90.9849243 283.300137 90.6328253 283.323672 90.2815929 283.347207 89.9305048 283.444684 89.5882265 283.609731 89.2774319 283.774778 88.966493 284.00364 88.6939701 284.281377 88.4777715 284.5591 88.2614285 284.879428 88.1061757 285.221326 88.0222669L299.249767 84.5994834 296.750364 91.2428606C295.962402 93.3184828 295.682411 95.5523906 295.933651 97.7581362 296.185036 99.9640263 296.960429 102.077776 298.195105 103.923046L311.19778 123.304377 316.124348 120.285973 309.868617 103.114287C309.181065 101.229301 309.023733 99.1919503 309.413379 97.2236332 309.803171 95.2554605 310.72506 93.431709 312.079072 91.9505247L318.85491 84.5272728 290.104553 72.5547517zM426.43013 248.835409L341.912752 248.835409 341.912752 302.27127 426.43013 302.27127 426.43013 248.835409z"/>
      <path fill="#000" d="M342.13038,248.835409 L328.390874,248.835409 L328.390874,281.619028 L342.13038,281.619028 L342.13038,248.835409 Z" opacity=".08"/>
      <path fill="#242A4B" d="M268.608241,6.66972319 C267.086444,11.5608025 268.974233,13.4045854 274.271608,12.2010718 C279.568983,10.9975581 282.015413,9.55334181 281.610895,7.86842275 C282.015413,13.6452592 283.542029,15.8934082 286.190746,14.6128697 C290.163778,12.6921053 287.88109,7.96951789 286.190746,4.73447329 C284.500402,1.4994287 283.503532,0.531800865 278.967009,0.0552099067 C274.430529,-0.421381918 269.171689,2.22153687 268.608241,6.66972319 Z"/>
      <path fill="#F4A28C" d="M281.740388,12.9233962 C281.51886,11.2769952 282.202703,10.6126582 283.791919,10.9303854 C286.175742,11.4069753 285.23666,14.8441997 283.791919,15.089716 C282.828758,15.2533935 282.144914,14.5312869 281.740388,12.9233962 Z"/>
      <path fill="#A45540" d="M72.2949962,200.685308 L75.8346001,211.300247 L67.4406625,216.629401 L64.4066894,198.230148 L72.2949962,200.685308 Z"/>
      <path fill="#A45540" d="M61.5312675,187.976173 C61.9713218,186.966903 62.6564385,186.083394 63.5244807,185.405772 C64.3925374,184.728148 65.4160624,184.277841 66.5022458,184.09568 C67.5884435,183.913519 68.7029437,184.005273 69.7446869,184.362612 C70.7864445,184.719952 71.7224761,185.33157 72.4679323,186.142029 C76.0364798,189.954739 80.3418006,196.034855 75.4730317,199.327707 C70.4934804,202.697526 65.721014,201.253298 61.1556326,194.995025 C60.5808376,192.670023 60.7116078,190.226596 61.5312675,187.976173 L61.5312675,187.976173 Z"/>
      <path fill="#A45540" d="M66.9943242,194.48984 C65.7133176,193.421128 64.783866,193.642578 64.2059694,195.154189 C63.3391251,197.421604 66.7198234,198.533634 67.7311422,197.378263 C68.4053546,196.608016 68.1597487,195.645208 66.9943242,194.48984 Z"/>
      <g transform="rotate(-11.625 923.561 -121.078)">
        <path fill="#CE8172" d="M24.658323,23.1702028 C23.2018344,22.9135229 21.8429888,22.264488 20.7281677,21.2930009 C20.7281677,21.2930009 19.9501806,26.0128319 25.6911552,27.595039 L24.658323,23.1702028 Z" opacity=".31"/>
        <path fill="#F4A28C" d="M21.0304824,15.7842293 C20.4134616,14.1930836 19.5192292,13.68356 18.3477854,14.2556584 C16.5906167,15.1138075 17.9453739,18.5598018 20.5207626,17.9832436 L21.0304824,15.7842293 Z"/>
        <path fill="#3E4263" d="M27.6056587,5.51341414 L29.6980841,10.7561844 L21.0330043,14.0681223 C20.7110764,17.9476955 21.5695395,20.2405451 23.6083938,20.9466713 C22.8997026,20.914032 22.205011,20.7379819 21.5663611,20.4290637 C20.9277257,20.12029 20.3583947,19.6851472 19.8928398,19.1499201 C19.5280126,18.7500162 19.0223371,18.5070988 18.4820455,18.4721487 C17.9417683,18.4370542 17.4089316,18.6128155 16.9955176,18.9623162 L16.8882163,19.0694771 C14.4075155,16.6260485 12.660458,13.5373145 11.8447203,10.1528047 C11.191928,6.73807707 12.7747254,4.76700391 16.5931125,4.23958523 C21.6634288,0.681831893 25.3342775,1.10644153 27.6056587,5.51341414 Z"/>
        <path fill="#3E4263" d="M16.592481,4.23980075 C16.3242397,0.950227672 13.2302042,-0.43532631 7.31037433,0.0831388 C-1.56938486,0.86083531 7.31037433,12.8749149 0,24.057676 C8.94235525,22.1625816 13.5521419,17.2014068 13.8293598,9.17415169 L16.592481,4.23980075 Z"/>
        <path fill="#E81F76" d="M17.1561608,3.90504934 C16.4770752,3.55172104 15.7112618,3.39936682 14.948598,3.46586791 C14.1859341,3.53236901 13.4580596,3.81496366 12.8504308,4.2804884 C10.3286948,5.86270176 9.2153767,11.6820281 13.1857695,13.6664924 C13.1857695,13.6530901 9.89946257,5.78224465 17.1561608,3.90504934 Z"/>
      </g>
      <path fill="#FF6D4A" d="M289.729356,27.5387935 L297.473172,22.671795 C314.241807,16.9430827 325.274817,16.7120086 330.572203,21.9785727 C338.518282,29.8784189 339.081732,59.6869505 318.855348,84.5274176 L290.105004,72.5548902 C290.490268,63.023083 289.088869,57.0536685 285.900806,54.6466465 C281.118705,51.0361134 275.238598,40.2045144 289.729356,27.5387935 Z"/>
      <path fill="#AB6A61" d="M285.986842 114.52358C284.936997 119.39539 285.351158 121.744643 287.229326 121.571337 289.10749 121.398032 290.263279 117.94155 290.696692 111.201891L285.986842 114.52358zM311.343184 122.972364C310.29334 127.834546 310.7075 130.183798 312.585666 130.020121 314.463828 129.856443 315.614804 126.399962 316.038595 119.650675L311.343184 122.972364z"/>
      <path fill="#F4A28C" d="M351.247383 79.5304108C348.011163 80.9264827 346.990213 82.4236496 348.184533 84.0219113 349.378851 85.620173 352.022723 85.3409634 356.11615 83.1842825L356.491797 79.5304108 351.247383 79.5304108zM242.314032 99.4895257C236.997379 99.9227905 234.897687 100.750806 236.014954 101.973572 236.838512 102.966815 237.875552 103.761594 239.0489 104.298754 235.196254 108.602509 234.671331 111.182835 237.474131 112.039735 240.276931 112.896635 243.04602 110.643663 245.781399 105.280819L242.314032 99.4895257z"/>
      <path fill="#CFD8DC" d="M278.696613,125.416271 L123.540149,125.394651 L123.548723,186.915595 L278.705187,186.937214 L278.696613,125.416271 Z" transform="rotate(-24.775 201.123 156.166)"/>
      <path fill="#F1F2F2" d="M252.589504,133.831313 L178.190066,133.820976 L178.191472,143.931109 L252.590909,143.941446 L252.589504,133.831313 Z" opacity=".58" transform="rotate(-24.68 215.39 138.881)"/>
      <path fill="#F1F2F2" d="M261.331319,152.865935 L186.931881,152.855597 L186.933286,162.96573 L261.332724,162.976068 L261.331319,152.865935 Z" opacity=".58" transform="rotate(-24.68 224.132 157.916)"/>
      <path fill="#FFF" d="M159.427907 192.785461C168.300645 192.785461 175.493437 185.595303 175.493437 176.725815 175.493437 167.856326 168.300645 160.666168 159.427907 160.666168 150.555155 160.666168 143.362377 167.856326 143.362377 176.725815 143.362377 185.595303 150.555155 192.785461 159.427907 192.785461zM371.65529 266.234167C372.227508 265.678289 372.240583 264.763958 371.684517 264.191949 371.128436 263.61994 370.21377 263.606855 369.641551 264.162733L371.65529 266.234167zM359.379451 276.14558L358.372582 275.109863C358.092779 275.381693 357.934839 275.755079 357.934709 276.145103 357.934579 276.535127 358.092273 276.90863 358.371903 277.180633L359.379451 276.14558zM369.640858 288.14222C370.212715 288.698386 371.127395 288.685966 371.683852 288.114346 372.240309 287.542727 372.227826 286.628396 371.655969 286.072086L369.640858 288.14222zM369.641551 264.162733L358.372582 275.109863 360.38632 277.181297 371.65529 266.234167 369.641551 264.162733zM358.371903 277.180633L369.640858 288.14222 371.655969 286.072086 360.386999 275.110527 358.371903 277.180633zM396.027981 264.162732C395.455762 263.606855 394.541096 263.61994 393.985015 264.191949 393.428934 264.763958 393.442023 265.678289 394.014242 266.234166L396.027981 264.162732zM406.290124 276.14558L407.297672 277.180632C407.577302 276.90863 407.734996 276.535142 407.734866 276.145103 407.734736 275.755079 407.576796 275.381678 407.296993 275.109863L406.290124 276.14558zM394.013563 286.072085C393.441705 286.628396 393.429223 287.542727 393.98568 288.114346 394.542136 288.685965 395.456817 288.698386 396.02866 288.142219L394.013563 286.072085zM394.014242 266.234166L405.283255 277.181297 407.296993 275.109863 396.027981 264.162732 394.014242 266.234166zM405.282576 275.110527L394.013563 286.072085 396.02866 288.142219 407.297672 277.180632 405.282576 275.110527zM388.516834 265.837139C388.869697 265.121763 388.575606 264.255885 387.859967 263.903136 387.144329 263.550402 386.278134 263.844386 385.925256 264.559762L388.516834 265.837139zM375.118633 286.468523C374.765769 287.183841 375.059861 288.049791 375.775499 288.402467 376.491138 288.755144 377.357332 288.461247 377.71021 287.745784L375.118633 286.468523zM385.925256 264.559762L375.118619 286.468523 377.710182 287.745784 388.516819 265.837139 385.925256 264.559762z"/>
      <path fill="#CECECE" d="M147.811501,118.018532 L105.46613,118.018532 L105.46613,125.9617 L147.811501,125.9617 L147.811501,118.018532 Z" opacity=".63"/>
      <path fill="#FBBEBE" d="M65.5625967,214.535363 C49.0251362,224.54857 39.6728487,241.301434 37.5057342,264.793957 C37.2344937,267.7104 38.0203692,270.627131 39.7201925,273.01297 C41.4200201,275.398665 43.9206546,277.094748 46.7665396,277.791869 L75.8347241,284.940721 L65.5625967,214.535363 Z"/>
      <path fill="#FFF" d="M65.5625967,214.535363 C49.0251362,224.54857 39.6728487,241.301434 37.5057342,264.793957 C37.2344937,267.7104 38.0203692,270.627131 39.7201925,273.01297 C41.4200201,275.398665 43.9206546,277.094748 46.7665396,277.791869 L75.8347241,284.940721 L65.5625967,214.535363 Z" opacity=".2"/>
      <path fill="#000" d="M388.029582,135.638206 L324.547636,135.638206 L324.547636,235.41885 L388.029582,235.41885 L388.029582,135.638206 Z" opacity=".08"/>
      <path fill="#DED9BE" d="M75.9639504,259.858951 L26.4999376,259.854573 L26.5030755,295.298688 L75.9670883,295.303065 L75.9639504,259.858951 Z" transform="rotate(-14.452 51.234 277.579)"/>
      <path fill="#000" d="M51.1444139,258.728406 L56.6344339,281.619155 L55.2041537,294.227128 L68.0478967,290.90544 L71.8764634,280.680417 L59.5383801,256.547631 L51.1444139,258.728406 Z" opacity=".08"/>
      <path fill="#FBBEBE" d="M59.8287249,221.91534 C61.0073155,219.30143 62.7366269,216.972664 64.8984359,215.088313 C67.0602593,213.203961 69.6036099,211.808432 72.3546564,210.99713 C82.9590538,207.805419 103.09874,201.133153 109.051072,210.99713 C114.483298,220.047505 113.038557,242.341332 104.71685,277.878609 L69.0750804,280.637056 C55.966456,257.106006 52.8843375,237.532101 59.8287249,221.91534 Z"/>
      <path fill="#24285B" d="M104.657971,277.921693 L99.9625624,339.170749 L92.5510398,339.170749 L85.934125,291.583959 L69.5507593,280.680139 L104.657971,277.921693 Z"/>
      <path fill="#24285B" d="M69.5506448,280.680364 L59.3218766,339.170969 L67.2679536,339.170969 L84.4314801,290.587662 L69.5506448,280.680364 Z"/>
      <path fill="#FBBEBE" d="M87.7682906,219.156762 C87.2883475,217.653625 87.1658961,216.058781 87.412518,214.500043 C87.6591404,212.941304 88.2673766,211.461997 89.1885437,210.180431 C90.1097109,208.898851 91.3182083,207.850627 92.7173248,207.119697 C94.1164414,206.388752 95.6673136,205.995406 97.2457948,205.9711 C101.782283,205.826679 106.9978,206.606554 110.999734,209.84159 C119.913789,217.062654 149.140909,221.972977 175.521889,197.840183 L180.592931,205.624489 C160.616972,231.620317 134.987258,240.882535 103.703789,233.411141 C100.136246,232.60296 96.827181,230.916841 94.0770722,228.505584 C91.3269779,226.094471 89.2229575,223.034762 87.9561041,219.604468 C87.8838671,219.460047 87.8260803,219.301183 87.7682906,219.156762 Z"/>
      <path fill="#FFF" d="M87.7682906,219.156762 C87.2883475,217.653625 87.1658961,216.058781 87.412518,214.500043 C87.6591404,212.941304 88.2673766,211.461997 89.1885437,210.180431 C90.1097109,208.898851 91.3182083,207.850627 92.7173248,207.119697 C94.1164414,206.388752 95.6673136,205.995406 97.2457948,205.9711 C101.782283,205.826679 106.9978,206.606554 110.999734,209.84159 C119.913789,217.062654 149.140909,221.972977 175.521889,197.840183 L180.592931,205.624489 C160.616972,231.620317 134.987258,240.882535 103.703789,233.411141 C100.136246,232.60296 96.827181,230.916841 94.0770722,228.505584 C91.3269779,226.094471 89.2229575,223.034762 87.9561041,219.604468 C87.8838671,219.460047 87.8260803,219.301183 87.7682906,219.156762 Z" opacity=".2"/>
      <path fill="#000" d="M75.4320799,210.058164 C64.3171774,245.845755 74.8059875,264.923805 106.89851,267.292314 L104.659164,277.92172 L69.0173635,280.680166 C60.8216298,266.247137 56.6645604,249.874386 56.9826869,233.281104 C57.18495,224.15368 60.5030339,217.572884 66.9369383,213.538716 C69.4893744,211.788908 72.3852684,210.602414 75.4320799,210.058164 Z" opacity=".08"/>
      <path fill="#AB6A61" d="M60.7652489 339.170969L55.8386767 342.795928C55.6516389 342.929677 55.5120238 343.119418 55.4400152 343.337739 55.3680068 343.556046 55.3673434 343.791626 55.4381304 344.010352 55.5089174 344.229064 55.6474838 344.41957 55.8337718 344.554344 56.0200597 344.689132 56.244408 344.761213 56.4743676 344.760099L64.7382899 344.760099C65.0245078 344.756346 65.2979397 344.641025 65.5003481 344.438706 65.702742 344.236372 65.8181047 343.96304 65.8218466 343.676927L65.8218466 339.170969 60.7652489 339.170969zM99.760528 339.170969L104.398146 342.795928C104.579144 342.936594 104.711554 343.130379 104.776813 343.350072 104.842072 343.569781 104.8369 343.804407 104.762004 344.02101 104.687123 344.237628 104.54629 344.425332 104.359254 344.557882 104.172232 344.690417 103.948384 344.761155 103.719133 344.760098L97.839037 344.760098C97.0062306 344.756273 96.2088347 344.422834 95.6213048 343.832815 95.0337735 343.242796 94.7039348 342.444205 94.7039348 341.611688L94.7039348 339.170969 99.760528 339.170969z"/>
      <path fill="#FFF" d="M444,116.213266 L339.068417,116.213266 L339.068417,223.922634 L444,223.922634 L444,116.213266 Z"/>
      <path fill="#D8D8D8" d="M422.674367 142.786987L358.022184 142.786987 358.022184 146.657477 422.674367 146.657477 422.674367 142.786987zM422.674367 167.237405L358.022184 167.237405 358.022184 171.107884 422.674367 171.107884 422.674367 167.237405zM422.674367 191.687823L358.022184 191.687823 358.022184 195.558324 422.674367 195.558324 422.674367 191.687823z"/>
      <path fill="#6BB132" d="M419.322549,135.638206 L419.308131,135.638206 C416.180339,135.638206 413.644732,138.172855 413.644732,141.299516 L413.644732,148.14508 C413.644732,151.271799 416.180339,153.80639 419.308131,153.80639 L419.322549,153.80639 C422.450355,153.80639 424.985962,151.271799 424.985962,148.14508 L424.985962,141.299516 C424.985962,138.172855 422.450355,135.638206 419.322549,135.638206 Z"/>
      <path fill="#FFD200" d="M393.706648,160.088624 L393.692186,160.088624 C390.564395,160.088624 388.028788,162.623275 388.028788,165.749938 L388.028788,172.595506 C388.028788,175.722226 390.564395,178.256819 393.692186,178.256819 L393.706648,178.256819 C396.834454,178.256819 399.370018,175.722226 399.370018,172.595506 L399.370018,165.749938 C399.370018,162.623275 396.834454,160.088624 393.706648,160.088624 Z"/>
      <path fill="#FF6D4A" d="M376.36975,184.553499 L376.355288,184.553499 C373.227497,184.553499 370.69189,187.08815 370.69189,190.214812 L370.69189,197.060366 C370.69189,200.186956 373.227497,202.721694 376.355288,202.721694 L376.36975,202.721694 C379.497556,202.721694 382.03312,200.186956 382.03312,197.060366 L382.03312,190.214812 C382.03312,187.08815 379.497556,184.553499 376.36975,184.553499 Z"/>
      <path fill="#FFF" d="M308.685505,229.757419 L190.260041,229.757419 L190.260041,256.735319 L308.685505,256.735319 L308.685505,229.757419 Z"/>
      <path fill="#24285B" d="M308.684843,229.757419 L268.304301,229.757419 L268.304301,256.735319 L308.684843,256.735319 L308.684843,229.757419 Z"/>
      <path fill="#A45540" d="M179.263528,203.617187 C183.38586,204.965109 185.885264,202.606224 186.761741,196.540532 L176.258464,199.01015 L179.263528,203.617187 Z"/>
      <path fill="#000" d="M301.950976,77.4795452 C310.330474,75.881282 315.964964,69.3052956 318.854446,57.751586 C323.188669,40.4210216 313.956774,26.6577084 322.870826,24.5347187 C328.813527,23.1193863 333.017723,29.9456871 335.483414,45.0136212 C335.714573,56.798405 330.171583,69.979262 318.854446,84.5561923 L301.950976,77.4795452 Z" opacity=".08"/>
      <path fill="#FF6D4A" d="M328.651825,20.4330855 C336.048965,23.0615576 347.606761,28.2896059 355.408371,37.142627 C357.621717,39.6607555 359.260633,42.6302003 360.211129,45.8447279 C361.161625,49.0592555 361.401019,52.4421783 360.912841,55.7585229 L357.416563,79.5302565 L349.109294,79.5302565 L349.484927,57.8670728 C349.504286,55.5774187 348.785527,53.3425002 347.435126,51.493042 C346.08458,49.6435838 344.174197,48.2780811 341.986713,47.5987237 C333.014919,44.8547204 319.246523,38.7601447 319.232075,27.2064467 C319.216805,26.0680753 319.476522,24.9428173 319.989167,23.926193 C320.501813,22.9095687 321.252258,22.0316031 322.176807,21.3667904 C323.101355,20.7019834 324.17269,20.2699718 325.299921,20.107424 C326.427153,19.9448768 327.577009,20.0565887 328.651825,20.4330855 L328.651825,20.4330855 Z"/>
      <path fill="#FFF" d="M328.651825,20.4330855 C336.048965,23.0615576 347.606761,28.2896059 355.408371,37.142627 C357.621717,39.6607555 359.260633,42.6302003 360.211129,45.8447279 C361.161625,49.0592555 361.401019,52.4421783 360.912841,55.7585229 L357.416563,79.5302565 L349.109294,79.5302565 L349.484927,57.8670728 C349.504286,55.5774187 348.785527,53.3425002 347.435126,51.493042 C346.08458,49.6435838 344.174197,48.2780811 341.986713,47.5987237 C333.014919,44.8547204 319.246523,38.7601447 319.232075,27.2064467 C319.216805,26.0680753 319.476522,24.9428173 319.989167,23.926193 C320.501813,22.9095687 321.252258,22.0316031 322.176807,21.3667904 C323.101355,20.7019834 324.17269,20.2699718 325.299921,20.107424 C326.427153,19.9448768 327.577009,20.0565887 328.651825,20.4330855 L328.651825,20.4330855 Z" opacity=".2"/>
      <path fill="#000" d="M308.178492,210.058164 L254.246288,210.058164 L254.246288,216.614901 L308.178492,216.614901 L308.178492,210.058164 Z" opacity=".08"/>
    </g>
  </g>
</svg>
