<?xml version="1.0" encoding="UTF-8"?>
<svg width="187px" height="180px" viewBox="0 0 187 180" version="1.1" xmlns="http://www.w3.org/2000/svg" xmlns:xlink="http://www.w3.org/1999/xlink">
    <title>5F9F1668-4D0B-4E77-B7CB-B6CD8BF10144</title>
    <defs>
        <linearGradient x1="62.7050663%" y1="88.1275268%" x2="39.835819%" y2="9.34091126%" id="linearGradient-1">
            <stop stop-color="#5887DA" offset="0%"></stop>
            <stop stop-color="#1F28CF" stop-opacity="0.1" offset="100%"></stop>
        </linearGradient>
    </defs>
    <g id="HF_Invite_Users" stroke="none" stroke-width="1" fill="none" fill-rule="evenodd">
        <g id="HF_Invite_Users_01_00" transform="translate(-643.000000, -254.000000)">
            <g id="illustration" transform="translate(643.000000, 254.000000)">
                <rect id="Rectangle" fill-opacity="0.5" fill="#E7EEFB" fill-rule="nonzero" x="22.475" y="17.311" width="135.096" height="32.4902"></rect>
                <path d="M3.225,104.693 C-5.704,71.371 24.331,34.369 70.315,22.047 C99.174,14.315 127.45,18.139 146.719,30.295 C178.573,47.218 190.127,108.027 157.049,116.411 C153.499,117.287 150.015,118.413 146.623,119.781 C138.583,123.079 134.206,126.931 131.862,130.468 C131.281,131.337 130.712,132.967 130.128,135.13 C116.011,188.625 42.438,196.115 17.854,146.615 C9.862,130.528 5.617,114.29 3.515,105.725 C3.411,105.389 3.318,105.043 3.225,104.693 Z" id="Path" fill-opacity="0.5" fill="url(#linearGradient-1)" fill-rule="nonzero" opacity="0.18"></path>
                <g id="Group" opacity="0.18" transform="translate(0.000000, 17.105000)">
                    <path d="M173.004,91.514 C173.004,125.392 135.11,152.86 88.36,152.86 C59.021,152.86 33.172,142.04 17.984,125.614 C-7.929,101.465 -3.433,40.849 30.073,41.304 C33.663,41.374 37.254,41.192 40.819,40.757 C49.283,39.672 54.415,37.13 57.537,34.372 C58.309,33.695 59.263,32.293 60.366,30.39 C87.355,-16.769 159.043,-5.165 169.781,48.036 C173.274,65.322 173.174,81.804 172.991,90.462 C173.004,90.807 173.004,91.159 173.004,91.514 Z" id="Path" fill-opacity="0.5" fill="#FFFFFF" fill-rule="nonzero"></path>
                    <path d="M15.806,123.423 C14.866,122.404 13.972,121.334 13.123,120.218 C13.123,120.219 13.122,120.219 13.121,120.22 C12.9,120.384 12.586,120.338 12.422,120.117 C11.387,118.726 10.423,117.268 9.528,115.755 C9.388,115.517 9.466,115.21 9.704,115.07 C9.705,115.069 9.705,115.069 9.706,115.069 C9.012,113.869 8.362,112.635 7.754,111.372 C7.754,111.372 7.753,111.372 7.752,111.373 C7.503,111.49 7.205,111.383 7.087,111.133 C6.351,109.565 5.679,107.955 5.073,106.311 C4.977,106.052 5.11,105.764 5.369,105.669 C5.369,105.669 5.37,105.668 5.371,105.668 C4.9,104.361 4.471,103.033 4.082,101.689 C4.082,101.69 4.081,101.69 4.081,101.69 C3.815,101.765 3.539,101.61 3.464,101.344 C2.994,99.672 2.587,97.978 2.242,96.269 C2.188,95.998 2.363,95.735 2.634,95.68 C2.634,95.68 2.635,95.68 2.635,95.68 C2.369,94.311 2.143,92.933 1.958,91.552 C1.957,91.552 1.956,91.552 1.956,91.552 C1.682,91.587 1.432,91.393 1.397,91.119 C1.176,89.389 1.018,87.653 0.922,85.922 C0.907,85.646 1.118,85.411 1.394,85.395 C1.395,85.395 1.395,85.395 1.396,85.395 C1.328,83.997 1.302,82.601 1.316,81.215 C1.316,81.215 1.315,81.215 1.315,81.215 C1.038,81.21 0.819,80.982 0.822946069,80.706 C0.854,78.95 0.951,77.208 1.112,75.491 C1.138,75.216 1.382,75.014 1.657,75.04 C1.657,75.04 1.658,75.04 1.659,75.04 C1.801,73.64 1.988,72.258 2.218,70.898 C2.217,70.898 2.216,70.898 2.216,70.897 C1.944,70.849 1.763,70.589 1.811,70.318 C2.121,68.575 2.503,66.871 2.957,65.215 C3.03,64.948 3.305,64.792 3.571,64.865 C3.572,64.865 3.573,64.865 3.573,64.865 C3.961,63.504 4.398,62.177 4.884,60.893 C4.883,60.893 4.882,60.892 4.881,60.892 C4.624,60.791 4.497,60.501 4.598,60.244 C5.247,58.586 5.979,56.997 6.796,55.494 C6.927,55.251 7.231,55.161 7.474,55.293 C7.475,55.293 7.476,55.294 7.477,55.294 C8.171,54.055 8.924,52.877 9.735,51.77 C9.734,51.77 9.733,51.769 9.732,51.768 C9.511,51.601 9.468,51.288 9.635,51.067 C10.714,49.642 11.893,48.335 13.173,47.166 C13.376,46.979 13.693,46.993 13.879,47.197 C13.88,47.198 13.881,47.2 13.882,47.201 C14.935,46.275 16.053,45.444 17.237,44.718 C17.236,44.716 17.236,44.715 17.235,44.713 C17.095,44.475 17.176,44.169 17.414,44.029 C18.923,43.148 20.533,42.432 22.245,41.899 C22.509,41.817 22.789,41.965 22.871,42.228 C22.872,42.23 22.872,42.232 22.873,42.234 C24.181,41.858 25.549,41.591 26.975,41.441 C26.975,41.44 26.975,41.438 26.975,41.436 C26.952,41.161 27.156,40.919 27.431,40.896 C28.294,40.823 29.177,40.791 30.079,40.804 L30.083,40.804 C30.974,40.821 31.866,40.823 32.757,40.809 C33.033,40.805 33.259,41.025 33.265,41.3 C34.726,41.268 36.186,41.193 37.643,41.077 C37.62,40.803 37.824,40.561 38.098,40.538 C38.986,40.461 39.872,40.369 40.757,40.261 C41.526,40.162 42.266,40.052 42.98,39.93 C43.251,39.884 43.509,40.065 43.556,40.336 C44.787,40.114 45.937,39.858 47.012,39.573 C46.94,39.308 47.096,39.034 47.361,38.961 C48.931,38.524 50.329,38.025 51.574,37.483 C51.826,37.374 52.119,37.488 52.23,37.738 C53.393,37.207 54.422,36.637 55.333,36.043 C55.181,35.816 55.239,35.508 55.465,35.352 C56.108,34.91 56.686,34.456 57.206,33.997 L57.207,33.996 C57.431,33.799 57.685,33.522 57.969,33.16 C58.138,32.946 58.447,32.906 58.663,33.07 C58.921,32.716 59.192,32.313 59.474,31.867 C59.241,31.722 59.169,31.415 59.313,31.181 C59.513,30.855 59.72,30.507 59.933,30.14 C60.367,29.382 60.812,28.639 61.269,27.911 C61.415,27.677 61.724,27.607 61.958,27.753 C61.958,27.754 61.959,27.754 61.959,27.754 C62.707,26.583 63.483,25.451 64.287,24.358 C64.286,24.358 64.286,24.357 64.285,24.357 C64.064,24.191 64.019,23.878 64.185,23.657 C65.229,22.261 66.319,20.929 67.449,19.662 C67.633,19.456 67.949,19.438 68.155,19.622 C68.156,19.622 68.156,19.622 68.157,19.623 C69.088,18.597 70.046,17.614 71.029,16.674 C71.028,16.673 71.028,16.673 71.027,16.672 C70.838,16.471 70.848,16.155 71.049,15.966 C72.316,14.776 73.622,13.655 74.964,12.604 C75.182,12.434 75.496,12.472 75.666,12.69 C75.667,12.69 75.667,12.691 75.668,12.691 C76.762,11.849 77.881,11.053 79.019,10.303 C79.019,10.302 79.019,10.302 79.018,10.301 C78.868,10.069 78.935,9.76 79.167,9.61 C80.622,8.669 82.111,7.801 83.628,7.005 C83.872,6.877 84.174,6.971 84.303,7.215 C84.303,7.216 84.303,7.217 84.304,7.217 C85.53,6.587 86.775,6.005 88.035,5.469 C88.035,5.468 88.034,5.467 88.034,5.467 C87.928,5.212 88.049,4.919 88.304,4.813 C89.9,4.151 91.519,3.563 93.156,3.047 C93.42,2.965 93.7,3.111 93.783,3.374 C93.783,3.375 93.784,3.376 93.784,3.376 C95.1,2.975 96.427,2.62 97.763,2.313 C97.763,2.312 97.763,2.312 97.763,2.311 C97.703,2.041 97.873,1.774 98.143,1.715 C99.826,1.342 101.522,1.044 103.226,0.817 C103.499,0.781 103.751,0.974 103.787,1.247 C103.787,1.248 103.787,1.249 103.787,1.249 C105.151,1.08 106.52,0.957 107.89,0.88 C107.89,0.88 107.89,0.879 107.89,0.878 C107.877,0.603 108.09,0.368 108.366,0.355 C110.086,0.273 111.808,0.264 113.527,0.325 C113.803,0.335 114.018,0.567 114.009,0.843 C114.009,0.843 114.009,0.844 114.009,0.845 C115.381,0.905 116.751,1.011 118.116,1.163 C118.116,1.162 118.116,1.161 118.116,1.161 C118.149,0.886 118.398,0.69 118.672,0.723 C120.381,0.927 122.081,1.201 123.767,1.544 C124.037,1.599 124.212,1.864 124.157,2.134 C124.157,2.135 124.156,2.135 124.156,2.136 C125.5,2.421 126.834,2.751 128.156,3.125 C128.156,3.124 128.156,3.124 128.156,3.123 C128.234,2.858 128.511,2.706 128.776,2.783 C130.428,3.265 132.06,3.815 133.666,4.433 C133.924,4.532 134.053,4.822 133.954,5.079 C133.953,5.08 133.953,5.081 133.953,5.081 C135.23,5.585 136.491,6.131 137.732,6.721 C137.732,6.72 137.733,6.719 137.733,6.719 C137.854,6.47 138.153,6.367 138.401,6.487 C139.948,7.237 141.464,8.054 142.944,8.936 C143.182,9.077 143.259,9.384 143.118,9.621 C143.118,9.622 143.117,9.623 143.117,9.623 C144.289,10.335 145.438,11.089 146.561,11.883 C146.561,11.883 146.561,11.882 146.562,11.882 C146.723,11.658 147.036,11.607 147.26,11.768 C148.652,12.772 150.004,13.839 151.311,14.969 C151.52,15.15 151.543,15.466 151.362,15.675 C151.361,15.675 151.361,15.676 151.361,15.676 C152.388,16.581 153.387,17.526 154.353,18.509 C154.354,18.509 154.354,18.508 154.355,18.508 C154.553,18.316 154.87,18.321 155.062,18.52 C156.251,19.752 157.392,21.044 158.478,22.395 C158.651,22.611 158.617,22.925 158.401,23.098 C158.401,23.099 158.4,23.099 158.4,23.1 C159.245,24.17 160.056,25.278 160.83,26.421 C160.831,26.421 160.831,26.42 160.832,26.42 C161.062,26.267 161.372,26.33 161.525,26.56 C162.469,27.979 163.356,29.454 164.184,30.982 C164.316,31.225 164.226,31.528 163.983,31.66 C163.982,31.66 163.981,31.66 163.981,31.661 C164.618,32.862 165.218,34.097 165.779,35.364 C165.779,35.363 165.78,35.363 165.781,35.363 C166.034,35.253 166.329,35.37 166.438,35.623 C167.112,37.182 167.727,38.789 168.279,40.443 C168.366,40.705 168.225,40.988 167.963,41.076 C167.962,41.076 167.961,41.076 167.961,41.076 C168.379,42.366 168.76,43.685 169.1,45.033 C169.101,45.033 169.101,45.032 169.102,45.032 C169.37,44.967 169.641,45.131 169.706,45.399 C169.91,46.235 170.099,47.081 170.271,47.937 C170.449,48.815 170.617,49.691 170.776,50.564 C170.826,50.836 170.646,51.096 170.374,51.146 C170.374,51.146 170.374,51.146 170.374,51.146 C170.63,52.58 170.863,54.005 171.075,55.417 C171.075,55.417 171.075,55.417 171.076,55.417 C171.349,55.377 171.603,55.566 171.643,55.84 C171.905,57.631 172.134,59.401 172.332,61.142 C172.363,61.416 172.166,61.664 171.891,61.695 C171.891,61.695 171.891,61.695 171.891,61.695 C172.052,63.154 172.193,64.592 172.315,66.003 C172.315,66.003 172.316,66.003 172.316,66.003 C172.591,65.98 172.833,66.184 172.856,66.46 C173.009,68.286 173.131,70.067 173.228,71.791 C173.243,72.067 173.032,72.303 172.756,72.318 C172.756,72.318 172.756,72.318 172.756,72.318 C172.836,73.806 172.896,75.251 172.942,76.644 C172.942,76.644 172.943,76.644 172.943,76.644 C173.219,76.636 173.449,76.853 173.458,77.129 C173.515,79.01 173.545,80.795 173.557013,82.467 C173.559,82.743 173.337,82.969 173.061,82.971 C173.06,82.971 173.06,82.971 173.06,82.971 C173.068,84.52 173.06,85.968 173.044,87.299 C173.044,87.299 173.045,87.299 173.045,87.299 C173.321,87.302 173.542,87.529 173.538,87.805 C173.525,88.755 173.509,89.641 173.491,90.458 C173.493,90.512 173.495,90.565 173.496,90.618 C173.497,90.651 173.498,90.683 173.499,90.715 C173.501,90.813 173.474,90.906 173.427,90.984 C173.475,91.061 173.504,91.152 173.504,91.25 C173.504,91.338 173.504,91.427 173.504,91.514 C173.504,92.329 173.482,93.14 173.44,93.947 C173.425,94.223 173.189,94.435 172.914,94.42 C172.913,94.42 172.912,94.42 172.911,94.42 C172.829,95.692 172.694,96.954 172.507,98.204 C172.507,98.205 172.508,98.205 172.509,98.205 C172.782,98.249 172.967,98.505 172.923,98.778 C172.665,100.381 172.323,101.964 171.9,103.527 C171.828,103.794 171.553,103.951 171.287,103.879 C171.286,103.879 171.285,103.878 171.284,103.878 C170.94,105.098 170.545,106.304 170.103,107.496 C170.104,107.497 170.104,107.497 170.105,107.497 C170.363,107.596 170.492,107.885 170.393,108.143 C169.816,109.649 169.163,111.131 168.437,112.588 C168.313,112.835 168.013,112.935 167.766,112.812 C167.765,112.812 167.765,112.811 167.764,112.811 C167.19,113.934 166.572,115.042 165.911,116.134 C165.912,116.134 165.912,116.135 165.913,116.135 C166.148,116.28 166.221,116.588 166.076,116.823 C165.232,118.189 164.322,119.528 163.349,120.838 C163.185,121.059 162.872,121.106 162.65,120.941 C162.649,120.941 162.649,120.94 162.648,120.94 C161.889,121.944 161.092,122.931 160.26,123.9 C160.26,123.901 160.261,123.901 160.261,123.902 C160.469,124.083 160.49,124.399 160.309,124.607 C159.256,125.812 158.148,126.989 156.986,128.14 C156.79,128.33 156.473,128.33 156.279,128.13 C156.279,128.13 156.278,128.13 156.278,128.13 C155.376,129.01 154.441,129.87 153.477,130.71 C153.477,130.71 153.477,130.71 153.478,130.71 C153.658,130.92 153.634,131.23 153.425,131.41 C152.213,132.46 150.956,133.47 149.655,134.45 C149.434,134.61 149.12,134.57 148.954,134.35 C148.954,134.35 148.954,134.35 148.953,134.35 C147.941,135.1 146.902,135.83 145.838,136.55 C145.838,136.55 145.839,136.55 145.839,136.55 C145.991,136.78 145.928,137.09 145.698,137.24 C144.367,138.12 142.998,138.97 141.593,139.79 C141.354,139.93 141.048,139.85 140.909,139.61 C140.909,139.61 140.909,139.61 140.908,139.61 C139.816,140.23 138.702,140.84 137.567,141.43 C137.568,141.43 137.568,141.43 137.568,141.43 C137.694,141.68 137.596,141.98 137.351,142.11 C135.928,142.83 134.473,143.53 132.988,144.2 C132.736,144.31 132.441,144.2 132.328,143.94 C132.328,143.94 132.327,143.94 132.327,143.94 C131.173,144.45 130.002,144.94 128.813,145.41 C128.813,145.41 128.813,145.41 128.813,145.41 C128.913,145.67 128.786,145.96 128.528,146.06 C127.041,146.64 125.527,147.19 123.988,147.7 C123.726,147.79 123.443,147.65 123.355,147.39 C123.355,147.39 123.355,147.39 123.354,147.38 C122.157,147.78 120.944,148.15 119.717,148.51 C119.717,148.51 119.717,148.51 119.717,148.51 C119.793,148.78 119.638,149.05 119.373,149.13 C117.835,149.56 116.276,149.97 114.696,150.34 C114.427,150.41 114.158,150.24 114.095,149.97 C114.095,149.97 114.094,149.97 114.094,149.97 C112.864,150.25 111.621,150.52 110.367,150.76 C110.367,150.76 110.367,150.76 110.367,150.76 C110.418,151.03 110.24,151.3 109.969,151.35 C108.398,151.65 106.81,151.91 105.205,152.15 C104.932,152.19 104.678,152 104.639,151.72 C104.639,151.72 104.639,151.72 104.638,151.72 C103.389,151.9 102.13,152.06 100.862,152.19 C100.862,152.19 100.862,152.19 100.862,152.19 C100.89,152.47 100.691,152.71 100.416,152.74 C98.826,152.9 97.222,153.04 95.605,153.14 C95.329,153.15 95.092,152.94 95.075,152.67 C95.075,152.67 95.075,152.67 95.075,152.67 C93.815,152.74 92.546,152.79 91.271,152.82 C91.271,152.82 91.271,152.82 91.271,152.82 C91.276,153.1 91.057,153.33 90.781,153.33 C89.977,153.35 89.17,153.36 88.36,153.36 C87.546,153.36 86.735,153.35 85.926,153.33 C85.65,153.33 85.431,153.1 85.436,152.82 C85.436,152.82 85.436,152.82 85.436,152.82 C84.147,152.79 82.865,152.74 81.591,152.66 C81.591,152.66 81.591,152.66 81.591,152.66 C81.574,152.94 81.337,153.15 81.062,153.13 C79.431,153.03 77.813,152.9 76.21,152.73 C75.936,152.7 75.736,152.46 75.764,152.18 C75.764,152.18 75.765,152.18 75.765,152.18 C74.483,152.04 73.21,151.88 71.948,151.7 C71.948,151.7 71.948,151.7 71.948,151.71 C71.908,151.98 71.654,152.17 71.38,152.13 C69.763,151.89 68.163,151.62 66.581,151.32 C66.31,151.26 66.132,151 66.184,150.73 C66.184,150.73 66.184,150.73 66.184,150.73 C64.918,150.48 63.665,150.21 62.423,149.92 C62.423,149.92 62.423,149.92 62.423,149.92 C62.359,150.19 62.09,150.36 61.821,150.3 C60.23,149.92 58.659,149.51 57.111,149.06 C56.846,148.99 56.692,148.71 56.768,148.44 C56.768,148.44 56.768,148.44 56.768,148.44 C55.529,148.08 54.305,147.7 53.096,147.3 C53.096,147.3 53.095,147.3 53.095,147.3 C53.007,147.56 52.723,147.7 52.461,147.61 C50.91,147.09 49.385,146.53 47.886,145.94 C47.629,145.84 47.502,145.55 47.603,145.29 C47.603,145.29 47.604,145.29 47.604,145.29 C46.404,144.81 45.223,144.31 44.06,143.8 C44.06,143.8 44.059,143.8 44.059,143.8 C43.945,144.05 43.649,144.16 43.398,144.05 C41.904,143.37 40.442,142.66 39.012,141.92 C38.767,141.8 38.671,141.5 38.798,141.25 C38.798,141.25 38.798,141.25 38.798,141.25 C37.654,140.65 36.531,140.03 35.431,139.39 C35.43,139.39 35.43,139.39 35.43,139.39 C35.29,139.63 34.983,139.71 34.745,139.57 C33.331,138.73 31.954,137.87 30.617,136.97 C30.387,136.82 30.326,136.51 30.48,136.28 C30.48,136.28 30.48,136.28 30.481,136.28 C29.411,135.55 28.368,134.8 27.351,134.04 C27.351,134.04 27.351,134.04 27.35,134.04 C27.183,134.26 26.869,134.3 26.65,134.13 C25.344,133.14 24.083,132.11 22.87,131.05 C22.662,130.87 22.64,130.55 22.822,130.34 C22.822,130.34 22.823,130.34 22.823,130.34 C21.855,129.49 20.919,128.61 20.015,127.715 C20.015,127.715 20.014,127.716 20.014,127.716 C19.818,127.911 19.501,127.91 19.307,127.715 C18.734,127.14 18.175,126.557 17.629,125.967 C16.996,125.376 16.381,124.764 15.784,124.132 C15.594,123.932 15.603,123.615 15.804,123.425 C15.805,123.425 15.805,123.424 15.806,123.423 Z" id="Path" stroke-opacity="0.5" stroke="#000000" stroke-linecap="round" stroke-dasharray="5"></path>
                </g>
                <g id="Group" transform="translate(7.000000, 22.105000)">
                    <path d="M32.802,65.609 C50.602,65.609 65.031,51.18 65.031,33.381 C65.031,15.582 50.602,1.152 32.802,1.152 C15.003,1.152 0.574,15.582 0.574,33.381 C0.574,51.18 15.003,65.609 32.802,65.609 Z" id="Path" fill="#D4E5F9" fill-rule="nonzero"></path>
                    <path d="M32.802,66.109 C50.878,66.109 65.531,51.456 65.531,33.381 C65.531,15.305 50.878,0.652 32.802,0.652 C14.727,0.652 0.074,15.305 0.074,33.381 C0.074,51.456 14.727,66.109 32.802,66.109 Z" id="Path" stroke="#D4E5F9"></path>
                </g>
                <path d="M39.802,87.714 C57.602,87.714 72.031,73.285 72.031,55.486 C72.031,37.687 57.602,23.257 39.802,23.257 C22.003,23.257 7.574,37.687 7.574,55.486 C7.574,73.285 22.003,87.714 39.802,87.714 Z" id="Path" fill="#D4E5F9" fill-rule="nonzero"></path>
                <path d="M44.095,40.673 C44.615,43.183 44.792,45.752 44.621,48.309 C44.596,48.616 44.506,48.915 44.358,49.185 C44.209,49.455 44.005,49.691 43.76,49.877 C43.514,50.063 43.232,50.195 42.931,50.264 C42.631,50.333 42.319,50.338 42.017,50.278 C41.047,50.197 40.12,49.842 39.345,49.253 C38.57,48.664 37.979,47.866 37.641,46.953 L35.803,43.124 C35.522,42.315 35.495,41.439 35.725,40.613 C35.956,39.788 36.434,39.053 37.094,38.507 C37.654,38.043 38.321,37.725 39.035,37.583 C39.748,37.441 40.486,37.48 41.181,37.695 C41.876,37.91 42.507,38.295 43.016,38.815 C43.524,39.335 43.896,39.974 44.095,40.673 Z" id="Path" fill="#F4A28C" fill-rule="nonzero"></path>
                <polygon id="Path" fill="#F4A28C" fill-rule="nonzero" points="36.107 43.802 35.494 58.877 43.83 58.614 40.92 47.762"></polygon>
                <path d="M42.995,41.001 C41.584,41.222 40.152,41.28 38.728,41.176 C39.209,41.749 39.512,42.449 39.601,43.191 C39.691,43.933 39.562,44.685 39.231,45.355 C38.919,46.012 38.388,46.539 37.729,46.847 C37.07,47.154 36.325,47.222 35.621,47.04 L35.009,41.155 C34.9,40.326 35.015,39.483 35.342,38.713 C35.669,37.944 36.196,37.276 36.868,36.779 C37.46,36.335 38.081,35.933 38.728,35.575 C40.325,34.7 42.929,35.575 44.329,34.219 C44.466,34.087 44.635,33.993 44.82,33.946 C45.004,33.899 45.198,33.901 45.381,33.952 C45.564,34.003 45.731,34.101 45.865,34.236 C45.999,34.371 46.096,34.538 46.145,34.722 C46.543,35.763 46.583,36.907 46.258,37.973 C45.933,39.039 45.262,39.966 44.351,40.608 C43.919,40.8 43.463,40.933 42.995,41.001 L42.995,41.001 Z" id="Path" fill="#8F744A" fill-rule="nonzero"></path>
                <path d="M39.695,45.159 C39.695,45.159 39.455,43.408 38.164,43.693 C36.873,43.977 37.179,46.537 39.017,46.559 L39.695,45.159 Z" id="Path" fill="#F4A28C" fill-rule="nonzero"></path>
                <path d="M44.553,43.539 L46.019,45.158 C46.102,45.249 46.161,45.36 46.191,45.479 C46.22,45.598 46.22,45.723 46.19,45.843 C46.159,45.962 46.1,46.072 46.017,46.162 C45.933,46.253 45.829,46.321 45.713,46.362 L43.984,46.887 L44.553,43.539 Z" id="Path" fill="#F4A28C" fill-rule="nonzero"></path>
                <path d="M41.665,50.103 C40.607,49.968 39.611,49.527 38.799,48.834 C39.377,50.936 40.719,52.746 42.562,53.91 L41.665,50.103 Z" id="Path" fill="#CE8172" fill-rule="nonzero" opacity="0.31"></path>
                <path d="M18.079,79.29 C18.079,79.29 17.576,59.052 39.411,58.024 C61.247,56.995 60.656,80.187 60.656,80.187 C60.656,80.187 40.068,98.96 18.079,79.29 Z" id="Path" fill="#333645" fill-rule="nonzero"></path>
                <path d="M134.623,64.456 C152.422,64.456 166.851,50.027 166.851,32.228 C166.851,14.429 152.422,5.68434189e-14 134.623,5.68434189e-14 C116.824,5.68434189e-14 102.395,14.429 102.395,32.228 C102.395,50.027 116.824,64.456 134.623,64.456 Z" id="Path" fill="#FFFFFF" fill-rule="nonzero"></path>
                <path d="M134.623,64.456 C152.422,64.456 166.851,50.027 166.851,32.228 C166.851,14.429 152.422,5.68434189e-14 134.623,5.68434189e-14 C116.824,5.68434189e-14 102.395,14.429 102.395,32.228 C102.395,50.027 116.824,64.456 134.623,64.456 Z" id="Path" fill-opacity="0.1" fill="#3AD29F" fill-rule="nonzero"></path>
                <path d="M137.992,17.601 C139.195,20.16 140.05,22.869 140.533,25.655 C140.568,25.99 140.537,26.329 140.442,26.652 C140.346,26.975 140.187,27.276 139.975,27.538 C139.763,27.8 139.501,28.017 139.205,28.178 C138.908,28.338 138.583,28.438 138.248,28.473 C137.175,28.646 136.074,28.506 135.078,28.07 C134.083,27.634 133.233,26.92 132.633,26.014 L129.661,22.376 C129.142,21.585 128.882,20.652 128.917,19.707 C128.952,18.761 129.28,17.85 129.856,17.099 C131.834,14.169 136.803,14.722 137.992,17.601 Z" id="Path" fill="#F4A28C" fill-rule="nonzero"></path>
                <polygon id="Path" fill="#F4A28C" fill-rule="nonzero" points="130.777 23.206 129.578 39.846 138.8 39.846 136.033 28.053"></polygon>
                <path d="M139.207,20.573 L141.256,21.915 C141.373,21.988 141.469,22.089 141.535,22.209 C141.602,22.329 141.637,22.464 141.637,22.602 C141.637,22.739 141.602,22.874 141.535,22.994 C141.469,23.114 141.373,23.215 141.256,23.288 L139.555,24.313 L139.207,20.573 Z" id="Path" fill="#F4A28C" fill-rule="nonzero"></path>
                <path d="M136.111,28.38 C134.999,28.184 133.961,27.688 133.109,26.946 C133.109,26.946 132.515,30.553 136.9,31.762 L136.111,28.38 Z" id="Path" fill="#CE8172" fill-rule="nonzero" opacity="0.31"></path>
                <path d="M133.776,23.001 C133.776,23.001 133.069,21.177 131.727,21.833 C130.385,22.489 131.42,25.122 133.387,24.682 L133.776,23.001 Z" id="Path" fill="#F4A28C" fill-rule="nonzero"></path>
                <path d="M138.799,15.152 L140.398,19.159 L133.779,21.689 C133.779,21.689 133.41,26.136 135.746,26.946 C135.205,26.921 134.674,26.786 134.186,26.55 C133.698,26.314 133.263,25.982 132.908,25.573 C132.629,25.267 132.243,25.082 131.83,25.055 C131.417,25.028 131.01,25.162 130.694,25.429 L130.612,25.511 C128.718,23.644 127.383,21.284 126.76,18.698 C126.012,14.783 130.387,14.179 130.387,14.179 C130.387,14.179 136.197,10.101 138.799,15.152 Z" id="Path" fill="#FF6421" fill-rule="nonzero"></path>
                <path d="M130.386,14.179 C130.386,14.179 130.078,10.409 123.295,11.003 C116.512,11.597 123.295,20.778 117.711,29.323 C117.711,29.323 127.957,27.151 128.275,17.95 L130.386,14.179 Z" id="Path" fill="#FF6421" fill-rule="nonzero"></path>
                <path d="M112.921,56.033 C112.921,56.033 112.418,35.816 134.253,34.766 C156.089,33.716 155.498,56.93 155.498,56.93 C155.498,56.93 134.91,75.702 112.921,56.033 Z" id="Path" fill="#69A1AC" fill-rule="nonzero"></path>
                <path d="M149.83,161.065 C167.629,161.065 182.058,146.635 182.058,128.837 C182.058,111.038 167.629,96.609 149.83,96.609 C132.031,96.609 117.602,111.038 117.602,128.837 C117.602,146.635 132.031,161.065 149.83,161.065 Z" id="Path" fill="#FFFFFF" fill-rule="nonzero"></path>
                <path d="M149.83,161.065 C167.629,161.065 182.058,146.635 182.058,128.837 C182.058,111.038 167.629,96.609 149.83,96.609 C132.031,96.609 117.602,111.038 117.602,128.837 C117.602,146.635 132.031,161.065 149.83,161.065 Z" id="Path" fill-opacity="0.1" fill="#FF9B00" fill-rule="nonzero"></path>
                <path d="M154.144,114.025 C154.664,116.535 154.841,119.104 154.669,121.661 C154.644,121.968 154.555,122.267 154.406,122.537 C154.258,122.807 154.054,123.043 153.808,123.229 C153.563,123.415 153.28,123.547 152.98,123.616 C152.68,123.685 152.368,123.69 152.066,123.63 C151.095,123.552 150.167,123.197 149.391,122.608 C148.616,122.018 148.025,121.219 147.69,120.305 L145.852,116.476 C145.564,115.667 145.534,114.789 145.765,113.963 C145.996,113.136 146.477,112.401 147.143,111.859 C147.703,111.395 148.37,111.077 149.083,110.935 C149.797,110.793 150.535,110.832 151.23,111.047 C151.925,111.262 152.555,111.647 153.064,112.167 C153.573,112.687 153.944,113.326 154.144,114.025 Z" id="Path" fill="#B28B67" fill-rule="nonzero"></path>
                <polygon id="Path" fill="#B28B67" fill-rule="nonzero" points="146.136 117.154 145.545 132.229 153.881 131.966 150.971 121.114"></polygon>
                <path d="M154.58,116.935 L156.068,118.554 C156.15,118.647 156.208,118.758 156.237,118.879 C156.265,119 156.263,119.125 156.23,119.245 C156.198,119.365 156.136,119.474 156.05,119.564 C155.964,119.653 155.858,119.72 155.74,119.758 L154.033,120.283 L154.58,116.935 Z" id="Path" fill="#B28B67" fill-rule="nonzero"></path>
                <path d="M151.692,123.499 C150.641,123.362 149.652,122.921 148.848,122.23 C149.426,124.332 150.768,126.142 152.611,127.306 L151.692,123.499 Z" id="Path" fill="#CE8172" fill-rule="nonzero" opacity="0.31"></path>
                <path d="M128.128,152.645 C128.128,152.645 127.625,132.426 149.46,131.376 C171.296,130.325 170.705,153.535 170.705,153.535 C170.705,153.535 150.117,172.315 128.128,152.645 Z" id="Path" fill="#7ADBD4" fill-rule="nonzero"></path>
                <path d="M145.96,121.967 L143.444,117.263 C143.444,117.263 139.2,117.723 139.068,114.638 C138.937,111.553 142.219,112.297 142.219,110.262 C142.219,108.227 141.803,105.142 145.063,105.208 C148.323,105.274 149.22,107.921 150.73,106.214 C151.044,105.864 151.456,105.617 151.913,105.506 C152.37,105.396 152.85,105.427 153.289,105.595 C153.729,105.764 154.106,106.062 154.372,106.45 C154.638,106.838 154.779,107.297 154.778,107.768 C154.953,109.846 157.163,109.212 156.265,112.144 C155.368,115.075 150.73,113.544 150.73,113.544 C150.73,113.544 146.529,113.544 147.054,115.404 C147.579,117.263 150.905,121.311 145.96,121.967 Z" id="Path" fill="#455A64" fill-rule="nonzero"></path>
                <path d="M148.978,118.051 C148.978,118.051 148.212,116.454 147.052,117.11 C145.893,117.767 147.052,120.108 148.715,119.583 L148.978,118.051 Z" id="Path" fill="#B28B67" fill-rule="nonzero"></path>
                <path d="M45.17,178.955 C62.969,178.955 77.398,164.525 77.398,146.725 C77.398,128.929 62.969,114.5 45.17,114.5 C27.37,114.5 12.941,128.929 12.941,146.725 C12.941,164.525 27.37,178.955 45.17,178.955 Z" id="Path" fill="#FFFFFF" fill-rule="nonzero"></path>
                <path d="M45.17,178.955 C62.969,178.955 77.398,164.525 77.398,146.725 C77.398,128.929 62.969,114.5 45.17,114.5 C27.37,114.5 12.941,128.929 12.941,146.725 C12.941,164.525 27.37,178.955 45.17,178.955 Z" id="Path" fill-opacity="0.1" fill="#2B44FF" fill-rule="nonzero"></path>
                <path d="M49.482,131.938 C49.989,134.442 50.165,137.002 50.007,139.552 C49.925,140.161 49.605,140.713 49.117,141.086 C48.629,141.46 48.013,141.624 47.403,141.543 C46.429,141.465 45.498,141.108 44.722,140.515 C43.946,139.921 43.357,139.115 43.028,138.195 L41.19,134.367 C40.9,133.562 40.869,132.686 41.101,131.863 C41.332,131.039 41.814,130.308 42.481,129.772 C43.041,129.307 43.708,128.99 44.421,128.848 C45.135,128.706 45.873,128.744 46.568,128.959 C47.263,129.174 47.893,129.559 48.402,130.08 C48.911,130.6 49.282,131.238 49.482,131.938 Z" id="Path" fill="#F4CA8C" fill-rule="nonzero"></path>
                <polygon id="Path" fill="#F4CA8C" fill-rule="nonzero" points="41.475 135.067 40.885 150.145 49.199 149.875 46.289 139.005"></polygon>
                <path d="M45.084,136.423 C45.084,136.423 44.843,134.673 43.53,134.957 C42.217,135.242 42.567,137.78 44.383,137.823 L45.084,136.423 Z" id="Path" fill="#F4CA8C" fill-rule="nonzero"></path>
                <path d="M49.92,134.804 L51.408,136.401 C51.49,136.494 51.548,136.605 51.577,136.726 C51.605,136.847 51.603,136.972 51.57,137.092 C51.538,137.211 51.476,137.321 51.39,137.41 C51.304,137.5 51.198,137.567 51.08,137.605 L49.373,138.152 L49.92,134.804 Z" id="Path" fill="#F4CA8C" fill-rule="nonzero"></path>
                <path d="M47.032,141.368 C45.971,141.227 44.975,140.778 44.166,140.077 C44.734,142.19 46.088,144.006 47.951,145.155 L47.032,141.368 Z" id="Path" fill="#CE8172" fill-rule="nonzero" opacity="0.31"></path>
                <path d="M23.446,170.645 C23.446,170.645 22.965,150.405 44.779,149.355 C66.592,148.305 66.045,171.535 66.045,171.535 C66.045,171.535 45.435,190.335 23.446,170.645 Z" id="Path" fill="#FF9B00" fill-rule="nonzero"></path>
                <path d="M33.4,142.965 C32.803,143.938 32.425,145.029 32.293,146.165 C32.161,147.295 32.277,148.445 32.634,149.525 C32.874,150.535 33.46,151.415 34.289,152.025 C35.117,152.645 36.135,152.945 37.163,152.875 C42.917,152.655 42.064,150.975 42.83,142.724 C43.53,134.979 44.165,132.682 48.715,131.522 C53.266,130.362 50.466,125.877 46.528,125.987 C42.589,126.096 35.588,126.293 35.785,133.513 C35.882,136.824 35.056,140.097 33.4,142.965 L33.4,142.965 Z" id="Path" fill="#231F20" fill-rule="nonzero"></path>
                <rect id="Rectangle" fill="#E81F76" fill-rule="nonzero" x="159.645" y="135.969" width="26.836" height="26.836" rx="13.418"></rect>
                <polygon id="Path" fill="#FFFFFF" points="179.324 148.695 173.758 148.695 173.758 143.125 172.367 143.125 172.367 148.695 166.801 148.695 166.801 150.085 172.367 150.085 172.367 155.645 173.758 155.645 173.758 150.085 179.324 150.085"></polygon>
            </g>
        </g>
    </g>
</svg>